<?xml version="1.0" encoding="us-ascii" standalone="no"?>

<svg xmlns="http://www.w3.org/2000/svg" contentStyleType="text/css" height="495px" preserveAspectRatio="none"
     style="width:755px;height:495px;background:#FFFFFF;" version="1.1" viewBox="0 0 755 495" width="755px"
     zoomAndPan="magnify">
    <defs/>
    <g><!--cluster <<system>> PURIS-->
        <g id="cluster_&lt;&lt;system&gt;&gt; PURIS">
            <path
                d="M373,196 L501,196 A3.75,3.75 0 0 1 503.5,198.5 L510.5,218.2969 L590,218.2969 A2.5,2.5 0 0 1 592.5,220.7969 L592.5,396.5 A2.5,2.5 0 0 1 590,399 L373,399 A2.5,2.5 0 0 1 370.5,396.5 L370.5,198.5 A2.5,2.5 0 0 1 373,196 "
                fill="none" style="stroke:#000000;stroke-width:1.5;"/>
            <line style="stroke:#000000;stroke-width:1.5;" x1="370.5" x2="510.5" y1="218.2969" y2="218.2969"/>
            <text fill="#000000" font-family="sans-serif" font-size="14" font-weight="bold" lengthAdjust="spacing"
                  textLength="127" x="374.5" y="210.9951">&#171;system&#187; PURIS
            </text>
        </g><!--entity puris_backend-->
        <g id="elem_puris_backend">
            <rect fill="#F1F1F1" height="46.2969" rx="2.5" ry="2.5" style="stroke:#181818;stroke-width:0.5;" width="188"
                  x="388.5" y="231"/>
            <rect fill="#F1F1F1" height="10" style="stroke:#181818;stroke-width:0.5;" width="15" x="556.5" y="236"/>
            <rect fill="#F1F1F1" height="2" style="stroke:#181818;stroke-width:0.5;" width="4" x="554.5" y="238"/>
            <rect fill="#F1F1F1" height="2" style="stroke:#181818;stroke-width:0.5;" width="4" x="554.5" y="242"/>
            <text fill="#000000" font-family="sans-serif" font-size="14" lengthAdjust="spacing" textLength="148"
                  x="403.5" y="263.9951">PURIS FOSS Backend
            </text>
        </g><!--entity puris_frontend-->
        <g id="elem_puris_frontend">
            <rect fill="#F1F1F1" height="46.2969" rx="2.5" ry="2.5" style="stroke:#181818;stroke-width:0.5;" width="190"
                  x="386.5" y="337"/>
            <rect fill="#F1F1F1" height="10" style="stroke:#181818;stroke-width:0.5;" width="15" x="556.5" y="342"/>
            <rect fill="#F1F1F1" height="2" style="stroke:#181818;stroke-width:0.5;" width="4" x="554.5" y="344"/>
            <rect fill="#F1F1F1" height="2" style="stroke:#181818;stroke-width:0.5;" width="4" x="554.5" y="348"/>
            <text fill="#000000" font-family="sans-serif" font-size="14" lengthAdjust="spacing" textLength="150"
                  x="401.5" y="369.9951">PURIS FOSS Frontend
            </text>
        </g><!--entity data_prov-->
        <g id="elem_data_prov">
            <rect fill="#F1F1F1" height="46.2969" rx="2.5" ry="2.5" style="stroke:#181818;stroke-width:0.5;" width="293"
                  x="7" y="231"/>
            <rect fill="#F1F1F1" height="10" style="stroke:#181818;stroke-width:0.5;" width="15" x="280" y="236"/>
            <rect fill="#F1F1F1" height="2" style="stroke:#181818;stroke-width:0.5;" width="4" x="278" y="238"/>
            <rect fill="#F1F1F1" height="2" style="stroke:#181818;stroke-width:0.5;" width="4" x="278" y="242"/>
            <text fill="#000000" font-family="sans-serif" font-size="14" lengthAdjust="spacing" textLength="253" x="22"
                  y="263.9951">Data Provisioning &amp; Transformation
            </text>
        </g><!--entity edc-->
        <g id="elem_edc">
            <rect fill="#F1F1F1" height="46.2969" rx="2.5" ry="2.5" style="stroke:#181818;stroke-width:0.5;" width="344"
                  x="310.5" y="7"/>
            <rect fill="#F1F1F1" height="10" style="stroke:#181818;stroke-width:0.5;" width="15" x="634.5" y="12"/>
            <rect fill="#F1F1F1" height="2" style="stroke:#181818;stroke-width:0.5;" width="4" x="632.5" y="14"/>
            <rect fill="#F1F1F1" height="2" style="stroke:#181818;stroke-width:0.5;" width="4" x="632.5" y="18"/>
            <text fill="#000000" font-family="sans-serif" font-size="14" lengthAdjust="spacing" textLength="304"
                  x="325.5" y="39.9951">Eclipse DataSpace Components Connector
            </text>
        </g><!--entity postgres-->
        <g id="elem_postgres">
            <rect fill="#F1F1F1" height="46.2969" rx="2.5" ry="2.5" style="stroke:#181818;stroke-width:0.5;" width="138"
                  x="611.5" y="337"/>
            <rect fill="#F1F1F1" height="10" style="stroke:#181818;stroke-width:0.5;" width="15" x="729.5" y="342"/>
            <rect fill="#F1F1F1" height="2" style="stroke:#181818;stroke-width:0.5;" width="4" x="727.5" y="344"/>
            <rect fill="#F1F1F1" height="2" style="stroke:#181818;stroke-width:0.5;" width="4" x="727.5" y="348"/>
            <text fill="#000000" font-family="sans-serif" font-size="14" lengthAdjust="spacing" textLength="98"
                  x="626.5" y="369.9951">Postgresql DB
            </text>
        </g><!--entity idp-->
        <g id="elem_idp">
            <rect fill="#F1F1F1" height="46.2969" rx="2.5" ry="2.5" style="stroke:#181818;stroke-width:0.5;" width="104"
                  x="429.5" y="443"/>
            <rect fill="#F1F1F1" height="10" style="stroke:#181818;stroke-width:0.5;" width="15" x="513.5" y="448"/>
            <rect fill="#F1F1F1" height="2" style="stroke:#181818;stroke-width:0.5;" width="4" x="511.5" y="450"/>
            <rect fill="#F1F1F1" height="2" style="stroke:#181818;stroke-width:0.5;" width="4" x="511.5" y="454"/>
            <text fill="#000000" font-family="sans-serif" font-size="14" lengthAdjust="spacing" textLength="64"
                  x="444.5" y="475.9951">Keycloak
            </text>
        </g><!--entity Interface internal systems-->
        <g id="elem_Interface internal systems">
            <ellipse cx="344.5" cy="254" fill="#F1F1F1" rx="8" ry="8" style="stroke:#181818;stroke-width:0.5;"/>
            <text fill="#000000" font-family="sans-serif" font-size="14" lengthAdjust="spacing" textLength="184"
                  x="252.5" y="283.9951">Interface internal systems
            </text>
        </g><!--entity EDC APIs-->
        <g id="elem_EDC APIs">
            <ellipse cx="482.5" cy="142" fill="#F1F1F1" rx="8" ry="8" style="stroke:#181818;stroke-width:0.5;"/>
            <text fill="#000000" font-family="sans-serif" font-size="14" lengthAdjust="spacing" textLength="63" x="451"
                  y="171.9951">EDC APIs
            </text>
        </g><!--link data_prov to Interface internal systems-->
        <g id="link_data_prov_Interface internal systems">
            <path d="M300.11,254 C311.9,254 313.69,254 325.48,254 " fill="none"
                  id="data_prov-to-Interface internal systems" style="stroke:#181818;stroke-width:1.0;"/>
            <path d="M332.4018,245.5428 A9,9 0 0 0 332.4018 262.4572" fill="none"
                  style="stroke:#181818;stroke-width:1.5;"/>
        </g><!--link edc to EDC APIs-->
        <g id="link_edc_EDC APIs">
            <path d="M482.5,53.26 C482.5,77.87 482.5,116.23 482.5,132.86 " fill="none" id="edc-EDC APIs"
                  style="stroke:#181818;stroke-width:1.0;"/>
        </g><!--reverse link EDC APIs to puris_backend-->
        <g id="link_EDC APIs_puris_backend">
            <path d="M482.5,161.27 C482.5,177.96 482.5,206.16 482.5,230.71 " fill="none"
                  id="EDC APIs-backto-puris_backend" style="stroke:#181818;stroke-width:1.0;"/>
            <path d="M474.0428,154.3482 A9,9 0 0 0 490.9572 154.3482" fill="none"
                  style="stroke:#181818;stroke-width:1.5;"/>
            <text fill="#000000" font-family="sans-serif" font-size="13" lengthAdjust="spacing" textLength="138"
                  x="502.7625" y="204.8764">provide and pull data
            </text>
            <text fill="#000000" font-family="sans-serif" font-size="13" lengthAdjust="spacing" textLength="148"
                  x="497.7625" y="220.0092">according to standards
            </text>
        </g><!--link Interface internal systems to puris_backend-->
        <g id="link_Interface internal systems_puris_backend">
            <path d="M353.66,254 C365.24,254 376.81,254 388.39,254 " fill="none"
                  id="Interface internal systems-puris_backend" style="stroke:#181818;stroke-width:1.0;"/>
        </g><!--reverse link puris_backend to puris_frontend-->
        <g id="link_puris_backend_puris_frontend">
            <path d="M482.2322,283.0597 C482.0622,300.6997 481.88,319.34 481.71,336.98 " fill="none"
                  id="puris_backend-backto-puris_frontend" style="stroke:#181818;stroke-width:1.0;"/>
            <polygon fill="#181818"
                     points="482.29,277.06,478.2035,286.021,482.2418,282.0598,486.2031,286.0981,482.29,277.06"
                     style="stroke:#181818;stroke-width:1.0;"/>
        </g><!--link puris_frontend to idp-->
        <g id="link_puris_frontend_idp">
            <path d="M481.5,383.06 C481.5,400.7 481.5,425.34 481.5,442.98 " fill="none" id="puris_frontend-idp"
                  style="stroke:#181818;stroke-width:1.0;"/>
        </g><!--link puris_backend to postgres-->
        <g id="link_puris_backend_postgres">
            <path d="M524.49,277.06 C558.09,294.7 599.668,316.5503 633.258,334.1903 " fill="none"
                  id="puris_backend-to-postgres" style="stroke:#181818;stroke-width:1.0;"/>
            <polygon fill="#181818"
                     points="638.57,336.98,632.4617,329.2542,634.1433,334.6553,628.7422,336.3369,638.57,336.98"
                     style="stroke:#181818;stroke-width:1.0;"/>
        </g><!--SRC=[VL5HQyCW67ptLnnv6Dk3_o04rgQ5q8U5PNlAHd5gWjIeKpSeO_zzcfQLPh2tp_Fkk_FiQnOPMcy_LL3MA3FY1a-UcJ1OFx6Oi5Um095eUvTefDzmhLoGoChECIwnjfEpHfeOqcYCvD7wMIK59trhGnoz3EyQzMg6tHaX_KuUkRRiCCDAE49-ZK1lKJGcIZza3vKdmpJ2CKGvXOAavQ0KnQPUuxvj4a9IcWCR9OgoFD6g2ktpOzCLNuG0_JnZ-z1rM2MgDEAKvyEhi7yx8GlUrjlaV4KSpb1UUN77NGwJaoiXmOn8RAtdubuCuznwaTkD5Y6cM-P5qYoT_timw1_wrHabfSk4M02vi5ppKaffTVaLyar-0000]-->
    </g>
</svg>
