<?xml version="1.0" encoding="windows-1252" standalone="no"?>
<svg xmlns="http://www.w3.org/2000/svg" contentStyleType="text/css" height="222px" preserveAspectRatio="none"
     style="width:972px;height:222px;background:#FFFFFF;" version="1.1" viewBox="0 0 972 222" width="972px"
     zoomAndPan="magnify"><defs/><g><!--cluster <<system>> PURIS FOSS Frontend--><g id="cluster_&lt;&lt;system&gt;&gt; PURIS FOSS Frontend"><path d="M133,6 L387,6 A3.75,3.75 0 0 1 389.5,8.5 L396.5,28.2969 L673,28.2969 A2.5,2.5 0 0 1 675.5,30.7969 L675.5,212.5 A2.5,2.5 0 0 1 673,215 L133,215 A2.5,2.5 0 0 1 130.5,212.5 L130.5,8.5 A2.5,2.5 0 0 1 133,6 " fill="none" style="stroke:#000000;stroke-width:1.5;"/><line style="stroke:#000000;stroke-width:1.5;" x1="130.5" x2="396.5" y1="28.2969" y2="28.2969"/><text fill="#000000" font-family="sans-serif" font-size="14" font-weight="bold" lengthAdjust="spacing" textLength="253" x="134.5" y="20.9951">«system» PURIS FOSS Frontend</text></g><!--entity stock_view--><g id="elem_stock_view"><rect fill="#F1F1F1" height="46.2969" rx="2.5" ry="2.5" style="stroke:#181818;stroke-width:0.5;" width="120" x="539.5" y="41"/><rect fill="#F1F1F1" height="10" style="stroke:#181818;stroke-width:0.5;" width="15" x="639.5" y="46"/><rect fill="#F1F1F1" height="2" style="stroke:#181818;stroke-width:0.5;" width="4" x="637.5" y="48"/><rect fill="#F1F1F1" height="2" style="stroke:#181818;stroke-width:0.5;" width="4" x="637.5" y="52"/><text fill="#000000" font-family="sans-serif" font-size="14" lengthAdjust="spacing" textLength="80" x="554.5" y="73.9951">Stock View</text></g><!--entity dashboard--><g id="elem_dashboard"><rect fill="#F1F1F1" height="46.2969" rx="2.5" ry="2.5" style="stroke:#181818;stroke-width:0.5;" width="117" x="387" y="41"/><rect fill="#F1F1F1" height="10" style="stroke:#181818;stroke-width:0.5;" width="15" x="484" y="46"/><rect fill="#F1F1F1" height="2" style="stroke:#181818;stroke-width:0.5;" width="4" x="482" y="48"/><rect fill="#F1F1F1" height="2" style="stroke:#181818;stroke-width:0.5;" width="4" x="482" y="52"/><text fill="#000000" font-family="sans-serif" font-size="14" lengthAdjust="spacing" textLength="77" x="402" y="73.9951">Dashboard</text></g><!--entity auth_service--><g id="elem_auth_service"><rect fill="#F1F1F1" height="46.2969" rx="2.5" ry="2.5" style="stroke:#181818;stroke-width:0.5;" width="205" x="147" y="41"/><rect fill="#F1F1F1" height="10" style="stroke:#181818;stroke-width:0.5;" width="15" x="332" y="46"/><rect fill="#F1F1F1" height="2" style="stroke:#181818;stroke-width:0.5;" width="4" x="330" y="48"/><rect fill="#F1F1F1" height="2" style="stroke:#181818;stroke-width:0.5;" width="4" x="330" y="52"/><text fill="#000000" font-family="sans-serif" font-size="14" lengthAdjust="spacing" textLength="165" x="162" y="73.9951">Authentication Service</text></g><!--entity access_service--><g id="elem_access_service"><rect fill="#F1F1F1" height="46.2969" rx="2.5" ry="2.5" style="stroke:#181818;stroke-width:0.5;" width="146" x="176.5" y="153"/><rect fill="#F1F1F1" height="10" style="stroke:#181818;stroke-width:0.5;" width="15" x="302.5" y="158"/><rect fill="#F1F1F1" height="2" style="stroke:#181818;stroke-width:0.5;" width="4" x="300.5" y="160"/><rect fill="#F1F1F1" height="2" style="stroke:#181818;stroke-width:0.5;" width="4" x="300.5" y="164"/><text fill="#000000" font-family="sans-serif" font-size="14" lengthAdjust="spacing" textLength="106" x="191.5" y="185.9951">Access Service</text></g><!--entity idp--><g id="elem_idp"><rect fill="#F1F1F1" height="46.2969" rx="2.5" ry="2.5" style="stroke:#181818;stroke-width:0.5;" width="105" x="7" y="41"/><rect fill="#F1F1F1" height="10" style="stroke:#181818;stroke-width:0.5;" width="15" x="92" y="46"/><rect fill="#F1F1F1" height="2" style="stroke:#181818;stroke-width:0.5;" width="4" x="90" y="48"/><rect fill="#F1F1F1" height="2" style="stroke:#181818;stroke-width:0.5;" width="4" x="90" y="52"/><text fill="#000000" font-family="sans-serif" font-size="14" lengthAdjust="spacing" textLength="65" x="22" y="73.9951">Keycloak</text></g><!--entity Stock Interface--><g id="elem_Stock Interface"><ellipse cx="755.5" cy="176" fill="#F1F1F1" rx="8" ry="8" style="stroke:#181818;stroke-width:0.5;"/><text fill="#000000" font-family="sans-serif" font-size="14" lengthAdjust="spacing" textLength="112" x="699.5" y="205.9951">Stock Interface</text></g><!--entity MAD interface--><g id="elem_MAD interface"><ellipse cx="913.5" cy="176" fill="#F1F1F1" rx="8" ry="8" style="stroke:#181818;stroke-width:0.5;"/><text fill="#000000" font-family="sans-serif" font-size="14" lengthAdjust="spacing" textLength="103" x="862" y="205.9951">MAD interface</text></g><!--reverse link auth_service to access_service--><g id="link_auth_service_access_service"><path d="M249.5,93.206 C249.5,112.428 249.5,133.6095 249.5,152.8233 " fill="none" id="auth_service-backto-access_service" style="stroke:#181818;stroke-width:1.0;"/><polygon fill="#181818" points="249.5,87.206,245.5,96.206,249.5,92.206,253.5,96.206,249.5,87.206" style="stroke:#181818;stroke-width:1.0;"/></g><!--link idp to auth_service--><g id="link_idp_auth_service"><path d="M112.173,64 C123.046,64 134.848,64 146.814,64 " fill="none" id="idp-auth_service" style="stroke:#181818;stroke-width:1.0;"/></g><!--link stock_view to Stock Interface--><g id="link_stock_view_Stock Interface"><path d="M659.814,72 C703.712,72 755.5,72 755.5,72 C755.5,72 755.5,135.318 755.5,160.7707 " fill="none" id="stock_view-to-Stock Interface" style="stroke:#181818;stroke-width:1.0;"/><polygon fill="#181818" points="755.5,166.7707,759.5,157.7707,755.5,161.7707,751.5,157.7707,755.5,166.7707" style="stroke:#181818;stroke-width:1.0;"/></g><!--link stock_view to MAD interface--><g id="link_stock_view_MAD interface"><path d="M659.538,57 C755.603,57 933.167,57 933.167,57 C933.167,57 933.167,166.3103 933.167,169.9137 " fill="none" id="stock_view-to-MAD interface" style="stroke:#181818;stroke-width:1.0;"/><polygon fill="#181818" points="933.167,175.9137,937.167,166.9137,933.167,170.9137,929.167,166.9137,933.167,175.9137" style="stroke:#181818;stroke-width:1.0;"/></g><!--link dashboard to Stock Interface--><g id="link_dashboard_Stock Interface"><path d="M465,87.206 C465,120.012 465,176 465,176 C465,176 691.454,176 740.487,176 " fill="none" id="dashboard-to-Stock Interface" style="stroke:#181818;stroke-width:1.0;"/><polygon fill="#181818" points="746.487,176,737.487,172,741.487,176,737.487,180,746.487,176" style="stroke:#181818;stroke-width:1.0;"/></g><!--link dashboard to MAD interface--><g id="link_dashboard_MAD interface"><path d="M426,87.092 C426,101.375 426,117 426,117 C426,117 893.833,117 893.833,117 C893.833,117 893.833,166.3701 893.833,169.8307 " fill="none" id="dashboard-to-MAD interface" style="stroke:#181818;stroke-width:1.0;"/><polygon fill="#181818" points="893.833,175.8307,897.833,166.8307,893.833,170.8307,889.833,166.8307,893.833,175.8307" style="stroke:#181818;stroke-width:1.0;"/></g><!--SRC=[TO_TYi8m44Rlvoc6tkSDIa4GGKHSjkYDY8pfk0tLf6IYKcJVVTE8FrNsPk2RSoRXayRObZmTyM0iXwvbT3xK3g0btT0FOvRdqadWOr7Wr_9xMk9aKSRXdGrig-mAWBWkWzCDhWnVDaY2qiVjESOUZadgdIDV9LRTKuz6fr2p3KPJCCvYoVviD2UF8jhARP5KhLbagAJLGuhMwn7cIdqelm3h6NVwuAX9RvYg1OW3rV17U7P0fGhCRXMdiRNVa-RiGvYFncYU61v5_xb_uyFpFm00]--></g></svg>
