<?xml version="1.0" encoding="windows-1252" standalone="no"?>
<svg xmlns="http://www.w3.org/2000/svg" contentStyleType="text/css" height="495px" preserveAspectRatio="none"
     style="width:762px;height:495px;background:#FFFFFF;" version="1.1" viewBox="0 0 762 495" width="762px"
     zoomAndPan="magnify"><defs/><g><!--cluster <<system>> PURIS--><g id="cluster_&lt;&lt;system&gt;&gt; PURIS"><path d="M374,196 L504,196 A3.75,3.75 0 0 1 506.5,198.5 L513.5,218.2969 L593,218.2969 A2.5,2.5 0 0 1 595.5,220.7969 L595.5,396.5 A2.5,2.5 0 0 1 593,399 L374,399 A2.5,2.5 0 0 1 371.5,396.5 L371.5,198.5 A2.5,2.5 0 0 1 374,196 " fill="none" style="stroke:#000000;stroke-width:1.5;"/><line style="stroke:#000000;stroke-width:1.5;" x1="371.5" x2="513.5" y1="218.2969" y2="218.2969"/><text fill="#000000" font-family="sans-serif" font-size="14" font-weight="bold" lengthAdjust="spacing" textLength="129" x="375.5" y="210.9951">«system» PURIS</text></g><!--entity puris_backend--><g id="elem_puris_backend"><rect fill="#F1F1F1" height="46.2969" rx="2.5" ry="2.5" style="stroke:#181818;stroke-width:0.5;" width="188" x="390.5" y="231"/><rect fill="#F1F1F1" height="10" style="stroke:#181818;stroke-width:0.5;" width="15" x="558.5" y="236"/><rect fill="#F1F1F1" height="2" style="stroke:#181818;stroke-width:0.5;" width="4" x="556.5" y="238"/><rect fill="#F1F1F1" height="2" style="stroke:#181818;stroke-width:0.5;" width="4" x="556.5" y="242"/><text fill="#000000" font-family="sans-serif" font-size="14" lengthAdjust="spacing" textLength="148" x="405.5" y="263.9951">PURIS FOSS Backend</text></g><!--entity puris_frontend--><g id="elem_puris_frontend"><rect fill="#F1F1F1" height="46.2969" rx="2.5" ry="2.5" style="stroke:#181818;stroke-width:0.5;" width="192" x="387.5" y="337"/><rect fill="#F1F1F1" height="10" style="stroke:#181818;stroke-width:0.5;" width="15" x="559.5" y="342"/><rect fill="#F1F1F1" height="2" style="stroke:#181818;stroke-width:0.5;" width="4" x="557.5" y="344"/><rect fill="#F1F1F1" height="2" style="stroke:#181818;stroke-width:0.5;" width="4" x="557.5" y="348"/><text fill="#000000" font-family="sans-serif" font-size="14" lengthAdjust="spacing" textLength="152" x="402.5" y="369.9951">PURIS FOSS Frontend</text></g><!--entity data_prov--><g id="elem_data_prov"><rect fill="#F1F1F1" height="46.2969" rx="2.5" ry="2.5" style="stroke:#181818;stroke-width:0.5;" width="295" x="7" y="231"/><rect fill="#F1F1F1" height="10" style="stroke:#181818;stroke-width:0.5;" width="15" x="282" y="236"/><rect fill="#F1F1F1" height="2" style="stroke:#181818;stroke-width:0.5;" width="4" x="280" y="238"/><rect fill="#F1F1F1" height="2" style="stroke:#181818;stroke-width:0.5;" width="4" x="280" y="242"/><text fill="#000000" font-family="sans-serif" font-size="14" lengthAdjust="spacing" textLength="255" x="22" y="263.9951">Data Provisioning &amp; Transformation</text></g><!--entity edc--><g id="elem_edc"><rect fill="#F1F1F1" height="46.2969" rx="2.5" ry="2.5" style="stroke:#181818;stroke-width:0.5;" width="350" x="309.5" y="7"/><rect fill="#F1F1F1" height="10" style="stroke:#181818;stroke-width:0.5;" width="15" x="639.5" y="12"/><rect fill="#F1F1F1" height="2" style="stroke:#181818;stroke-width:0.5;" width="4" x="637.5" y="14"/><rect fill="#F1F1F1" height="2" style="stroke:#181818;stroke-width:0.5;" width="4" x="637.5" y="18"/><text fill="#000000" font-family="sans-serif" font-size="14" lengthAdjust="spacing" textLength="310" x="324.5" y="39.9951">Eclipse DataSpace Components Connector</text></g><!--entity postgres--><g id="elem_postgres"><rect fill="#F1F1F1" height="46.2969" rx="2.5" ry="2.5" style="stroke:#181818;stroke-width:0.5;" width="141" x="615" y="337"/><rect fill="#F1F1F1" height="10" style="stroke:#181818;stroke-width:0.5;" width="15" x="736" y="342"/><rect fill="#F1F1F1" height="2" style="stroke:#181818;stroke-width:0.5;" width="4" x="734" y="344"/><rect fill="#F1F1F1" height="2" style="stroke:#181818;stroke-width:0.5;" width="4" x="734" y="348"/><text fill="#000000" font-family="sans-serif" font-size="14" lengthAdjust="spacing" textLength="101" x="630" y="369.9951">Postgresql DB</text></g><!--entity idp--><g id="elem_idp"><rect fill="#F1F1F1" height="46.2969" rx="2.5" ry="2.5" style="stroke:#181818;stroke-width:0.5;" width="105" x="431" y="443"/><rect fill="#F1F1F1" height="10" style="stroke:#181818;stroke-width:0.5;" width="15" x="516" y="448"/><rect fill="#F1F1F1" height="2" style="stroke:#181818;stroke-width:0.5;" width="4" x="514" y="450"/><rect fill="#F1F1F1" height="2" style="stroke:#181818;stroke-width:0.5;" width="4" x="514" y="454"/><text fill="#000000" font-family="sans-serif" font-size="14" lengthAdjust="spacing" textLength="65" x="446" y="475.9951">Keycloak</text></g><!--entity Interface internal systems--><g id="elem_Interface internal systems"><ellipse cx="346.5" cy="254" fill="#F1F1F1" rx="8" ry="8" style="stroke:#181818;stroke-width:0.5;"/><text fill="#000000" font-family="sans-serif" font-size="14" lengthAdjust="spacing" textLength="189" x="252" y="283.9951">Interface internal systems</text></g><!--entity EDC APIs--><g id="elem_EDC APIs"><ellipse cx="484.5" cy="142" fill="#F1F1F1" rx="8" ry="8" style="stroke:#181818;stroke-width:0.5;"/><text fill="#000000" font-family="sans-serif" font-size="14" lengthAdjust="spacing" textLength="64" x="452.5" y="171.9951">EDC APIs</text></g><!--link data_prov to Interface internal systems--><g id="link_data_prov_Interface internal systems"><path d="M302.25,254 C313.889,254 315.527,254 327.166,254 " fill="none" id="data_prov-to-Interface internal systems" style="stroke:#181818;stroke-width:1.0;"/><path d="M334.0878,245.5428 A9,9 0 0 0 334.0878 262.4572" fill="none" style="stroke:#181818;stroke-width:1.5;"/></g><!--link edc to EDC APIs--><g id="link_edc_EDC APIs"><path d="M484.5,53.26 C484.5,77.869 484.5,116.227 484.5,132.856 " fill="none" id="edc-EDC APIs" style="stroke:#181818;stroke-width:1.0;"/></g><!--reverse link EDC APIs to puris_backend--><g id="link_EDC APIs_puris_backend"><path d="M484.5,161.268 C484.5,177.956 484.5,206.164 484.5,230.713 " fill="none" id="EDC APIs-backto-puris_backend" style="stroke:#181818;stroke-width:1.0;"/><path d="M476.0428,154.3462 A9,9 0 0 0 492.9572 154.3462" fill="none" style="stroke:#181818;stroke-width:1.5;"/><text fill="#000000" font-family="sans-serif" font-size="13" lengthAdjust="spacing" textLength="135" x="505.6594" y="204.88">provide and pull data</text><text fill="#000000" font-family="sans-serif" font-size="13" lengthAdjust="spacing" textLength="147" x="499.6594" y="220.0128">according to standards</text></g><!--link Interface internal systems to puris_backend--><g id="link_Interface internal systems_puris_backend"><path d="M355.664,254 C367.239,254 378.814,254 390.389,254 " fill="none" id="Interface internal systems-puris_backend" style="stroke:#181818;stroke-width:1.0;"/></g><!--reverse link puris_backend to puris_frontend--><g id="link_puris_backend_puris_frontend"><path d="M484.2302,283.0557 C484.0602,300.7047 483.881,319.335 483.712,336.976 " fill="none" id="puris_backend-backto-puris_frontend" style="stroke:#181818;stroke-width:1.0;"/><polygon fill="#181818" points="484.288,277.056,480.2015,286.0171,484.2398,282.0558,488.2011,286.0941,484.288,277.056" style="stroke:#181818;stroke-width:1.0;"/></g><!--link puris_frontend to idp--><g id="link_puris_frontend_idp"><path d="M483.5,383.056 C483.5,400.7049 483.5,425.3353 483.5,442.9761 " fill="none" id="puris_frontend-idp" style="stroke:#181818;stroke-width:1.0;"/></g><!--link puris_backend to postgres--><g id="link_puris_backend_postgres"><path d="M527.127,277.056 C561.237,294.705 603.5111,316.5778 637.6061,334.2188 " fill="none" id="puris_backend-to-postgres" style="stroke:#181818;stroke-width:1.0;"/><polygon fill="#181818" points="642.935,336.976,636.7797,329.2875,638.4942,334.6783,633.1034,336.3928,642.935,336.976" style="stroke:#181818;stroke-width:1.0;"/></g><!--SRC=[VL5HQyCW67ptLnnv6Dk3_o04rgQ5q8U5PNlAHd5gWjIeKpSeO_zzcfQLPh2tp_Fkk_FiQnOPMcy_LL3MA3FY1a-UcJ1OFx6Oi5Um095eUvTefDzmhLoGoChECIwnjfEpHfeOqcYCvD7wMIK59trhGnoz3EyQzMg6tHaX_KuUkRRiCCDAE49-ZK1lKJGcIZza3vKdmpJ2CKGvXOAavQ0KnQPUuxvj4a9IcWCR9OgoFD6g2ktpOzCLNuG0_JnZ-z1rM2MgDEAKvyEhi7yx8GlUrjlaV4KSpb1UUN77NGwJaoiXmOn8RAtdubuCuznwaTkD5Y6cM-P5qYoT_timw1_wrHabfSk4M02vi5ppKaffTVaLylq3]--></g></svg>
