<?xml version="1.0" encoding="us-ascii" standalone="no"?><svg xmlns="http://www.w3.org/2000/svg" xmlns:xlink="http://www.w3.org/1999/xlink" contentStyleType="text/css" height="214px" preserveAspectRatio="none" style="width:312px;height:214px;background:#FFFFFF;" version="1.1" viewBox="0 0 312 214" width="312px" zoomAndPan="magnify"><defs/><g><!--cluster <<system>> PURIS FOSS Frontend--><g id="cluster_&lt;&lt;system&gt;&gt; PURIS FOSS Frontend"><path d="M8.5,6 L257.5,6 A3.75,3.75 0 0 1 260,8.5 L267,28.2969 L302.5,28.2969 A2.5,2.5 0 0 1 305,30.7969 L305,100.5 A2.5,2.5 0 0 1 302.5,103 L8.5,103 A2.5,2.5 0 0 1 6,100.5 L6,8.5 A2.5,2.5 0 0 1 8.5,6 " fill="none" style="stroke:#000000;stroke-width:1.5;"/><line style="stroke:#000000;stroke-width:1.5;" x1="6" x2="267" y1="28.2969" y2="28.2969"/><text fill="#000000" font-family="sans-serif" font-size="14" font-weight="bold" lengthAdjust="spacing" textLength="248" x="10" y="20.9951">&#171;system&#187; PURIS FOSS Frontend</text></g><!--entity stock_view--><g id="elem_stock_view"><rect fill="#F1F1F1" height="46.2969" rx="2.5" ry="2.5" style="stroke:#181818;stroke-width:0.5;" width="115" x="173.5" y="41"/><rect fill="#F1F1F1" height="10" style="stroke:#181818;stroke-width:0.5;" width="15" x="268.5" y="46"/><rect fill="#F1F1F1" height="2" style="stroke:#181818;stroke-width:0.5;" width="4" x="266.5" y="48"/><rect fill="#F1F1F1" height="2" style="stroke:#181818;stroke-width:0.5;" width="4" x="266.5" y="52"/><text fill="#000000" font-family="sans-serif" font-size="14" lengthAdjust="spacing" textLength="75" x="188.5" y="73.9951">Stock View</text></g><!--entity dashboard--><g id="elem_dashboard"><rect fill="#F1F1F1" height="46.2969" rx="2.5" ry="2.5" style="stroke:#181818;stroke-width:0.5;" width="116" x="22" y="41"/><rect fill="#F1F1F1" height="10" style="stroke:#181818;stroke-width:0.5;" width="15" x="118" y="46"/><rect fill="#F1F1F1" height="2" style="stroke:#181818;stroke-width:0.5;" width="4" x="116" y="48"/><rect fill="#F1F1F1" height="2" style="stroke:#181818;stroke-width:0.5;" width="4" x="116" y="52"/><text fill="#000000" font-family="sans-serif" font-size="14" lengthAdjust="spacing" textLength="76" x="37" y="73.9951">Dashboard</text></g><!--entity Stock Interface--><g id="elem_Stock Interface"><ellipse cx="80" cy="176" fill="#F1F1F1" rx="8" ry="8" style="stroke:#181818;stroke-width:0.5;"/><text fill="#000000" font-family="sans-serif" font-size="14" lengthAdjust="spacing" textLength="103" x="28.5" y="205.9951">Stock Interface</text></g><!--entity MAD interface--><g id="elem_MAD interface"><ellipse cx="230" cy="176" fill="#F1F1F1" rx="8" ry="8" style="stroke:#181818;stroke-width:0.5;"/><text fill="#000000" font-family="sans-serif" font-size="14" lengthAdjust="spacing" textLength="96" x="182" y="205.9951">MAD interface</text></g><!--link stock_view to Stock Interface--><g id="link_stock_view_Stock Interface"><path d="M173.35,57 C160.45,57 150.5,57 150.5,57 C150.5,57 150.5,167 150.5,167 C150.5,167 85.05,167 85.05,167 " fill="none" id="stock_view-to-Stock Interface" style="stroke:#181818;stroke-width:1.0;"/><polygon fill="#181818" points="80.05,167,89.05,171,85.05,167,89.05,163,80.05,167" style="stroke:#181818;stroke-width:1.0;"/></g><!--link stock_view to MAD interface--><g id="link_stock_view_MAD interface"><path d="M230,87.21 C230,87.21 230,161.74 230,161.74 " fill="none" id="stock_view-to-MAD interface" style="stroke:#181818;stroke-width:1.0;"/><polygon fill="#181818" points="230,166.74,234,157.74,230,161.74,226,157.74,230,166.74" style="stroke:#181818;stroke-width:1.0;"/></g><!--link dashboard to Stock Interface--><g id="link_dashboard_Stock Interface"><path d="M80,87.21 C80,87.21 80,161.74 80,161.74 " fill="none" id="dashboard-to-Stock Interface" style="stroke:#181818;stroke-width:1.0;"/><polygon fill="#181818" points="80,166.74,84,157.74,80,161.74,76,157.74,80,166.74" style="stroke:#181818;stroke-width:1.0;"/></g><!--link dashboard to MAD interface--><g id="link_dashboard_MAD interface"><path d="M138.28,72 C151.64,72 162,72 162,72 C162,72 162,186 162,186 C162,186 224.95,186 224.95,186 " fill="none" id="dashboard-to-MAD interface" style="stroke:#181818;stroke-width:1.0;"/><polygon fill="#181818" points="229.95,186,220.95,182,224.95,186,220.95,190,229.95,186" style="stroke:#181818;stroke-width:1.0;"/></g><!--SRC=[TOp12e9054Ntxoiki_SFH0WaS155Kfk8UEah1tD6PeP2edzFYnACDXSEvzxhQsrQTjpWees4hXLO5ofBr79HyrcWujXtFaYJ95XjrbcE-JBlmraJn9JgJWJiyc2B6bijjptOmmzukFOuo9HzTRJiofShFqJqeB68A4gWtZzPV-rEN8ZwAIncAVIewVlsPp_na_aJ]--></g></svg>