<?xml version="1.0" encoding="us-ascii" standalone="no"?><svg xmlns="http://www.w3.org/2000/svg" xmlns:xlink="http://www.w3.org/1999/xlink" contentStyleType="text/css" height="443px" preserveAspectRatio="none" style="width:1350px;height:443px;background:#FFFFFF;" version="1.1" viewBox="0 0 1350 443" width="1350px" zoomAndPan="magnify"><defs/><g><!--cluster Customer--><g id="cluster_Customer"><path d="M72,6 L150,6 A3.75,3.75 0 0 1 152.5,8.5 L159.5,28.2969 L630,28.2969 A2.5,2.5 0 0 1 632.5,30.7969 L632.5,206.5 A2.5,2.5 0 0 1 630,209 L72,209 A2.5,2.5 0 0 1 69.5,206.5 L69.5,8.5 A2.5,2.5 0 0 1 72,6 " fill="none" style="stroke:#000000;stroke-width:1.5;"/><line style="stroke:#000000;stroke-width:1.5;" x1="69.5" x2="159.5" y1="28.2969" y2="28.2969"/><text fill="#000000" font-family="sans-serif" font-size="14" font-weight="bold" lengthAdjust="spacing" textLength="77" x="73.5" y="20.9951">Customer</text></g><!--cluster CX--><g id="cluster_CX"><path d="M659,112 L681,112 A3.75,3.75 0 0 1 683.5,114.5 L690.5,134.2969 L1025,134.2969 A2.5,2.5 0 0 1 1027.5,136.7969 L1027.5,206.5 A2.5,2.5 0 0 1 1025,209 L659,209 A2.5,2.5 0 0 1 656.5,206.5 L656.5,114.5 A2.5,2.5 0 0 1 659,112 " fill="none" style="stroke:#000000;stroke-width:1.5;"/><line style="stroke:#000000;stroke-width:1.5;" x1="656.5" x2="690.5" y1="134.2969" y2="134.2969"/><text fill="#000000" font-family="sans-serif" font-size="14" font-weight="bold" lengthAdjust="spacing" textLength="21" x="660.5" y="126.9951">CX</text></g><!--cluster Supplier--><g id="cluster_Supplier"><path d="M731,233 L797,233 A3.75,3.75 0 0 1 799.5,235.5 L806.5,255.2969 L1277,255.2969 A2.5,2.5 0 0 1 1279.5,257.7969 L1279.5,433.5 A2.5,2.5 0 0 1 1277,436 L731,436 A2.5,2.5 0 0 1 728.5,433.5 L728.5,235.5 A2.5,2.5 0 0 1 731,233 " fill="none" style="stroke:#000000;stroke-width:1.5;"/><line style="stroke:#000000;stroke-width:1.5;" x1="728.5" x2="806.5" y1="255.2969" y2="255.2969"/><text fill="#000000" font-family="sans-serif" font-size="14" font-weight="bold" lengthAdjust="spacing" textLength="65" x="732.5" y="247.9951">Supplier</text></g><!--entity edc_cus--><g id="elem_edc_cus"><rect fill="#F1F1F1" height="46.2969" rx="2.5" ry="2.5" style="stroke:#181818;stroke-width:0.5;" width="255" x="361" y="41"/><rect fill="#F1F1F1" height="10" style="stroke:#181818;stroke-width:0.5;" width="15" x="596" y="46"/><rect fill="#F1F1F1" height="2" style="stroke:#181818;stroke-width:0.5;" width="4" x="594" y="48"/><rect fill="#F1F1F1" height="2" style="stroke:#181818;stroke-width:0.5;" width="4" x="594" y="52"/><text fill="#000000" font-family="sans-serif" font-size="14" lengthAdjust="spacing" textLength="215" x="376" y="73.9951">Tractus-X Connector Customer</text></g><!--entity puris_backend_cus--><g id="elem_puris_backend_cus"><rect fill="#F1F1F1" height="46.2969" rx="2.5" ry="2.5" style="stroke:#181818;stroke-width:0.5;" width="187" x="139" y="41"/><rect fill="#F1F1F1" height="10" style="stroke:#181818;stroke-width:0.5;" width="15" x="306" y="46"/><rect fill="#F1F1F1" height="2" style="stroke:#181818;stroke-width:0.5;" width="4" x="304" y="48"/><rect fill="#F1F1F1" height="2" style="stroke:#181818;stroke-width:0.5;" width="4" x="304" y="52"/><text fill="#000000" font-family="sans-serif" font-size="14" lengthAdjust="spacing" textLength="147" x="154" y="73.9951">PURIS FOSS Backend</text></g><!--entity puris_frontend_cus--><g id="elem_puris_frontend_cus"><rect fill="#F1F1F1" height="46.2969" rx="2.5" ry="2.5" style="stroke:#181818;stroke-width:0.5;" width="189" x="138" y="147"/><rect fill="#F1F1F1" height="10" style="stroke:#181818;stroke-width:0.5;" width="15" x="307" y="152"/><rect fill="#F1F1F1" height="2" style="stroke:#181818;stroke-width:0.5;" width="4" x="305" y="154"/><rect fill="#F1F1F1" height="2" style="stroke:#181818;stroke-width:0.5;" width="4" x="305" y="158"/><text fill="#000000" font-family="sans-serif" font-size="14" lengthAdjust="spacing" textLength="149" x="153" y="179.9951">PURIS FOSS Frontend</text></g><!--entity Interface internal systems\n(Customer)--><g id="elem_Interface internal systems\n(Customer)"><ellipse cx="94.5" cy="64" fill="#F1F1F1" rx="8" ry="8" style="stroke:#181818;stroke-width:0.5;"/><text fill="#000000" font-family="sans-serif" font-size="14" lengthAdjust="spacing" textLength="177" x="6" y="93.9951">Interface internal systems</text><text fill="#000000" font-family="sans-serif" font-size="14" lengthAdjust="spacing" textLength="78" x="6" y="110.292">(Customer)</text></g><!--entity keycloak--><g id="elem_keycloak"><rect fill="#F1F1F1" height="46.2969" rx="2.5" ry="2.5" style="stroke:#181818;stroke-width:0.5;" width="101" x="910" y="147"/><rect fill="#F1F1F1" height="10" style="stroke:#181818;stroke-width:0.5;" width="15" x="991" y="152"/><rect fill="#F1F1F1" height="2" style="stroke:#181818;stroke-width:0.5;" width="4" x="989" y="154"/><rect fill="#F1F1F1" height="2" style="stroke:#181818;stroke-width:0.5;" width="4" x="989" y="158"/><text fill="#000000" font-family="sans-serif" font-size="14" lengthAdjust="spacing" textLength="61" x="925" y="179.9951">Keycloak</text></g><!--entity miw--><g id="elem_miw"><rect fill="#F1F1F1" height="46.2969" rx="2.5" ry="2.5" style="stroke:#181818;stroke-width:0.5;" width="203" x="672" y="147"/><rect fill="#F1F1F1" height="10" style="stroke:#181818;stroke-width:0.5;" width="15" x="855" y="152"/><rect fill="#F1F1F1" height="2" style="stroke:#181818;stroke-width:0.5;" width="4" x="853" y="154"/><rect fill="#F1F1F1" height="2" style="stroke:#181818;stroke-width:0.5;" width="4" x="853" y="158"/><text fill="#000000" font-family="sans-serif" font-size="14" lengthAdjust="spacing" textLength="163" x="687" y="179.9951">Managed Identity Wallet</text></g><!--entity edc_sup--><g id="elem_edc_sup"><rect fill="#F1F1F1" height="46.2969" rx="2.5" ry="2.5" style="stroke:#181818;stroke-width:0.5;" width="243" x="745" y="268"/><rect fill="#F1F1F1" height="10" style="stroke:#181818;stroke-width:0.5;" width="15" x="968" y="273"/><rect fill="#F1F1F1" height="2" style="stroke:#181818;stroke-width:0.5;" width="4" x="966" y="275"/><rect fill="#F1F1F1" height="2" style="stroke:#181818;stroke-width:0.5;" width="4" x="966" y="279"/><text fill="#000000" font-family="sans-serif" font-size="14" lengthAdjust="spacing" textLength="203" x="760" y="300.9951">Tractus-X Connector Supplier</text></g><!--entity puris_backend_sup--><g id="elem_puris_backend_sup"><rect fill="#F1F1F1" height="46.2969" rx="2.5" ry="2.5" style="stroke:#181818;stroke-width:0.5;" width="187" x="1023" y="268"/><rect fill="#F1F1F1" height="10" style="stroke:#181818;stroke-width:0.5;" width="15" x="1190" y="273"/><rect fill="#F1F1F1" height="2" style="stroke:#181818;stroke-width:0.5;" width="4" x="1188" y="275"/><rect fill="#F1F1F1" height="2" style="stroke:#181818;stroke-width:0.5;" width="4" x="1188" y="279"/><text fill="#000000" font-family="sans-serif" font-size="14" lengthAdjust="spacing" textLength="147" x="1038" y="300.9951">PURIS FOSS Backend</text></g><!--entity puris_frontend_sup--><g id="elem_puris_frontend_sup"><rect fill="#F1F1F1" height="46.2969" rx="2.5" ry="2.5" style="stroke:#181818;stroke-width:0.5;" width="189" x="1022" y="374"/><rect fill="#F1F1F1" height="10" style="stroke:#181818;stroke-width:0.5;" width="15" x="1191" y="379"/><rect fill="#F1F1F1" height="2" style="stroke:#181818;stroke-width:0.5;" width="4" x="1189" y="381"/><rect fill="#F1F1F1" height="2" style="stroke:#181818;stroke-width:0.5;" width="4" x="1189" y="385"/><text fill="#000000" font-family="sans-serif" font-size="14" lengthAdjust="spacing" textLength="149" x="1037" y="406.9951">PURIS FOSS Frontend</text></g><!--entity Interface internal systems\n(Supplier)--><g id="elem_Interface internal systems\n(Supplier)"><ellipse cx="1254.5" cy="291" fill="#F1F1F1" rx="8" ry="8" style="stroke:#181818;stroke-width:0.5;"/><text fill="#000000" font-family="sans-serif" font-size="14" lengthAdjust="spacing" textLength="177" x="1166" y="320.9951">Interface internal systems</text><text fill="#000000" font-family="sans-serif" font-size="14" lengthAdjust="spacing" textLength="66" x="1166" y="337.292">(Supplier)</text></g><!--link puris_backend_cus to edc_cus--><g id="link_puris_backend_cus_edc_cus"><path d="M326,64 C337.64,64 349.27,64 360.91,64 " fill="none" id="puris_backend_cus-edc_cus" style="stroke:#181818;stroke-width:1.0;"/></g><!--link Interface internal systems\n(Customer) to puris_backend_cus--><g id="link_Interface internal systems\n(Customer)_puris_backend_cus"><path d="M103.66,64 C115.41,64 127.15,64 138.89,64 " fill="none" id="Interface internal systems\n(Customer)-puris_backend_cus" style="stroke:#181818;stroke-width:1.0;"/></g><!--link puris_backend_cus to puris_frontend_cus--><g id="link_puris_backend_cus_puris_frontend_cus"><path d="M232.5,87.06 C232.5,104.7 232.5,129.34 232.5,146.98 " fill="none" id="puris_backend_cus-puris_frontend_cus" style="stroke:#181818;stroke-width:1.0;"/></g><!--link edc_sup to puris_backend_sup--><g id="link_edc_sup_puris_backend_sup"><path d="M988.08,291 C999.7,291 1011.32,291 1022.95,291 " fill="none" id="edc_sup-puris_backend_sup" style="stroke:#181818;stroke-width:1.0;"/></g><!--link puris_backend_sup to Interface internal systems\n(Supplier)--><g id="link_puris_backend_sup_Interface internal systems\n(Supplier)"><path d="M1210.03,291 C1221.84,291 1233.65,291 1245.47,291 " fill="none" id="puris_backend_sup-Interface internal systems\n(Supplier)" style="stroke:#181818;stroke-width:1.0;"/></g><!--link puris_backend_sup to puris_frontend_sup--><g id="link_puris_backend_sup_puris_frontend_sup"><path d="M1116.5,314.06 C1116.5,331.7 1116.5,356.34 1116.5,373.98 " fill="none" id="puris_backend_sup-puris_frontend_sup" style="stroke:#181818;stroke-width:1.0;"/></g><!--link edc_cus to keycloak--><g id="link_edc_cus_keycloak"><path d="M616.22,68.29 C715.74,72.51 844.77,82.14 892.5,104 C913.29,113.52 931.68,132.07 944.07,146.92 " fill="none" id="edc_cus-keycloak" style="stroke:#181818;stroke-width:1.0;"/></g><!--link edc_cus to miw--><g id="link_edc_cus_miw"><path d="M579.1,87.05 C596.97,92.09 615.46,97.81 632.5,104 C666.2,116.23 702.94,133.3 730.47,146.88 " fill="none" id="edc_cus-miw" style="stroke:#181818;stroke-width:1.0;"/></g><!--link keycloak to edc_sup--><g id="link_keycloak_edc_sup"><path d="M943.04,193.1 C926.26,214.34 901.04,246.28 884.19,267.61 " fill="none" id="keycloak-edc_sup" style="stroke:#181818;stroke-width:1.0;"/></g><!--link miw to edc_sup--><g id="link_miw_edc_sup"><path d="M790.77,193.1 C807.37,214.34 832.33,246.28 849,267.61 " fill="none" id="miw-edc_sup" style="stroke:#181818;stroke-width:1.0;"/></g><!--SRC=[ZP7VIiCm58Vl-nI7NBcBleI3GH5HhE90PSJqJ4BJ9EGFKiHtDqsJkj4mTfUSy-MNao-Qifv-8P2jjquDQCXFLG6yFHlAdBVr7hPAIcHE6SZ81r0BsB43ypR2ZozFJGkxXxQ5sv27iek8zeRRm-TSYV0vkpDAkdFuc4evUXK1zN8p06a2R8wK8V1f9Qa0Erg7WtsNDtdS3Gc7IhCKmklY7BzLfHTFUmApeZiScL2qZ-FtQJCrxgaCQ0TDXz9nDy8h5G9Tv0R-7VF-0rkljU0NnMTa4M-zlbxy15ylFaMdMrRcvh1LBN2NFoC_OKFAn-lY745K-ks9M1oVrABFt9WAMKzed6x_0000]--></g></svg>