<?xml version="1.0" encoding="us-ascii" standalone="no"?>
<svg xmlns="http://www.w3.org/2000/svg" contentStyleType="text/css" height="443px" preserveAspectRatio="none"
     style="width:648px;height:443px;background:#FFFFFF;" version="1.1" viewBox="0 0 648 443" width="648px"
     zoomAndPan="magnify"><defs/><g><!--cluster PURIS--><g id="cluster_PURIS"><path d="M75.5,6 L123.5,6 A3.75,3.75 0 0 1 126,8.5 L133,28.2969 L638.5,28.2969 A2.5,2.5 0 0 1 641,30.7969 L641,312.5 A2.5,2.5 0 0 1 638.5,315 L75.5,315 A2.5,2.5 0 0 1 73,312.5 L73,8.5 A2.5,2.5 0 0 1 75.5,6 " fill="none" style="stroke:#000000;stroke-width:1.5;"/><line style="stroke:#000000;stroke-width:1.5;" x1="73" x2="133" y1="28.2969" y2="28.2969"/><text fill="#000000" font-family="sans-serif" font-size="14" font-weight="bold" lengthAdjust="spacing" textLength="47" x="77" y="20.9951">PURIS</text></g><!--cluster CX--><g id="cluster_CX"><path d="M236.5,339 L258.5,339 A3.75,3.75 0 0 1 261,341.5 L268,361.2969 L614.5,361.2969 A2.5,2.5 0 0 1 617,363.7969 L617,433.5 A2.5,2.5 0 0 1 614.5,436 L236.5,436 A2.5,2.5 0 0 1 234,433.5 L234,341.5 A2.5,2.5 0 0 1 236.5,339 " fill="none" style="stroke:#000000;stroke-width:1.5;"/><line style="stroke:#000000;stroke-width:1.5;" x1="234" x2="268" y1="361.2969" y2="361.2969"/><text fill="#000000" font-family="sans-serif" font-size="14" font-weight="bold" lengthAdjust="spacing" textLength="21" x="238" y="353.9951">CX</text></g><!--entity edc--><g id="elem_edc"><rect fill="#F1F1F1" height="46.2969" rx="2.5" ry="2.5" style="stroke:#181818;stroke-width:0.5;" width="259" x="365.5" y="147"/><rect fill="#F1F1F1" height="10" style="stroke:#181818;stroke-width:0.5;" width="15" x="604.5" y="152"/><rect fill="#F1F1F1" height="2" style="stroke:#181818;stroke-width:0.5;" width="4" x="602.5" y="154"/><rect fill="#F1F1F1" height="2" style="stroke:#181818;stroke-width:0.5;" width="4" x="602.5" y="158"/><text fill="#000000" font-family="sans-serif" font-size="14" lengthAdjust="spacing" textLength="219" x="380.5" y="179.9951">Tractus-X Connector Customer</text></g><!--entity postgres--><g id="elem_postgres"><rect fill="#F1F1F1" height="46.2969" rx="2.5" ry="2.5" style="stroke:#181818;stroke-width:0.5;" width="138" x="167" y="41"/><rect fill="#F1F1F1" height="10" style="stroke:#181818;stroke-width:0.5;" width="15" x="285" y="46"/><rect fill="#F1F1F1" height="2" style="stroke:#181818;stroke-width:0.5;" width="4" x="283" y="48"/><rect fill="#F1F1F1" height="2" style="stroke:#181818;stroke-width:0.5;" width="4" x="283" y="52"/><text fill="#000000" font-family="sans-serif" font-size="14" lengthAdjust="spacing" textLength="98" x="182" y="73.9951">Postgresql DB</text></g><!--entity puris_backend--><g id="elem_puris_backend"><rect fill="#F1F1F1" height="46.2969" rx="2.5" ry="2.5" style="stroke:#181818;stroke-width:0.5;" width="188" x="142" y="147"/><rect fill="#F1F1F1" height="10" style="stroke:#181818;stroke-width:0.5;" width="15" x="310" y="152"/><rect fill="#F1F1F1" height="2" style="stroke:#181818;stroke-width:0.5;" width="4" x="308" y="154"/><rect fill="#F1F1F1" height="2" style="stroke:#181818;stroke-width:0.5;" width="4" x="308" y="158"/><text fill="#000000" font-family="sans-serif" font-size="14" lengthAdjust="spacing" textLength="148" x="157" y="179.9951">PURIS FOSS Backend</text></g><!--entity puris_frontend--><g id="elem_puris_frontend"><rect fill="#F1F1F1" height="46.2969" rx="2.5" ry="2.5" style="stroke:#181818;stroke-width:0.5;" width="190" x="151" y="253"/><rect fill="#F1F1F1" height="10" style="stroke:#181818;stroke-width:0.5;" width="15" x="321" y="258"/><rect fill="#F1F1F1" height="2" style="stroke:#181818;stroke-width:0.5;" width="4" x="319" y="260"/><rect fill="#F1F1F1" height="2" style="stroke:#181818;stroke-width:0.5;" width="4" x="319" y="264"/><text fill="#000000" font-family="sans-serif" font-size="14" lengthAdjust="spacing" textLength="150" x="166" y="285.9951">PURIS FOSS Frontend</text></g><!--entity Interface internal systems\n--><g id="elem_Interface internal systems\n"><ellipse cx="98" cy="170" fill="#F1F1F1" rx="8" ry="8" style="stroke:#181818;stroke-width:0.5;"/><text fill="#000000" font-family="sans-serif" font-size="14" lengthAdjust="spacing" textLength="184" x="6" y="199.9951">Interface internal systems</text><text fill="#000000" font-family="sans-serif" font-size="14" lengthAdjust="spacing" textLength="4" x="6" y="216.292">&#160;</text></g><!--entity keycloak--><g id="elem_keycloak"><rect fill="#F1F1F1" height="46.2969" rx="2.5" ry="2.5" style="stroke:#181818;stroke-width:0.5;" width="104" x="250" y="374"/><rect fill="#F1F1F1" height="10" style="stroke:#181818;stroke-width:0.5;" width="15" x="334" y="379"/><rect fill="#F1F1F1" height="2" style="stroke:#181818;stroke-width:0.5;" width="4" x="332" y="381"/><rect fill="#F1F1F1" height="2" style="stroke:#181818;stroke-width:0.5;" width="4" x="332" y="385"/><text fill="#000000" font-family="sans-serif" font-size="14" lengthAdjust="spacing" textLength="64" x="265" y="406.9951">Keycloak</text></g><!--entity miw--><g id="elem_miw"><rect fill="#F1F1F1" height="46.2969" rx="2.5" ry="2.5" style="stroke:#181818;stroke-width:0.5;" width="212" x="389" y="374"/><rect fill="#F1F1F1" height="10" style="stroke:#181818;stroke-width:0.5;" width="15" x="581" y="379"/><rect fill="#F1F1F1" height="2" style="stroke:#181818;stroke-width:0.5;" width="4" x="579" y="381"/><rect fill="#F1F1F1" height="2" style="stroke:#181818;stroke-width:0.5;" width="4" x="579" y="385"/><text fill="#000000" font-family="sans-serif" font-size="14" lengthAdjust="spacing" textLength="172" x="404" y="406.9951">Managed Identity Wallet</text></g><!--link puris_backend to edc--><g id="link_puris_backend_edc"><path d="M330.09,170 C341.79,170 353.5,170 365.2,170 " fill="none" id="puris_backend-edc" style="stroke:#181818;stroke-width:1.0;"/></g><!--link postgres to puris_backend--><g id="link_postgres_puris_backend"><path d="M236,87.06 C236,104.7 236,129.34 236,146.98 " fill="none" id="postgres-puris_backend" style="stroke:#181818;stroke-width:1.0;"/></g><!--link Interface internal systems\n to puris_backend--><g id="link_Interface internal systems\n_puris_backend"><path d="M107.16,170 C118.74,170 130.31,170 141.89,170 " fill="none" id="Interface internal systems\n-puris_backend" style="stroke:#181818;stroke-width:1.0;"/></g><!--link puris_backend to puris_frontend--><g id="link_puris_backend_puris_frontend"><path d="M238.12,193.06 C239.82,210.7 242.19,235.34 243.88,252.98 " fill="none" id="puris_backend-puris_frontend" style="stroke:#181818;stroke-width:1.0;"/></g><!--link edc to keycloak--><g id="link_edc_keycloak"><path d="M475.79,193.4 C438.79,236.52 358.07,330.64 321.13,373.69 " fill="none" id="edc-keycloak" style="stroke:#181818;stroke-width:1.0;"/></g><!--link edc to miw--><g id="link_edc_miw"><path d="M495,193.4 C495,236.52 495,330.64 495,373.69 " fill="none" id="edc-miw" style="stroke:#181818;stroke-width:1.0;"/></g><!--link puris_frontend to keycloak--><g id="link_puris_frontend_keycloak"><path d="M256.4,299.1 C266.4,320.34 281.42,352.28 291.46,373.61 " fill="none" id="puris_frontend-keycloak" style="stroke:#181818;stroke-width:1.0;"/></g><!--SRC=[PP3HIiGm44NVynMNlESdjh9GH5piYWigCgQpIscQr2H5YlZlDcbTwFOjC_VSkPFfIRTqOSZ3yrDPoHyXWDUZ9ns7e4uedBMie_CeXX1Tn_uT5C2rpk31XNZn7BuCxdPPwPTELjD8x1-h2hifXcqz8uDlmiVdtBdXzjxPk0RFIoi5hgnGUGzSCw7KPhWi9xC_asOqwMN988mXSXVUhCJMS1EXDbly2j7_7wquISmdk-TH6qTjNhnTYYGya9tG6cNDDZPnn0iPmp5pNVETvudf7odgwblgfA_ZLzGV]--></g></svg>
