<?xml version="1.0" encoding="us-ascii" standalone="no"?><svg xmlns="http://www.w3.org/2000/svg" xmlns:xlink="http://www.w3.org/1999/xlink" contentStyleType="text/css" height="504px" preserveAspectRatio="none" style="width:1362px;height:504px;background:#FFFFFF;" version="1.1" viewBox="0 0 1362 504" width="1362px" zoomAndPan="magnify"><defs/><g><!--cluster <<system>> PURIS FOSS Frontend--><g id="cluster_&lt;&lt;system&gt;&gt; PURIS FOSS Frontend"><path d="M8.5,69 L257.5,69 A3.75,3.75 0 0 1 260,71.5 L267,91.2969 L1352.5,91.2969 A2.5,2.5 0 0 1 1355,93.7969 L1355,367.5 A2.5,2.5 0 0 1 1352.5,370 L8.5,370 A2.5,2.5 0 0 1 6,367.5 L6,71.5 A2.5,2.5 0 0 1 8.5,69 " fill="none" style="stroke:#000000;stroke-width:1.5;"/><line style="stroke:#000000;stroke-width:1.5;" x1="6" x2="267" y1="91.2969" y2="91.2969"/><text fill="#000000" font-family="sans-serif" font-size="14" font-weight="bold" lengthAdjust="spacing" textLength="248" x="10" y="83.9951">&#171;system&#187; PURIS FOSS Frontend</text></g><!--cluster user_views--><g id="cluster_user_views"><path d="M40.5,225 L131.5,225 A3.75,3.75 0 0 1 134,227.5 L141,247.2969 L619.5,247.2969 A2.5,2.5 0 0 1 622,249.7969 L622,335.5 A2.5,2.5 0 0 1 619.5,338 L40.5,338 A2.5,2.5 0 0 1 38,335.5 L38,227.5 A2.5,2.5 0 0 1 40.5,225 " fill="none" style="stroke:#000000;stroke-width:1.5;"/><line style="stroke:#000000;stroke-width:1.5;" x1="38" x2="141" y1="247.2969" y2="247.2969"/><text fill="#000000" font-family="sans-serif" font-size="14" font-weight="bold" lengthAdjust="spacing" textLength="90" x="42" y="239.9951">User Views</text></g><!--cluster admin_views--><g id="cluster_admin_views"><path d="M664.5,225 L767.5,225 A3.75,3.75 0 0 1 770,227.5 L777,247.2969 L1320.5,247.2969 A2.5,2.5 0 0 1 1323,249.7969 L1323,335.5 A2.5,2.5 0 0 1 1320.5,338 L664.5,338 A2.5,2.5 0 0 1 662,335.5 L662,227.5 A2.5,2.5 0 0 1 664.5,225 " fill="none" style="stroke:#000000;stroke-width:1.5;"/><line style="stroke:#000000;stroke-width:1.5;" x1="662" x2="777" y1="247.2969" y2="247.2969"/><text fill="#000000" font-family="sans-serif" font-size="14" font-weight="bold" lengthAdjust="spacing" textLength="102" x="666" y="239.9951">Admin Views</text></g><!--entity auth_service--><g id="elem_auth_service"><rect fill="#F1F1F1" height="46.2969" rx="2.5" ry="2.5" style="stroke:#181818;stroke-width:0.5;" width="194" x="297" y="104"/><rect fill="#F1F1F1" height="10" style="stroke:#181818;stroke-width:0.5;" width="15" x="471" y="109"/><rect fill="#F1F1F1" height="2" style="stroke:#181818;stroke-width:0.5;" width="4" x="469" y="111"/><rect fill="#F1F1F1" height="2" style="stroke:#181818;stroke-width:0.5;" width="4" x="469" y="115"/><text fill="#000000" font-family="sans-serif" font-size="14" lengthAdjust="spacing" textLength="154" x="312" y="136.9951">Authentication Service</text></g><!--entity material_list_view--><g id="elem_material_list_view"><rect fill="#F1F1F1" height="46.2969" rx="2.5" ry="2.5" style="stroke:#181818;stroke-width:0.5;" width="156" x="70" y="268"/><rect fill="#F1F1F1" height="10" style="stroke:#181818;stroke-width:0.5;" width="15" x="206" y="273"/><rect fill="#F1F1F1" height="2" style="stroke:#181818;stroke-width:0.5;" width="4" x="204" y="275"/><rect fill="#F1F1F1" height="2" style="stroke:#181818;stroke-width:0.5;" width="4" x="204" y="279"/><text fill="#000000" font-family="sans-serif" font-size="14" lengthAdjust="spacing" textLength="116" x="85" y="300.9951">Material List View</text></g><!--entity material_details_view--><g id="elem_material_details_view"><rect fill="#F1F1F1" height="46.2969" rx="2.5" ry="2.5" style="stroke:#181818;stroke-width:0.5;" width="180" x="246" y="268"/><rect fill="#F1F1F1" height="10" style="stroke:#181818;stroke-width:0.5;" width="15" x="406" y="273"/><rect fill="#F1F1F1" height="2" style="stroke:#181818;stroke-width:0.5;" width="4" x="404" y="275"/><rect fill="#F1F1F1" height="2" style="stroke:#181818;stroke-width:0.5;" width="4" x="404" y="279"/><text fill="#000000" font-family="sans-serif" font-size="14" lengthAdjust="spacing" textLength="140" x="261" y="300.9951">Material Details View</text></g><!--entity notifications_view--><g id="elem_notifications_view"><rect fill="#F1F1F1" height="46.2969" rx="2.5" ry="2.5" style="stroke:#181818;stroke-width:0.5;" width="152" x="446" y="268"/><rect fill="#F1F1F1" height="10" style="stroke:#181818;stroke-width:0.5;" width="15" x="578" y="273"/><rect fill="#F1F1F1" height="2" style="stroke:#181818;stroke-width:0.5;" width="4" x="576" y="275"/><rect fill="#F1F1F1" height="2" style="stroke:#181818;stroke-width:0.5;" width="4" x="576" y="279"/><text fill="#000000" font-family="sans-serif" font-size="14" lengthAdjust="spacing" textLength="112" x="461" y="300.9951">Notification View</text></g><!--entity import_view--><g id="elem_import_view"><rect fill="#F1F1F1" height="46.2969" rx="2.5" ry="2.5" style="stroke:#181818;stroke-width:0.5;" width="120" x="694" y="268"/><rect fill="#F1F1F1" height="10" style="stroke:#181818;stroke-width:0.5;" width="15" x="794" y="273"/><rect fill="#F1F1F1" height="2" style="stroke:#181818;stroke-width:0.5;" width="4" x="792" y="275"/><rect fill="#F1F1F1" height="2" style="stroke:#181818;stroke-width:0.5;" width="4" x="792" y="279"/><text fill="#000000" font-family="sans-serif" font-size="14" lengthAdjust="spacing" textLength="80" x="709" y="300.9951">Import View</text></g><!--entity catalog_view--><g id="elem_catalog_view"><rect fill="#F1F1F1" height="46.2969" rx="2.5" ry="2.5" style="stroke:#181818;stroke-width:0.5;" width="128" x="834" y="268"/><rect fill="#F1F1F1" height="10" style="stroke:#181818;stroke-width:0.5;" width="15" x="942" y="273"/><rect fill="#F1F1F1" height="2" style="stroke:#181818;stroke-width:0.5;" width="4" x="940" y="275"/><rect fill="#F1F1F1" height="2" style="stroke:#181818;stroke-width:0.5;" width="4" x="940" y="279"/><text fill="#000000" font-family="sans-serif" font-size="14" lengthAdjust="spacing" textLength="88" x="849" y="300.9951">Catalog View</text></g><!--entity negotiations_view--><g id="elem_negotiations_view"><rect fill="#F1F1F1" height="46.2969" rx="2.5" ry="2.5" style="stroke:#181818;stroke-width:0.5;" width="163" x="982.5" y="268"/><rect fill="#F1F1F1" height="10" style="stroke:#181818;stroke-width:0.5;" width="15" x="1125.5" y="273"/><rect fill="#F1F1F1" height="2" style="stroke:#181818;stroke-width:0.5;" width="4" x="1123.5" y="275"/><rect fill="#F1F1F1" height="2" style="stroke:#181818;stroke-width:0.5;" width="4" x="1123.5" y="279"/><text fill="#000000" font-family="sans-serif" font-size="14" lengthAdjust="spacing" textLength="123" x="997.5" y="300.9951">Negotiations View</text></g><!--entity transfer_view--><g id="elem_transfer_view"><rect fill="#F1F1F1" height="46.2969" rx="2.5" ry="2.5" style="stroke:#181818;stroke-width:0.5;" width="133" x="1165.5" y="268"/><rect fill="#F1F1F1" height="10" style="stroke:#181818;stroke-width:0.5;" width="15" x="1278.5" y="273"/><rect fill="#F1F1F1" height="2" style="stroke:#181818;stroke-width:0.5;" width="4" x="1276.5" y="275"/><rect fill="#F1F1F1" height="2" style="stroke:#181818;stroke-width:0.5;" width="4" x="1276.5" y="279"/><text fill="#000000" font-family="sans-serif" font-size="14" lengthAdjust="spacing" textLength="93" x="1180.5" y="300.9951">Transfer View</text></g><!--entity idp--><g id="elem_idp"><rect fill="#F1F1F1" height="46.2969" rx="2.5" ry="2.5" style="stroke:#181818;stroke-width:0.5;" width="101" x="343.5" y="7"/><rect fill="#F1F1F1" height="10" style="stroke:#181818;stroke-width:0.5;" width="15" x="424.5" y="12"/><rect fill="#F1F1F1" height="2" style="stroke:#181818;stroke-width:0.5;" width="4" x="422.5" y="14"/><rect fill="#F1F1F1" height="2" style="stroke:#181818;stroke-width:0.5;" width="4" x="422.5" y="18"/><text fill="#000000" font-family="sans-serif" font-size="14" lengthAdjust="spacing" textLength="61" x="358.5" y="39.9951">Keycloak</text></g><!--entity edc_interface--><g id="elem_edc_interface"><ellipse cx="1064" cy="466" fill="#F1F1F1" rx="8" ry="8" style="stroke:#181818;stroke-width:0.5;"/><text fill="#000000" font-family="sans-serif" font-size="14" lengthAdjust="spacing" textLength="94" x="1017" y="495.9951">EDC Interface</text></g><!--entity mad_interface--><g id="elem_mad_interface"><ellipse cx="522" cy="466" fill="#F1F1F1" rx="8" ry="8" style="stroke:#181818;stroke-width:0.5;"/><text fill="#000000" font-family="sans-serif" font-size="14" lengthAdjust="spacing" textLength="96" x="474" y="495.9951">MAD Interface</text></g><!--entity information_interface--><g id="elem_information_interface"><ellipse cx="341" cy="466" fill="#F1F1F1" rx="8" ry="8" style="stroke:#181818;stroke-width:0.5;"/><text fill="#000000" font-family="sans-serif" font-size="14" lengthAdjust="spacing" textLength="186" x="248" y="495.9951">PURIS Information Interface</text></g><!--link idp to auth_service--><g id="link_idp_auth_service"><path d="M394,53.03 C394,68.27 394,88.47 394,103.76 " fill="none" id="idp-auth_service" style="stroke:#181818;stroke-width:1.0;"/></g><!--link auth_service to user_views--><g id="link_auth_service_user_views"><path d="M302.36,150.03 C202.57,174.01 57,209 57,209 C57,209 56.3338,213.9056 55.3292,221.3023 C55.2037,222.2269 55.0728,223.1904 54.9373,224.1882 C54.9034,224.4376 55.6767,218.7437 55.6422,218.9974 " fill="none" id="auth_service-to-user_views" style="stroke:#181818;stroke-width:1.0;"/><polygon fill="#181818" points="54.8348,224.9428,60.0096,216.5629,55.5077,219.9883,52.0823,215.4864,54.8348,224.9428" style="stroke:#181818;stroke-width:1.0;"/></g><!--link auth_service to admin_views--><g id="link_auth_service_admin_views"><path d="M453.01,150.03 C517.27,174.01 611,209 611,209 C611,209 625.2925,228.6225 639.8088,248.5513 C647.0669,258.5156 654.3809,268.5566 659.9923,276.2595 C660.3431,276.741 660.6871,277.2133 661.0241,277.6759 C661.1926,277.9071 661.3593,278.136 661.5242,278.3624 C661.6067,278.4755 658.1558,273.7385 658.2373,273.8504 " fill="none" id="auth_service-to-admin_views" style="stroke:#181818;stroke-width:1.0;"/><polygon fill="#181818" points="661.7702,278.7,659.7039,269.0703,658.8261,274.6587,653.2378,273.7808,661.7702,278.7" style="stroke:#181818;stroke-width:1.0;"/></g><!--reverse link material_list_view to information_interface--><g id="link_material_list_view_information_interface"><path d="M174.9517,318.343 C201.0317,343.823 236,378 236,378 C236,378 305.98,435.99 331.68,457.28 " fill="none" id="material_list_view-backto-information_interface" style="stroke:#181818;stroke-width:1.0;"/><polygon fill="#181818" points="170.66,314.15,174.3023,323.3006,174.2364,317.6442,179.8929,317.5783,170.66,314.15" style="stroke:#181818;stroke-width:1.0;"/></g><!--reverse link material_details_view to information_interface--><g id="link_material_details_view_information_interface"><path d="M336.8143,320.2575 C337.9443,359.1375 340.04,431.67 340.77,456.96 " fill="none" id="material_details_view-backto-information_interface" style="stroke:#181818;stroke-width:1.0;"/><polygon fill="#181818" points="336.64,314.26,332.9032,323.3724,336.7853,319.2579,340.8998,323.14,336.64,314.26" style="stroke:#181818;stroke-width:1.0;"/></g><!--reverse link notifications_view to information_interface--><g id="link_notifications_view_information_interface"><path d="M495.6074,318.3926 C470.1274,343.8726 436,378 436,378 C436,378 373.29,435.43 349.77,456.97 " fill="none" id="notifications_view-backto-information_interface" style="stroke:#181818;stroke-width:1.0;"/><polygon fill="#181818" points="499.85,314.15,490.6576,317.6855,496.3145,317.6855,496.3145,323.3424,499.85,314.15" style="stroke:#181818;stroke-width:1.0;"/></g><!--reverse link material_list_view to mad_interface--><g id="link_material_list_view_mad_interface"><path d="M174.9517,318.343 C201.0317,343.823 236,378 236,378 C236,378 452,437 452,437 C452,437 493.87,453.75 512.85,461.34 " fill="none" id="material_list_view-backto-mad_interface" style="stroke:#181818;stroke-width:1.0;"/><polygon fill="#181818" points="170.66,314.15,174.3023,323.3006,174.2364,317.6442,179.8929,317.5783,170.66,314.15" style="stroke:#181818;stroke-width:1.0;"/></g><!--reverse link material_details_view to mad_interface--><g id="link_material_details_view_mad_interface"><path d="M364.3328,318.3469 C406.1228,357.2269 486.17,431.67 513.36,456.96 " fill="none" id="material_details_view-backto-mad_interface" style="stroke:#181818;stroke-width:1.0;"/><polygon fill="#181818" points="359.94,314.26,363.8046,323.319,363.6007,317.6658,369.2539,317.4619,359.94,314.26" style="stroke:#181818;stroke-width:1.0;"/></g><!--reverse link notifications_view to mad_interface--><g id="link_notifications_view_mad_interface"><path d="M522,320.26 C522,359.14 522,431.67 522,456.96 " fill="none" id="notifications_view-backto-mad_interface" style="stroke:#181818;stroke-width:1.0;"/><polygon fill="#181818" points="522,314.26,518,323.26,522,319.26,526,323.26,522,314.26" style="stroke:#181818;stroke-width:1.0;"/></g><!--reverse link import_view to mad_interface--><g id="link_import_view_mad_interface"><path d="M733.9382,318.9636 C714.9782,344.4436 690,378 690,378 C690,378 565.93,442.25 531.03,460.32 " fill="none" id="import_view-backto-mad_interface" style="stroke:#181818;stroke-width:1.0;"/><polygon fill="#181818" points="737.52,314.15,728.9382,318.9825,734.5351,318.1613,735.3563,323.7582,737.52,314.15" style="stroke:#181818;stroke-width:1.0;"/></g><!--reverse link import_view to information_interface--><g id="link_import_view_information_interface"><path d="M733.9382,318.9636 C714.9782,344.4436 690,378 690,378 C690,378 405.84,448.84 350.33,462.67 " fill="none" id="import_view-backto-information_interface" style="stroke:#181818;stroke-width:1.0;"/><polygon fill="#181818" points="737.52,314.15,728.9382,318.9825,734.5351,318.1613,735.3563,323.7582,737.52,314.15" style="stroke:#181818;stroke-width:1.0;"/></g><!--reverse link catalog_view to edc_interface--><g id="link_catalog_view_edc_interface"><path d="M921.2545,318.6712 C943.4845,344.1512 973,378 973,378 C973,378 1033.07,435.43 1055.6,456.97 " fill="none" id="catalog_view-backto-edc_interface" style="stroke:#181818;stroke-width:1.0;"/><polygon fill="#181818" points="917.31,314.15,920.2126,323.5614,920.5971,317.9176,926.2409,318.3021,917.31,314.15" style="stroke:#181818;stroke-width:1.0;"/></g><!--reverse link catalog_view to mad_interface--><g id="link_catalog_view_mad_interface"><path d="M875.027,318.6985 C853.107,344.1785 824,378 824,378 C824,378 581.29,447.92 531.04,462.4 " fill="none" id="catalog_view-backto-mad_interface" style="stroke:#181818;stroke-width:1.0;"/><polygon fill="#181818" points="878.94,314.15,870.0382,318.3641,875.6792,317.9404,876.1029,323.5814,878.94,314.15" style="stroke:#181818;stroke-width:1.0;"/></g><!--reverse link negotiations_view to edc_interface--><g id="link_negotiations_view_edc_interface"><path d="M1064,320.26 C1064,359.14 1064,431.67 1064,456.96 " fill="none" id="negotiations_view-backto-edc_interface" style="stroke:#181818;stroke-width:1.0;"/><polygon fill="#181818" points="1064,314.26,1060,323.26,1064,319.26,1068,323.26,1064,314.26" style="stroke:#181818;stroke-width:1.0;"/></g><!--reverse link transfer_view to edc_interface--><g id="link_transfer_view_edc_interface"><path d="M1208.4565,318.6457 C1185.9365,344.1257 1156,378 1156,378 C1156,378 1095.27,435.43 1072.49,456.97 " fill="none" id="transfer_view-backto-edc_interface" style="stroke:#181818;stroke-width:1.0;"/><polygon fill="#181818" points="1212.43,314.15,1203.4727,318.2446,1209.1188,317.8964,1209.467,323.5426,1212.43,314.15" style="stroke:#181818;stroke-width:1.0;"/></g><!--SRC=[ZP9FQy904CNl-oc6dDf3G0gzYI3QGcXjIwszI0b3ih5BajsGNPLG_ExT_35EOXGlWNdpczcNtQTZ8JFCCOL4I6wAZ4Ecag8ic6vxKeLSymmUHaJCKSQb-3XYBCCWnWq7PppMXJOydKpWO_NfBU7vVMa_kPA6oz3vOm3hwTRyScb4W4Oe2KkUxqJ0Vm0re6tvkXQOPTkzAol2j-1xxPJSrfR-hYoXN6cNBj3mN602hqARYgmMfeti9rQk9dhud1iKYHwO2EiE6NfJHaH7s-s096fB7wZvQPWAITnZMNVjUsccSk9RL3KvUuO64xKv4K4jK7jyOwtKFeWzeXBuopwVZffBhK3JAATVEB3r2o-2H65Scmepnkm7t53jfTjxBLerX3iXBtK189V16Bkx1nu6lh1noIEqd3tMUPhFm3igJica6FQOnNJUOuICL9vMFzvZwsHwfpwTPEUHWR7hkiFxs61ShWsSn-MczJqpdGkuPg8BNZgyIv7mtTGUjiveGckmyxG3_PxPVdA7bdHIEmJy0m00]--></g></svg>