<?xml version="1.0" encoding="us-ascii" standalone="no"?>
<svg xmlns="http://www.w3.org/2000/svg" contentStyleType="text/css" height="410px" preserveAspectRatio="none"
     style="width:1342px;height:410px;background:#FFFFFF;" version="1.1" viewBox="0 0 1342 410" width="1342px"
     zoomAndPan="magnify"><defs/><g><!--cluster <<system>> PURIS FOSS Frontend--><g id="cluster_&lt;&lt;system&gt;&gt; PURIS FOSS Frontend"><path d="M129.5,108 L383.5,108 A3.75,3.75 0 0 1 386,110.5 L393,130.2969 L1332.5,130.2969 A2.5,2.5 0 0 1 1335,132.7969 L1335,306.5 A2.5,2.5 0 0 1 1332.5,309 L129.5,309 A2.5,2.5 0 0 1 127,306.5 L127,110.5 A2.5,2.5 0 0 1 129.5,108 " fill="none" style="stroke:#000000;stroke-width:1.5;"/><line style="stroke:#000000;stroke-width:1.5;" x1="127" x2="393" y1="130.2969" y2="130.2969"/><text fill="#000000" font-family="sans-serif" font-size="14" font-weight="bold" lengthAdjust="spacing" textLength="253" x="131" y="122.9951">&#171;system&#187; PURIS FOSS Frontend</text></g><!--entity erp_service--><g id="elem_erp_service"><rect fill="#F1F1F1" height="46.2969" rx="2.5" ry="2.5" style="stroke:#181818;stroke-width:0.5;" width="124" x="243" y="247"/><rect fill="#F1F1F1" height="10" style="stroke:#181818;stroke-width:0.5;" width="15" x="347" y="252"/><rect fill="#F1F1F1" height="2" style="stroke:#181818;stroke-width:0.5;" width="4" x="345" y="254"/><rect fill="#F1F1F1" height="2" style="stroke:#181818;stroke-width:0.5;" width="4" x="345" y="258"/><text fill="#000000" font-family="sans-serif" font-size="14" lengthAdjust="spacing" textLength="84" x="258" y="279.9951">ERP Service</text></g><!--entity stock_view--><g id="elem_stock_view"><rect fill="#F1F1F1" height="46.2969" rx="2.5" ry="2.5" style="stroke:#181818;stroke-width:0.5;" width="117" x="690.5" y="151"/><rect fill="#F1F1F1" height="10" style="stroke:#181818;stroke-width:0.5;" width="15" x="787.5" y="156"/><rect fill="#F1F1F1" height="2" style="stroke:#181818;stroke-width:0.5;" width="4" x="785.5" y="158"/><rect fill="#F1F1F1" height="2" style="stroke:#181818;stroke-width:0.5;" width="4" x="785.5" y="162"/><text fill="#000000" font-family="sans-serif" font-size="14" lengthAdjust="spacing" textLength="77" x="705.5" y="183.9951">Stock View</text></g><!--entity notifications_view--><g id="elem_notifications_view"><rect fill="#F1F1F1" height="46.2969" rx="2.5" ry="2.5" style="stroke:#181818;stroke-width:0.5;" width="159" x="372.5" y="151"/><rect fill="#F1F1F1" height="10" style="stroke:#181818;stroke-width:0.5;" width="15" x="511.5" y="156"/><rect fill="#F1F1F1" height="2" style="stroke:#181818;stroke-width:0.5;" width="4" x="509.5" y="158"/><rect fill="#F1F1F1" height="2" style="stroke:#181818;stroke-width:0.5;" width="4" x="509.5" y="162"/><text fill="#000000" font-family="sans-serif" font-size="14" lengthAdjust="spacing" textLength="119" x="387.5" y="183.9951">Notification View</text></g><!--entity dashboard--><g id="elem_dashboard"><rect fill="#F1F1F1" height="46.2969" rx="2.5" ry="2.5" style="stroke:#181818;stroke-width:0.5;" width="118" x="552" y="151"/><rect fill="#F1F1F1" height="10" style="stroke:#181818;stroke-width:0.5;" width="15" x="650" y="156"/><rect fill="#F1F1F1" height="2" style="stroke:#181818;stroke-width:0.5;" width="4" x="648" y="158"/><rect fill="#F1F1F1" height="2" style="stroke:#181818;stroke-width:0.5;" width="4" x="648" y="162"/><text fill="#000000" font-family="sans-serif" font-size="14" lengthAdjust="spacing" textLength="78" x="567" y="183.9951">Dashboard</text></g><!--entity auth_service--><g id="elem_auth_service"><rect fill="#F1F1F1" height="46.2969" rx="2.5" ry="2.5" style="stroke:#181818;stroke-width:0.5;" width="201" x="151.5" y="151"/><rect fill="#F1F1F1" height="10" style="stroke:#181818;stroke-width:0.5;" width="15" x="332.5" y="156"/><rect fill="#F1F1F1" height="2" style="stroke:#181818;stroke-width:0.5;" width="4" x="330.5" y="158"/><rect fill="#F1F1F1" height="2" style="stroke:#181818;stroke-width:0.5;" width="4" x="330.5" y="162"/><text fill="#000000" font-family="sans-serif" font-size="14" lengthAdjust="spacing" textLength="161" x="166.5" y="183.9951">Authentication Service</text></g><!--entity catalog_view--><g id="elem_catalog_view"><rect fill="#F1F1F1" height="46.2969" rx="2.5" ry="2.5" style="stroke:#181818;stroke-width:0.5;" width="133" x="832.5" y="151"/><rect fill="#F1F1F1" height="10" style="stroke:#181818;stroke-width:0.5;" width="15" x="945.5" y="156"/><rect fill="#F1F1F1" height="2" style="stroke:#181818;stroke-width:0.5;" width="4" x="943.5" y="158"/><rect fill="#F1F1F1" height="2" style="stroke:#181818;stroke-width:0.5;" width="4" x="943.5" y="162"/><text fill="#000000" font-family="sans-serif" font-size="14" lengthAdjust="spacing" textLength="93" x="847.5" y="183.9951">Catalog View</text></g><!--entity negotiations_view--><g id="elem_negotiations_view"><rect fill="#F1F1F1" height="46.2969" rx="2.5" ry="2.5" style="stroke:#181818;stroke-width:0.5;" width="167" x="985.5" y="151"/><rect fill="#F1F1F1" height="10" style="stroke:#181818;stroke-width:0.5;" width="15" x="1132.5" y="156"/><rect fill="#F1F1F1" height="2" style="stroke:#181818;stroke-width:0.5;" width="4" x="1130.5" y="158"/><rect fill="#F1F1F1" height="2" style="stroke:#181818;stroke-width:0.5;" width="4" x="1130.5" y="162"/><text fill="#000000" font-family="sans-serif" font-size="14" lengthAdjust="spacing" textLength="127" x="1000.5" y="183.9951">Negotiations View</text></g><!--entity transfer_view--><g id="elem_transfer_view"><rect fill="#F1F1F1" height="46.2969" rx="2.5" ry="2.5" style="stroke:#181818;stroke-width:0.5;" width="138" x="1173" y="151"/><rect fill="#F1F1F1" height="10" style="stroke:#181818;stroke-width:0.5;" width="15" x="1291" y="156"/><rect fill="#F1F1F1" height="2" style="stroke:#181818;stroke-width:0.5;" width="4" x="1289" y="158"/><rect fill="#F1F1F1" height="2" style="stroke:#181818;stroke-width:0.5;" width="4" x="1289" y="162"/><text fill="#000000" font-family="sans-serif" font-size="14" lengthAdjust="spacing" textLength="98" x="1188" y="183.9951">Transfer View</text></g><!--entity erp_frontend_interface--><g id="elem_erp_frontend_interface"><ellipse cx="305" cy="372" fill="#F1F1F1" rx="8" ry="8" style="stroke:#181818;stroke-width:0.5;"/><text fill="#000000" font-family="sans-serif" font-size="14" lengthAdjust="spacing" textLength="188" x="211" y="401.9951">Frontend Trigger Interface</text></g><!--entity edc_interface--><g id="elem_edc_interface"><ellipse cx="1069" cy="372" fill="#F1F1F1" rx="8" ry="8" style="stroke:#181818;stroke-width:0.5;"/><text fill="#000000" font-family="sans-serif" font-size="14" lengthAdjust="spacing" textLength="98" x="1020" y="401.9951">EDC Interface</text></g><!--entity mad_interface--><g id="elem_mad_interface"><ellipse cx="610" cy="372" fill="#F1F1F1" rx="8" ry="8" style="stroke:#181818;stroke-width:0.5;"/><text fill="#000000" font-family="sans-serif" font-size="14" lengthAdjust="spacing" textLength="101" x="559.5" y="401.9951">MAD Interface</text></g><!--entity notifications_interface--><g id="elem_notifications_interface"><ellipse cx="423" cy="14" fill="#F1F1F1" rx="8" ry="8" style="stroke:#181818;stroke-width:0.5;"/><text fill="#000000" font-family="sans-serif" font-size="14" lengthAdjust="spacing" textLength="149" x="348.5" y="43.9951">Notification Interface</text></g><!--entity Interfaces for\n- Planned Production Output\n- Short-Term Material Demand\n- Delivery Information--><g id="elem_Interfaces for\n- Planned Production Output\n- Short-Term Material Demand\n- Delivery Information"><ellipse cx="641" cy="14" fill="#F1F1F1" rx="8" ry="8" style="stroke:#181818;stroke-width:0.5;"/><text fill="#000000" font-family="sans-serif" font-size="14" lengthAdjust="spacing" textLength="95" x="532.5" y="43.9951">Interfaces for</text><text fill="#000000" font-family="sans-serif" font-size="14" lengthAdjust="spacing" textLength="198" x="532.5" y="60.292">- Planned Production Output</text><text fill="#000000" font-family="sans-serif" font-size="14" lengthAdjust="spacing" textLength="217" x="532.5" y="76.5889">- Short-Term Material Demand</text><text fill="#000000" font-family="sans-serif" font-size="14" lengthAdjust="spacing" textLength="155" x="532.5" y="92.8857">- Delivery Information</text></g><!--entity idp--><g id="elem_idp"><rect fill="#F1F1F1" height="46.2969" rx="2.5" ry="2.5" style="stroke:#181818;stroke-width:0.5;" width="104" x="7" y="151"/><rect fill="#F1F1F1" height="10" style="stroke:#181818;stroke-width:0.5;" width="15" x="91" y="156"/><rect fill="#F1F1F1" height="2" style="stroke:#181818;stroke-width:0.5;" width="4" x="89" y="158"/><rect fill="#F1F1F1" height="2" style="stroke:#181818;stroke-width:0.5;" width="4" x="89" y="162"/><text fill="#000000" font-family="sans-serif" font-size="14" lengthAdjust="spacing" textLength="64" x="22" y="183.9951">Keycloak</text></g><!--entity Stock Interface--><g id="elem_Stock Interface"><ellipse cx="749" cy="372" fill="#F1F1F1" rx="8" ry="8" style="stroke:#181818;stroke-width:0.5;"/><text fill="#000000" font-family="sans-serif" font-size="14" lengthAdjust="spacing" textLength="107" x="695.5" y="401.9951">Stock Interface</text></g><!--link Interfaces for\n- Planned Production Output\n- Short-Term Material Demand\n- Delivery Information to dashboard--><g id="link_Interfaces for\n- Planned Production Output\n- Short-Term Material Demand\n- Delivery Information_dashboard"><path d="M639.47,23.05 C635.03,46.45 622.01,115 615.23,150.74 " fill="none" id="Interfaces for\n- Planned Production Output\n- Short-Term Material Demand\n- Delivery Information-dashboard" style="stroke:#181818;stroke-width:1.0;"/></g><!--link idp to auth_service--><g id="link_idp_auth_service"><path d="M111.23,174 C118.38,174 123.33,174 123.33,174 C123.33,174 136.77,174 151.36,174 " fill="none" id="idp-auth_service" style="stroke:#181818;stroke-width:1.0;"/></g><!--link stock_view to Stock Interface--><g id="link_stock_view_Stock Interface"><path d="M749,197.1 C749,240.35 749,324.42 749,352.76 " fill="none" id="stock_view-to-Stock Interface" style="stroke:#181818;stroke-width:1.0;"/><path d="M757.4572,359.6818 A9,9 0 0 0 740.5428 359.6818" fill="none" style="stroke:#181818;stroke-width:1.5;"/></g><!--link stock_view to mad_interface--><g id="link_stock_view_mad_interface"><path d="M733.33,197.1 C702.65,240.35 641.7232,326.2619 621.6332,354.6019 " fill="none" id="stock_view-to-mad_interface" style="stroke:#181818;stroke-width:1.0;"/><path d="M624.5297,365.1398 A9,9 0 0 0 610.7307 355.3578" fill="none" style="stroke:#181818;stroke-width:1.5;"/></g><!--link dashboard to Stock Interface--><g id="link_dashboard_Stock Interface"><path d="M626.56,197.1 C657.01,240.35 717.4818,326.2442 737.4418,354.5842 " fill="none" id="dashboard-to-Stock Interface" style="stroke:#181818;stroke-width:1.0;"/><path d="M748.3419,355.3735 A9,9 0 0 0 734.5131 365.1132" fill="none" style="stroke:#181818;stroke-width:1.5;"/></g><!--link dashboard to mad_interface--><g id="link_dashboard_mad_interface"><path d="M610.89,197.1 C610.67,240.35 610.2429,324.4201 610.0929,352.7601 " fill="none" id="dashboard-to-mad_interface" style="stroke:#181818;stroke-width:1.0;"/><path d="M618.5134,359.7266 A9,9 0 0 0 601.5992 359.6371" fill="none" style="stroke:#181818;stroke-width:1.5;"/></g><!--link notifications_view to mad_interface--><g id="link_notifications_view_mad_interface"><path d="M469.82,197.1 C504.68,240.35 574.2333,326.6352 597.0833,354.9752 " fill="none" id="notifications_view-to-mad_interface" style="stroke:#181818;stroke-width:1.0;"/><path d="M608.0117,355.0553 A9,9 0 0 0 594.8441 365.6721" fill="none" style="stroke:#181818;stroke-width:1.5;"/></g><!--reverse link notifications_interface to notifications_view--><g id="link_notifications_interface_notifications_view"><path d="M426.2833,32.8861 C430.5733,56.2861 441.35,115 447.92,150.74 " fill="none" id="notifications_interface-backto-notifications_view" style="stroke:#181818;stroke-width:1.0;"/><path d="M416.7165,27.6028 A9,9 0 0 0 433.3537 24.5526" fill="none" style="stroke:#181818;stroke-width:1.5;"/></g><!--link catalog_view to edc_interface--><g id="link_catalog_view_edc_interface"><path d="M918.17,197.1 C955.68,240.35 1030.7179,326.8656 1055.2979,355.2056 " fill="none" id="catalog_view-to-edc_interface" style="stroke:#181818;stroke-width:1.0;"/><path d="M1066.2221,354.8933 A9,9 0 0 0 1053.4442 365.9759" fill="none" style="stroke:#181818;stroke-width:1.5;"/></g><!--link catalog_view to mad_interface--><g id="link_catalog_view_mad_interface"><path d="M866.41,197.1 C801.01,241.45 665.1067,333.6278 627.4267,359.1778 " fill="none" id="catalog_view-to-mad_interface" style="stroke:#181818;stroke-width:1.0;"/><path d="M626.4441,370.0622 A9,9 0 0 0 616.9513 356.0627" fill="none" style="stroke:#181818;stroke-width:1.5;"/></g><!--link negotiations_view to edc_interface--><g id="link_negotiations_view_edc_interface"><path d="M1069,197.1 C1069,240.35 1069,324.42 1069,352.76 " fill="none" id="negotiations_view-to-edc_interface" style="stroke:#181818;stroke-width:1.0;"/><path d="M1077.4572,359.6818 A9,9 0 0 0 1060.5428 359.6818" fill="none" style="stroke:#181818;stroke-width:1.5;"/></g><!--link transfer_view to edc_interface--><g id="link_transfer_view_edc_interface"><path d="M1222.49,197.1 C1184.32,240.35 1107.9083,326.9235 1082.8883,355.2635 " fill="none" id="transfer_view-to-edc_interface" style="stroke:#181818;stroke-width:1.0;"/><path d="M1084.6472,366.0497 A9,9 0 0 0 1071.9673 354.8552" fill="none" style="stroke:#181818;stroke-width:1.5;"/></g><!--link erp_service to dashboard--><g id="link_erp_service_dashboard"><path d="M367.01,252.18 C436.93,233.22 541,205 541,205 C541,205 548.9,201.61 559.39,197.12 " fill="none" id="erp_service-dashboard" style="stroke:#181818;stroke-width:1.0;"/></g><!--link erp_service to erp_frontend_interface--><g id="link_erp_service_erp_frontend_interface"><path d="M305,293.19 C305,315.29 305,348.01 305,362.99 " fill="none" id="erp_service-erp_frontend_interface" style="stroke:#181818;stroke-width:1.0;"/></g><!--link dashboard to stock_view--><!--link auth_service to erp_service--><!--SRC=[dLHHQwGm47xFhnXyQX-4Sd1lfL1g2wNqkjIzUzahIywC6jH4ahX5olxt6tLNesSvw8ioytqp-J9V4bj8LNF3AoYbGjVM2BKksovWTiIK5cYnXczNNj9mLNJ9xrUCNLm2cdgV6gqSAh6Nz3CfJn2uXU3Xb8QjaLc61XxFSD1NYcHHS1_TBJWLNpPzles-q4Tf9rEPS2UriWls3m_porZDau9d2C7rjMsjm-hc1ZO_NnzZU7Y9wNFQNl316C3k_dK3CPg3JF2jwziDnWunmKvdw7AQmGS5n8wTJWhu9V6z9zikt1ye7E2Pff4rtyN4ZhZD_sXkHCyIvsW0RnjQLxbpCryY9yZJU5pHUSSTBtKsQKY6XAyLCz8rYFAqUbcFlANZOrFgFnBTANCc7TcH1QCD5b9jVgiGDYLN2WLiZ1PDqc_bfN5rupemphLnuHPD1S-SAYKl8SAAAz6X4PRoWAObSwbPrMiA80ozIUsUi4rApOjUaXGrO_I1S3uYDjb4vU4518EDtg5PCcO7cB5nnS_g5uHv-R_-_vyrdVLBsl7A2MA-eqE_sOrQmHVhBPrUQp9pUOt0lFi2lZMVF31XKuUpE-PDRfTB8L2zqREJkz2_NCptSo8A_QxctVu2]--></g></svg>
