<?xml version="1.0" encoding="us-ascii" standalone="no"?>
<svg xmlns="http://www.w3.org/2000/svg" contentStyleType="text/css" height="525px" preserveAspectRatio="none"
     style="width:1404px;height:525px;background:#FFFFFF;" version="1.1" viewBox="0 0 1404 525" width="1404px"
     zoomAndPan="magnify"><defs/><g><!--cluster <<system>> PURIS FOSS Backend--><g id="cluster_&lt;&lt;system&gt;&gt; PURIS FOSS Backend"><path d="M413.5,80 L660.5,80 A3.75,3.75 0 0 1 663,82.5 L670,102.2969 L1174.5,102.2969 A2.5,2.5 0 0 1 1177,104.7969 L1177,421.5 A2.5,2.5 0 0 1 1174.5,424 L413.5,424 A2.5,2.5 0 0 1 411,421.5 L411,82.5 A2.5,2.5 0 0 1 413.5,80 " fill="none" style="stroke:#000000;stroke-width:1.5;"/><line style="stroke:#000000;stroke-width:1.5;" x1="411" x2="670" y1="102.2969" y2="102.2969"/><text fill="#000000" font-family="sans-serif" font-size="14" font-weight="bold" lengthAdjust="spacing" textLength="246" x="415" y="94.9951">&#171;system&#187; PURIS FOSS Backend</text></g><!--entity dtr--><g id="elem_dtr"><rect fill="#F1F1F1" height="46.2969" rx="2.5" ry="2.5" style="stroke:#181818;stroke-width:0.5;" width="70" x="788" y="115"/><rect fill="#F1F1F1" height="10" style="stroke:#181818;stroke-width:0.5;" width="15" x="838" y="120"/><rect fill="#F1F1F1" height="2" style="stroke:#181818;stroke-width:0.5;" width="4" x="836" y="122"/><rect fill="#F1F1F1" height="2" style="stroke:#181818;stroke-width:0.5;" width="4" x="836" y="126"/><text fill="#000000" font-family="sans-serif" font-size="14" lengthAdjust="spacing" textLength="30" x="803" y="147.9951">DTR</text></g><!--entity erp--><g id="elem_erp"><rect fill="#F1F1F1" height="46.2969" rx="2.5" ry="2.5" style="stroke:#181818;stroke-width:0.5;" width="128" x="427" y="249.5"/><rect fill="#F1F1F1" height="10" style="stroke:#181818;stroke-width:0.5;" width="15" x="535" y="254.5"/><rect fill="#F1F1F1" height="2" style="stroke:#181818;stroke-width:0.5;" width="4" x="533" y="256.5"/><rect fill="#F1F1F1" height="2" style="stroke:#181818;stroke-width:0.5;" width="4" x="533" y="260.5"/><text fill="#000000" font-family="sans-serif" font-size="14" lengthAdjust="spacing" textLength="88" x="442" y="282.4951">ERP Adapter</text></g><!--entity stock--><g id="elem_stock"><rect fill="#F1F1F1" height="78.8906" rx="2.5" ry="2.5" style="stroke:#181818;stroke-width:0.5;" width="236" x="705" y="233"/><rect fill="#F1F1F1" height="10" style="stroke:#181818;stroke-width:0.5;" width="15" x="921" y="238"/><rect fill="#F1F1F1" height="2" style="stroke:#181818;stroke-width:0.5;" width="4" x="919" y="240"/><rect fill="#F1F1F1" height="2" style="stroke:#181818;stroke-width:0.5;" width="4" x="919" y="244"/><text fill="#000000" font-family="sans-serif" font-size="14" lengthAdjust="spacing" textLength="196" x="720" y="265.9951">Stock, Production, Demand,</text><text fill="#000000" font-family="sans-serif" font-size="14" lengthAdjust="spacing" textLength="172" x="720" y="282.292">Delivery, Days of Supply</text><text fill="#000000" font-family="sans-serif" font-size="14" lengthAdjust="spacing" textLength="83" x="720" y="298.5889">Information</text></g><!--entity edc--><g id="elem_edc"><rect fill="#F1F1F1" height="46.2969" rx="2.5" ry="2.5" style="stroke:#181818;stroke-width:0.5;" width="70" x="1091" y="249.5"/><rect fill="#F1F1F1" height="10" style="stroke:#181818;stroke-width:0.5;" width="15" x="1141" y="254.5"/><rect fill="#F1F1F1" height="2" style="stroke:#181818;stroke-width:0.5;" width="4" x="1139" y="256.5"/><rect fill="#F1F1F1" height="2" style="stroke:#181818;stroke-width:0.5;" width="4" x="1139" y="260.5"/><text fill="#000000" font-family="sans-serif" font-size="14" lengthAdjust="spacing" textLength="30" x="1106" y="282.4951">EDC</text></g><!--entity not--><g id="elem_not"><rect fill="#F1F1F1" height="46.2969" rx="2.5" ry="2.5" style="stroke:#181818;stroke-width:0.5;" width="128" x="1021" y="362"/><rect fill="#F1F1F1" height="10" style="stroke:#181818;stroke-width:0.5;" width="15" x="1129" y="367"/><rect fill="#F1F1F1" height="2" style="stroke:#181818;stroke-width:0.5;" width="4" x="1127" y="369"/><rect fill="#F1F1F1" height="2" style="stroke:#181818;stroke-width:0.5;" width="4" x="1127" y="373"/><text fill="#000000" font-family="sans-serif" font-size="14" lengthAdjust="spacing" textLength="88" x="1036" y="394.9951">Notifications</text></g><!--entity mad--><g id="elem_mad"><rect fill="#F1F1F1" height="46.2969" rx="2.5" ry="2.5" style="stroke:#181818;stroke-width:0.5;" width="73" x="786.5" y="362"/><rect fill="#F1F1F1" height="10" style="stroke:#181818;stroke-width:0.5;" width="15" x="839.5" y="367"/><rect fill="#F1F1F1" height="2" style="stroke:#181818;stroke-width:0.5;" width="4" x="837.5" y="369"/><rect fill="#F1F1F1" height="2" style="stroke:#181818;stroke-width:0.5;" width="4" x="837.5" y="373"/><text fill="#000000" font-family="sans-serif" font-size="14" lengthAdjust="spacing" textLength="33" x="801.5" y="394.9951">MAD</text></g><!--entity mad_interface--><g id="elem_mad_interface"><ellipse cx="823" cy="487" fill="#F1F1F1" rx="8" ry="8" style="stroke:#181818;stroke-width:0.5;"/><text fill="#000000" font-family="sans-serif" font-size="14" lengthAdjust="spacing" textLength="101" x="772.5" y="516.9951">MAD Interface</text></g><!--entity dtr_interface--><g id="elem_dtr_interface"><ellipse cx="672" cy="14" fill="#F1F1F1" rx="8" ry="8" style="stroke:#181818;stroke-width:0.5;"/><text fill="#000000" font-family="sans-serif" font-size="14" lengthAdjust="spacing" textLength="222" x="561" y="43.9951">Registry &amp; Discovery Interfaces</text></g><!--entity oauth--><g id="elem_oauth"><ellipse cx="975" cy="14" fill="#F1F1F1" rx="8" ry="8" style="stroke:#181818;stroke-width:0.5;"/><text fill="#000000" font-family="sans-serif" font-size="14" lengthAdjust="spacing" textLength="53" x="948.5" y="43.9951">OAuth2</text></g><!--entity erp_interface--><g id="elem_erp_interface"><ellipse cx="268" cy="272.5" fill="#F1F1F1" rx="8" ry="8" style="stroke:#181818;stroke-width:0.5;"/><text fill="#000000" font-family="sans-serif" font-size="14" lengthAdjust="spacing" textLength="74" x="205.5" y="302.4951">ERP SAMM</text><text fill="#000000" font-family="sans-serif" font-size="14" lengthAdjust="spacing" textLength="125" x="205.5" y="318.792">Adapter Interface</text></g><!--entity edc_interface--><g id="elem_edc_interface"><ellipse cx="1320" cy="272.5" fill="#F1F1F1" rx="8" ry="8" style="stroke:#181818;stroke-width:0.5;"/><text fill="#000000" font-family="sans-serif" font-size="14" lengthAdjust="spacing" textLength="154" x="1243" y="302.4951">EDC Management API</text></g><!--entity not_interface--><g id="elem_not_interface"><ellipse cx="1308" cy="385" fill="#F1F1F1" rx="8" ry="8" style="stroke:#181818;stroke-width:0.5;"/><text fill="#000000" font-family="sans-serif" font-size="14" lengthAdjust="spacing" textLength="149" x="1233.5" y="414.9951">Notification Interface</text></g><!--entity erp_frontend_interface--><g id="elem_erp_frontend_interface"><ellipse cx="100" cy="272.5" fill="#F1F1F1" rx="8" ry="8" style="stroke:#181818;stroke-width:0.5;"/><text fill="#000000" font-family="sans-serif" font-size="14" lengthAdjust="spacing" textLength="188" x="6" y="302.4951">Frontend Trigger Interface</text></g><!--entity data_interface--><g id="elem_data_interface"><ellipse cx="1270" cy="138" fill="#F1F1F1" rx="8" ry="8" style="stroke:#181818;stroke-width:0.5;"/><text fill="#000000" font-family="sans-serif" font-size="14" lengthAdjust="spacing" textLength="72" x="1201" y="167.9951">Submodel</text><text fill="#000000" font-family="sans-serif" font-size="14" lengthAdjust="spacing" textLength="138" x="1201" y="184.292">&amp; internal interface</text></g><!--link erp_interface to erp--><g id="link_erp_interface_erp"><path d="M277.11,272.5 C296.96,272.5 342.33,272.5 342.33,272.5 C342.33,272.5 416.67,272.5 416.67,272.5 C416.67,272.5 420.61,272.5 426.69,272.5 " fill="none" id="erp_interface-erp" style="stroke:#181818;stroke-width:1.0;"/></g><!--link erp_frontend_interface to erp--><g id="link_erp_frontend_interface_erp"><path d="M109.31,268.12 C131.18,257.84 184,233 184,233 C184,233 259,208 259,208 C259,208 277,208 277,208 C277,208 363.76,234.15 426.79,253.15 " fill="none" id="erp_frontend_interface-erp" style="stroke:#181818;stroke-width:1.0;"/></g><!--link dtr_interface to dtr--><g id="link_dtr_interface_dtr"><path d="M681.45,22.63 C703.91,40.79 761.23,87.1 795.65,114.9 " fill="none" id="dtr_interface-dtr" style="stroke:#181818;stroke-width:1.0;"/></g><!--reverse link oauth to dtr--><g id="link_oauth_dtr"><path d="M958.1502,28.528 C935.8402,46.428 885.33,86.97 850.46,114.96 " fill="none" id="oauth-backto-dtr" style="stroke:#181818;stroke-width:1.0;"/><path d="M958.2565,17.5999 A9,9 0 0 0 968.8416 30.7928" fill="none" style="stroke:#181818;stroke-width:1.5;"/><text fill="#000000" font-family="sans-serif" font-size="13" lengthAdjust="spacing" textLength="191" x="641.1743" y="103.7972">use for authentication of DTR</text></g><!--link edc to not--><g id="link_edc_not"><path d="M1117.8,295.6 C1110.65,314.87 1100.33,342.68 1093.18,361.94 " fill="none" id="edc-not" style="stroke:#181818;stroke-width:1.0;"/><text fill="#000000" font-family="sans-serif" font-size="13" lengthAdjust="spacing" textLength="177" x="1139.3806" y="315.8686">use edc for communication</text></g><!--link dtr to stock--><g id="link_dtr_stock"><path d="M823,161.18 C823,180.7 823,209.57 823,232.88 " fill="none" id="dtr-stock" style="stroke:#181818;stroke-width:1.0;"/><text fill="#000000" font-family="sans-serif" font-size="13" lengthAdjust="spacing" textLength="180" x="629.7813" y="206.9521">Register and discover twins</text><text fill="#000000" font-family="sans-serif" font-size="13" lengthAdjust="spacing" textLength="85" x="677.2813" y="222.0849">&amp; submodels</text></g><!--link data_interface to stock--><g id="link_data_interface_stock"><path d="M1260.71,144.05 C1239.43,155.6 1189,183 1189,183 C1189,183 1048.03,217.09 941.07,242.95 " fill="none" id="data_interface-stock" style="stroke:#181818;stroke-width:1.0;"/></g><!--link erp to stock--><g id="link_erp_stock"><path d="M555.05,272.5 C579.53,272.5 601.67,272.5 601.67,272.5 C601.67,272.5 679.72,272.5 704.73,272.5 " fill="none" id="erp-stock" style="stroke:#181818;stroke-width:1.0;"/></g><!--link stock to edc--><g id="link_stock_edc"><path d="M941.13,272.5 C969.95,272.5 1025,272.5 1025,272.5 C1025,272.5 1061.79,272.5 1090.96,272.5 " fill="none" id="stock-edc" style="stroke:#181818;stroke-width:1.0;"/><text fill="#000000" font-family="sans-serif" font-size="13" lengthAdjust="spacing" textLength="103" x="974.0073" y="253.2765">query catalog &amp;</text><text fill="#000000" font-family="sans-serif" font-size="13" lengthAdjust="spacing" textLength="115" x="968.0073" y="268.4093">get data (via edc)</text></g><!--link stock to mad--><g id="link_stock_mad"><path d="M823,312.15 C823,328.83 823,347.73 823,361.96 " fill="none" id="stock-mad" style="stroke:#181818;stroke-width:1.0;"/></g><!--link edc to edc_interface--><g id="link_edc_edc_interface"><path d="M1161.36,272.5 C1176.46,272.5 1190.67,272.5 1190.67,272.5 C1190.67,272.5 1255.33,272.5 1255.33,272.5 C1255.33,272.5 1282.85,272.5 1300.73,272.5 " fill="none" id="edc-to-edc_interface" style="stroke:#181818;stroke-width:1.0;"/><path d="M1307.6518,264.0428 A9,9 0 0 0 1307.6518 280.9572" fill="none" style="stroke:#181818;stroke-width:1.5;"/></g><!--link mad to mad_interface--><g id="link_mad_mad_interface"><path d="M823,408.19 C823,430.29 823,463.01 823,477.99 " fill="none" id="mad-mad_interface" style="stroke:#181818;stroke-width:1.0;"/></g><!--link mad to not--><g id="link_mad_not"><path d="M859.53,385 C883.46,385 910.33,385 910.33,385 C910.33,385 997.67,385 997.67,385 C997.67,385 1007.52,385 1020.61,385 " fill="none" id="mad-not" style="stroke:#181818;stroke-width:1.0;"/></g><!--link erp to mad--><g id="link_erp_mad"><path d="M555.01,294.81 C623.79,317.7 730.7,353.28 786.42,371.83 " fill="none" id="erp-mad" style="stroke:#181818;stroke-width:1.0;"/></g><!--link not to not_interface--><g id="link_not_not_interface"><path d="M1149.31,385 C1155.39,385 1159.33,385 1159.33,385 C1159.33,385 1233.67,385 1233.67,385 C1233.67,385 1279.04,385 1298.89,385 " fill="none" id="not-not_interface" style="stroke:#181818;stroke-width:1.0;"/></g><!--SRC=[PLF1Rjim3BthAmWViWI8WMt0RaM1h5w17B86SNTQXa6pP5U8JNcItC8OzkyZPMLDt8jXFPAFv2FvhjLrW631cUOfW39ELy5O5Fvai9TETj0Qr67iDVIs7VbnOKEhjDSzVFZq_W9r4a-C4YYMA-Ya-camQ5VBIeFqaEqs1MpFICO-AhYPpq4tnWStmW8AuolxhEd_Vv2FKLOEuIbwFspexsC4jUjdL5yEUoWtkzqHDqhsP9abrwgQHnHti9Ce6zrf3B3PRwCZsZ1p_6g3gKqbMRCvAzLHEqiOplk_Jp0yakpDctgK378MKGw_EjAwXICk89fGjc1UmqGlgnFL2zdDZHzzqDtjBUo_7RObt3-K9NmcCsNC_WW1yBruFFnWNfATdonGaYR2L3h3PR3LQGrxPzKGjs8DXUuaglKH2zqQ7Wb1SlHWQoY7lc_78swnjgwBYaGopomnIt4tiQkAdvVI-MWWUTb0sn6Vj3VYhn1K3EIyfldrQEU6jrgBwwtAbNt1FFOyBSug8P0DNWDL3GpJmCy3fQv8gIo62AeEyg7F9szg8aPKjki6J05Px8tJdfEbDQOHasnqNjCYGtWnw7cKFitLPqcdsUmJpMIBtukMpq2yNShrU-0ReL9aQnjO7B7H8IuJB9-DvDfMKuKfRk9ccRcRHBEyFWSXo0vvVdt54vZoyjZYB2QkIQXNsqNKFm00]--></g></svg>
