<?xml version="1.0" encoding="us-ascii" standalone="no"?><svg xmlns="http://www.w3.org/2000/svg" xmlns:xlink="http://www.w3.org/1999/xlink" contentStyleType="text/css" height="493px" preserveAspectRatio="none" style="width:851px;height:493px;background:#FFFFFF;" version="1.1" viewBox="0 0 851 493" width="851px" zoomAndPan="magnify"><defs/><g><!--cluster <<system>> PURIS FOSS Backend--><g id="cluster_&lt;&lt;system&gt;&gt; PURIS FOSS Backend"><path d="M133,64 L377,64 A3.75,3.75 0 0 1 379.5,66.5 L386.5,86.2969 L613,86.2969 A2.5,2.5 0 0 1 615.5,88.7969 L615.5,389.5 A2.5,2.5 0 0 1 613,392 L133,392 A2.5,2.5 0 0 1 130.5,389.5 L130.5,66.5 A2.5,2.5 0 0 1 133,64 " fill="none" style="stroke:#000000;stroke-width:1.5;"/><line style="stroke:#000000;stroke-width:1.5;" x1="130.5" x2="386.5" y1="86.2969" y2="86.2969"/><text fill="#000000" font-family="sans-serif" font-size="14" font-weight="bold" lengthAdjust="spacing" textLength="243" x="134.5" y="78.9951">&#171;system&#187; PURIS FOSS Backend</text></g><!--entity dtr--><g id="elem_dtr"><rect fill="#F1F1F1" height="46.2969" rx="2.5" ry="2.5" style="stroke:#181818;stroke-width:0.5;" width="70" x="227.5" y="99"/><rect fill="#F1F1F1" height="10" style="stroke:#181818;stroke-width:0.5;" width="15" x="277.5" y="104"/><rect fill="#F1F1F1" height="2" style="stroke:#181818;stroke-width:0.5;" width="4" x="275.5" y="106"/><rect fill="#F1F1F1" height="2" style="stroke:#181818;stroke-width:0.5;" width="4" x="275.5" y="110"/><text fill="#000000" font-family="sans-serif" font-size="14" lengthAdjust="spacing" textLength="30" x="242.5" y="131.9951">DTR</text></g><!--entity stock--><g id="elem_stock"><rect fill="#F1F1F1" height="78.8906" rx="2.5" ry="2.5" style="stroke:#181818;stroke-width:0.5;" width="233" x="146" y="201"/><rect fill="#F1F1F1" height="10" style="stroke:#181818;stroke-width:0.5;" width="15" x="359" y="206"/><rect fill="#F1F1F1" height="2" style="stroke:#181818;stroke-width:0.5;" width="4" x="357" y="208"/><rect fill="#F1F1F1" height="2" style="stroke:#181818;stroke-width:0.5;" width="4" x="357" y="212"/><text fill="#000000" font-family="sans-serif" font-size="14" lengthAdjust="spacing" textLength="193" x="161" y="233.9951">Stock, Production, Demand,</text><text fill="#000000" font-family="sans-serif" font-size="14" lengthAdjust="spacing" textLength="163" x="161" y="250.292">Delivery, Days of Supply</text><text fill="#000000" font-family="sans-serif" font-size="14" lengthAdjust="spacing" textLength="77" x="161" y="266.5889">Information</text></g><!--entity edc--><g id="elem_edc"><rect fill="#F1F1F1" height="46.2969" rx="2.5" ry="2.5" style="stroke:#181818;stroke-width:0.5;" width="70" x="529.5" y="217.5"/><rect fill="#F1F1F1" height="10" style="stroke:#181818;stroke-width:0.5;" width="15" x="579.5" y="222.5"/><rect fill="#F1F1F1" height="2" style="stroke:#181818;stroke-width:0.5;" width="4" x="577.5" y="224.5"/><rect fill="#F1F1F1" height="2" style="stroke:#181818;stroke-width:0.5;" width="4" x="577.5" y="228.5"/><text fill="#000000" font-family="sans-serif" font-size="14" lengthAdjust="spacing" textLength="30" x="544.5" y="250.4951">EDC</text></g><!--entity not--><g id="elem_not"><rect fill="#F1F1F1" height="46.2969" rx="2.5" ry="2.5" style="stroke:#181818;stroke-width:0.5;" width="124" x="468.5" y="330"/><rect fill="#F1F1F1" height="10" style="stroke:#181818;stroke-width:0.5;" width="15" x="572.5" y="335"/><rect fill="#F1F1F1" height="2" style="stroke:#181818;stroke-width:0.5;" width="4" x="570.5" y="337"/><rect fill="#F1F1F1" height="2" style="stroke:#181818;stroke-width:0.5;" width="4" x="570.5" y="341"/><text fill="#000000" font-family="sans-serif" font-size="14" lengthAdjust="spacing" textLength="84" x="483.5" y="362.9951">Notifications</text></g><!--entity mad--><g id="elem_mad"><rect fill="#F1F1F1" height="46.2969" rx="2.5" ry="2.5" style="stroke:#181818;stroke-width:0.5;" width="72" x="233.5" y="330"/><rect fill="#F1F1F1" height="10" style="stroke:#181818;stroke-width:0.5;" width="15" x="285.5" y="335"/><rect fill="#F1F1F1" height="2" style="stroke:#181818;stroke-width:0.5;" width="4" x="283.5" y="337"/><rect fill="#F1F1F1" height="2" style="stroke:#181818;stroke-width:0.5;" width="4" x="283.5" y="341"/><text fill="#000000" font-family="sans-serif" font-size="14" lengthAdjust="spacing" textLength="32" x="248.5" y="362.9951">MAD</text></g><!--entity mad_interface--><g id="elem_mad_interface"><ellipse cx="269.5" cy="455" fill="#F1F1F1" rx="8" ry="8" style="stroke:#181818;stroke-width:0.5;"/><text fill="#000000" font-family="sans-serif" font-size="14" lengthAdjust="spacing" textLength="96" x="221.5" y="484.9951">MAD Interface</text></g><!--entity dtr_interface--><g id="elem_dtr_interface"><ellipse cx="113.5" cy="14" fill="#F1F1F1" rx="8" ry="8" style="stroke:#181818;stroke-width:0.5;"/><text fill="#000000" font-family="sans-serif" font-size="14" lengthAdjust="spacing" textLength="215" x="6" y="43.9951">Registry &amp; Discovery Interfaces</text></g><!--entity oauth--><g id="elem_oauth"><ellipse cx="412.5" cy="14" fill="#F1F1F1" rx="8" ry="8" style="stroke:#181818;stroke-width:0.5;"/><text fill="#000000" font-family="sans-serif" font-size="14" lengthAdjust="spacing" textLength="52" x="386.5" y="43.9951">OAuth2</text></g><!--entity edc_interface--><g id="elem_edc_interface"><ellipse cx="758.5" cy="240.5" fill="#F1F1F1" rx="8" ry="8" style="stroke:#181818;stroke-width:0.5;"/><text fill="#000000" font-family="sans-serif" font-size="14" lengthAdjust="spacing" textLength="150" x="683.5" y="270.4951">EDC Management API</text></g><!--entity not_interface--><g id="elem_not_interface"><ellipse cx="751.5" cy="353" fill="#F1F1F1" rx="8" ry="8" style="stroke:#181818;stroke-width:0.5;"/><text fill="#000000" font-family="sans-serif" font-size="14" lengthAdjust="spacing" textLength="140" x="681.5" y="382.9951">Notification Interface</text></g><!--entity data_interface--><g id="elem_data_interface"><ellipse cx="741.5" cy="122" fill="#F1F1F1" rx="8" ry="8" style="stroke:#181818;stroke-width:0.5;"/><text fill="#000000" font-family="sans-serif" font-size="14" lengthAdjust="spacing" textLength="205" x="639" y="151.9951">Submodel &amp; internal interface</text></g><!--link dtr_interface to dtr--><g id="link_dtr_interface_dtr"><path d="M122.82,21.63 C144.1,36.77 197.06,74.44 231.31,98.81 " fill="none" id="dtr_interface-dtr" style="stroke:#181818;stroke-width:1.0;"/></g><!--reverse link oauth to dtr--><g id="link_oauth_dtr"><path d="M394.9526,27.4001 C373.5226,42.5401 328.38,74.44 293.9,98.81 " fill="none" id="oauth-backto-dtr" style="stroke:#181818;stroke-width:1.0;"/><path d="M395.726,16.4988 A9,9 0 0 0 405.4859 30.3135" fill="none" style="stroke:#181818;stroke-width:1.5;"/></g><!--link edc to not--><g id="link_edc_not"><path d="M557.7,263.6 C551.77,282.87 543.21,310.68 537.29,329.94 " fill="none" id="edc-not" style="stroke:#181818;stroke-width:1.0;"/><text fill="#000000" font-family="sans-serif" font-size="13" lengthAdjust="spacing" textLength="174" x="365.2869" y="283.7624">use edc for communication</text></g><!--link dtr to stock--><g id="link_dtr_stock"><path d="M262.5,145.19 C262.5,160.9 262.5,182.38 262.5,200.88 " fill="none" id="dtr-stock" style="stroke:#181818;stroke-width:1.0;"/><text fill="#000000" font-family="sans-serif" font-size="13" lengthAdjust="spacing" textLength="173" x="76.7953" y="174.9521">Register and discover twins</text><text fill="#000000" font-family="sans-serif" font-size="13" lengthAdjust="spacing" textLength="85" x="120.7953" y="190.0849">&amp; submodels</text></g><!--link data_interface to stock--><g id="link_data_interface_stock"><path d="M732.17,125.29 C704.94,131.98 627.5,151 627.5,151 C627.5,151 486.03,185.3 379.24,211.19 " fill="none" id="data_interface-stock" style="stroke:#181818;stroke-width:1.0;"/></g><!--link stock to edc--><g id="link_stock_edc"><path d="M379.34,240.5 C407.8,240.5 463.83,240.5 463.83,240.5 C463.83,240.5 500.26,240.5 529.29,240.5 " fill="none" id="stock-edc" style="stroke:#181818;stroke-width:1.0;"/><text fill="#000000" font-family="sans-serif" font-size="13" lengthAdjust="spacing" textLength="102" x="413.9087" y="221.2765">query catalog &amp;</text><text fill="#000000" font-family="sans-serif" font-size="13" lengthAdjust="spacing" textLength="113" x="408.4087" y="236.4093">get data (via edc)</text></g><!--link stock to mad--><g id="link_stock_mad"><path d="M264.95,280.15 C266,296.83 267.2,315.73 268.1,329.96 " fill="none" id="stock-mad" style="stroke:#181818;stroke-width:1.0;"/></g><!--link edc to edc_interface--><g id="link_edc_edc_interface"><path d="M599.86,240.5 C614.96,240.5 629.17,240.5 629.17,240.5 C629.17,240.5 693.83,240.5 693.83,240.5 C693.83,240.5 721.35,240.5 739.23,240.5 " fill="none" id="edc-to-edc_interface" style="stroke:#181818;stroke-width:1.0;"/><path d="M746.1518,232.0428 A9,9 0 0 0 746.1518 248.9572" fill="none" style="stroke:#181818;stroke-width:1.5;"/></g><!--link mad to mad_interface--><g id="link_mad_mad_interface"><path d="M269.5,376.19 C269.5,398.29 269.5,431.01 269.5,445.99 " fill="none" id="mad-mad_interface" style="stroke:#181818;stroke-width:1.0;"/></g><!--link mad to not--><g id="link_mad_not"><path d="M305.64,353 C329.54,353 356.5,353 356.5,353 C356.5,353 443.5,353 443.5,353 C443.5,353 454.25,353 468.2,353 " fill="none" id="mad-not" style="stroke:#181818;stroke-width:1.0;"/></g><!--link not to not_interface--><g id="link_not_not_interface"><path d="M592.66,353 C599.56,353 604.17,353 604.17,353 C604.17,353 677.83,353 677.83,353 C677.83,353 722.8,353 742.47,353 " fill="none" id="not-not_interface" style="stroke:#181818;stroke-width:1.0;"/></g><!--SRC=[NLB1Rjim3BthAmWVWWI8WQt0RaM1TDw07De6yNPQYeAp55U8HNcItC8Ozk-ZPBLDV37CH_BnyL7-fAb7XmOwJIgClOBUTcCCX7_FaPNAgnu-V_bqXZgaKqGP5CiL69HFce9oHsmKe8VYRbF1zWqfOeqCRbQpLwtsmOsmW4hxnhue_dzlygdBuX2UK_N3Xl-k4gXaCwFwLds5EoHibL4KOBFRfaAoOLPuRuC-wWQ3jZGNY05drVNms_3-7IjC2S8Ez4UJwB4vyKmehg_zw8CoDpUm-xdVrl3zeQxXbjEAPF5N281VrO_zOsHb8s9O1zkSrh1pLWvDbBE6IXaakJvGfJeTtM08Hm_s2FNGzzrue2qThJD9VYBpaINIiGC9O6zYUBwdJmds8YRuC2daaub_GbnUfPJsbSgaS39-TOO8Pe1ow4ie1g_Y860jq5XZ1igZYZG_ihvnvIih1xmQo7nd2A-Q_84MuBF5liYxpCwGQQPS-aBfTFiScFhF45yCJyREjh0uKAj2EYCiNpH6AQj9KEwRgEBcKNocMLu-9o4u3sLv-QOdCC-DJavcV01dfVy1]--></g></svg>