<?plantuml 1.2026.3beta3?><svg xmlns="http://www.w3.org/2000/svg" xmlns:xlink="http://www.w3.org/1999/xlink" contentStyleType="text/css" data-diagram-type="DESCRIPTION" height="501px" preserveAspectRatio="none" style="width:972px;height:501px;background:#FFFFFF;" version="1.1" viewBox="0 0 972 501" width="972px" zoomAndPan="magnify"><defs/><g><!--cluster <<system>> PURIS FOSS Backend--><g class="cluster" data-qualified-name="..system.. PURIS FOSS Backend" data-source-line="12" id="ent0008"><path d="M8.5,63.85 L255.3203,63.85 A3.75,3.75 0 0 1 257.8203,66.35 L264.8203,86.1469 L720.5,86.1469 A2.5,2.5 0 0 1 723,88.6469 L723,389.69 A2.5,2.5 0 0 1 720.5,392.19 L8.5,392.19 A2.5,2.5 0 0 1 6,389.69 L6,66.35 A2.5,2.5 0 0 1 8.5,63.85" fill="none" style="stroke:#000000;stroke-width:1.5;"/><line style="stroke:#000000;stroke-width:1.5;" x1="6" x2="264.8203" y1="86.1469" y2="86.1469"/><text fill="#000000" font-family="sans-serif" font-size="14" font-weight="bold" lengthAdjust="spacing" textLength="245.8203" x="10" y="78.8451">&#171;system&#187; PURIS FOSS Backend</text></g><!--entity dtr--><g class="entity" data-qualified-name="..system.. PURIS FOSS Backend.dtr" data-source-line="14" id="ent0009"><rect fill="#F1F1F1" height="46.2969" rx="2.5" ry="2.5" style="stroke:#181818;stroke-width:0.5;" width="69.0596" x="335.47" y="98.85"/><rect fill="#F1F1F1" height="10" style="stroke:#181818;stroke-width:0.5;" width="15" x="384.5296" y="103.85"/><rect fill="#F1F1F1" height="2" style="stroke:#181818;stroke-width:0.5;" width="4" x="382.5296" y="105.85"/><rect fill="#F1F1F1" height="2" style="stroke:#181818;stroke-width:0.5;" width="4" x="382.5296" y="109.85"/><text fill="#000000" font-family="sans-serif" font-size="14" lengthAdjust="spacing" textLength="29.0596" x="350.47" y="131.8451">DTR</text></g><!--entity stock--><g class="entity" data-qualified-name="..system.. PURIS FOSS Backend.stock" data-source-line="15" id="ent0010"><rect fill="#F1F1F1" height="78.8906" rx="2.5" ry="2.5" style="stroke:#181818;stroke-width:0.5;" width="235.4053" x="252.3" y="201"/><rect fill="#F1F1F1" height="10" style="stroke:#181818;stroke-width:0.5;" width="15" x="467.7053" y="206"/><rect fill="#F1F1F1" height="2" style="stroke:#181818;stroke-width:0.5;" width="4" x="465.7053" y="208"/><rect fill="#F1F1F1" height="2" style="stroke:#181818;stroke-width:0.5;" width="4" x="465.7053" y="212"/><text fill="#000000" font-family="sans-serif" font-size="14" lengthAdjust="spacing" textLength="195.4053" x="267.3" y="233.9951">Stock, Production, Demand,</text><text fill="#000000" font-family="sans-serif" font-size="14" lengthAdjust="spacing" textLength="172.0537" x="267.3" y="250.292">Delivery, Days of Supply</text><text fill="#000000" font-family="sans-serif" font-size="14" lengthAdjust="spacing" textLength="81.2861" x="267.3" y="266.5889">Information</text></g><!--entity batch--><g class="entity" data-qualified-name="..system.. PURIS FOSS Backend.batch" data-source-line="16" id="ent0011"><rect fill="#F1F1F1" height="46.2969" rx="2.5" ry="2.5" style="stroke:#181818;stroke-width:0.5;" width="80.2432" x="21.88" y="217.3"/><rect fill="#F1F1F1" height="10" style="stroke:#181818;stroke-width:0.5;" width="15" x="82.1232" y="222.3"/><rect fill="#F1F1F1" height="2" style="stroke:#181818;stroke-width:0.5;" width="4" x="80.1232" y="224.3"/><rect fill="#F1F1F1" height="2" style="stroke:#181818;stroke-width:0.5;" width="4" x="80.1232" y="228.3"/><text fill="#000000" font-family="sans-serif" font-size="14" lengthAdjust="spacing" textLength="40.2432" x="36.88" y="250.2951">Batch</text></g><!--entity edc--><g class="entity" data-qualified-name="..system.. PURIS FOSS Backend.edc" data-source-line="17" id="ent0012"><rect fill="#F1F1F1" height="46.2969" rx="2.5" ry="2.5" style="stroke:#181818;stroke-width:0.5;" width="69.4014" x="637.3" y="217.3"/><rect fill="#F1F1F1" height="10" style="stroke:#181818;stroke-width:0.5;" width="15" x="686.7014" y="222.3"/><rect fill="#F1F1F1" height="2" style="stroke:#181818;stroke-width:0.5;" width="4" x="684.7014" y="224.3"/><rect fill="#F1F1F1" height="2" style="stroke:#181818;stroke-width:0.5;" width="4" x="684.7014" y="228.3"/><text fill="#000000" font-family="sans-serif" font-size="14" lengthAdjust="spacing" textLength="29.4014" x="652.3" y="250.2951">EDC</text></g><!--entity not--><g class="entity" data-qualified-name="..system.. PURIS FOSS Backend.not" data-source-line="18" id="ent0013"><rect fill="#F1F1F1" height="46.2969" rx="2.5" ry="2.5" style="stroke:#181818;stroke-width:0.5;" width="127.623" x="567.19" y="329.89"/><rect fill="#F1F1F1" height="10" style="stroke:#181818;stroke-width:0.5;" width="15" x="674.813" y="334.89"/><rect fill="#F1F1F1" height="2" style="stroke:#181818;stroke-width:0.5;" width="4" x="672.813" y="336.89"/><rect fill="#F1F1F1" height="2" style="stroke:#181818;stroke-width:0.5;" width="4" x="672.813" y="340.89"/><text fill="#000000" font-family="sans-serif" font-size="14" lengthAdjust="spacing" textLength="87.623" x="582.19" y="362.8851">Notifications</text></g><!--entity mad--><g class="entity" data-qualified-name="..system.. PURIS FOSS Backend.mad" data-source-line="19" id="ent0014"><rect fill="#F1F1F1" height="46.2969" rx="2.5" ry="2.5" style="stroke:#181818;stroke-width:0.5;" width="72.4365" x="333.78" y="329.89"/><rect fill="#F1F1F1" height="10" style="stroke:#181818;stroke-width:0.5;" width="15" x="386.2165" y="334.89"/><rect fill="#F1F1F1" height="2" style="stroke:#181818;stroke-width:0.5;" width="4" x="384.2165" y="336.89"/><rect fill="#F1F1F1" height="2" style="stroke:#181818;stroke-width:0.5;" width="4" x="384.2165" y="340.89"/><text fill="#000000" font-family="sans-serif" font-size="14" lengthAdjust="spacing" textLength="32.4365" x="348.78" y="362.8851">MAD</text></g><!--entity mad_interface--><g class="entity" data-qualified-name="mad_interface" data-source-line="5" id="ent0002"><ellipse cx="370" cy="455.19" fill="#F1F1F1" rx="8" ry="8" style="stroke:#181818;stroke-width:0.5;"/><text fill="#000000" font-family="sans-serif" font-size="14" lengthAdjust="spacing" textLength="99.5654" x="320.2173" y="485.1851">MAD Interface</text></g><!--entity dtr_interface--><g class="entity" data-qualified-name="dtr_interface" data-source-line="6" id="ent0003"><ellipse cx="219" cy="14" fill="#F1F1F1" rx="8" ry="8" style="stroke:#181818;stroke-width:0.5;"/><text fill="#000000" font-family="sans-serif" font-size="14" lengthAdjust="spacing" textLength="221.3477" x="108.3262" y="43.9951">Registry &amp; Discovery Interfaces</text></g><!--entity oauth--><g class="entity" data-qualified-name="oauth" data-source-line="7" id="ent0004"><ellipse cx="521" cy="14" fill="#F1F1F1" rx="8" ry="8" style="stroke:#181818;stroke-width:0.5;"/><text fill="#000000" font-family="sans-serif" font-size="14" lengthAdjust="spacing" textLength="52.7393" x="494.6304" y="43.9951">OAuth2</text></g><!--entity edc_interface--><g class="entity" data-qualified-name="edc_interface" data-source-line="8" id="ent0005"><ellipse cx="866" cy="240.45" fill="#F1F1F1" rx="8" ry="8" style="stroke:#181818;stroke-width:0.5;"/><text fill="#000000" font-family="sans-serif" font-size="14" lengthAdjust="spacing" textLength="152.6738" x="789.6631" y="270.4451">EDC Management API</text></g><!--entity not_interface--><g class="entity" data-qualified-name="not_interface" data-source-line="9" id="ent0006"><ellipse cx="854" cy="353.04" fill="#F1F1F1" rx="8" ry="8" style="stroke:#181818;stroke-width:0.5;"/><text fill="#000000" font-family="sans-serif" font-size="14" lengthAdjust="spacing" textLength="147.458" x="780.271" y="383.0351">Notification Interface</text></g><!--entity data_interface--><g class="entity" data-qualified-name="data_interface" data-source-line="10" id="ent0007"><ellipse cx="852" cy="122" fill="#F1F1F1" rx="8" ry="8" style="stroke:#181818;stroke-width:0.5;"/><text fill="#000000" font-family="sans-serif" font-size="14" lengthAdjust="spacing" textLength="210.9092" x="746.5454" y="151.9951">Submodel &amp; internal interface</text></g><!--link dtr_interface to dtr--><g class="link" data-entity-1="ent0003" data-entity-2="ent0009" data-link-type="association" data-source-line="22" id="lnk15"><path d="M227.99,21.32 C249.14,36.16 302.85,73.86 337.82,98.41" fill="none" id="dtr_interface-dtr" style="stroke:#181818;stroke-width:1;"/></g><!--reverse link oauth to dtr--><g class="link" data-entity-1="ent0004" data-entity-2="ent0009" data-source-line="23" id="lnk16"><path d="M503.824,27.0637 C482.674,41.9037 437.15,73.86 402.18,98.41" fill="none" id="oauth-backto-dtr" style="stroke:#181818;stroke-width:1;"/><path d="M504.6326,16.165 A9,9 0 0 0 514.3478 30.0111" fill="none" style="stroke:#181818;stroke-width:1.5;"/></g><!--link edc to not--><g class="link" data-entity-1="ent0012" data-entity-2="ent0013" data-link-type="association" data-source-line="25" id="lnk18"><path d="M663.6,264.09 C656.53,283.18 646.46,310.35 639.38,329.42" fill="none" id="edc-not" style="stroke:#181818;stroke-width:1;"/><text fill="#000000" font-family="sans-serif" font-size="13" lengthAdjust="spacing" textLength="177.2139" x="683.1503" y="283.7638">use edc for communication</text></g><!--link dtr to stock--><g class="link" data-entity-1="ent0009" data-entity-2="ent0010" data-link-type="association" data-source-line="27" id="lnk19"><path d="M370,145.45 C370,161.05 370,182.24 370,200.55" fill="none" id="dtr-stock" style="stroke:#181818;stroke-width:1;"/><text fill="#000000" font-family="sans-serif" font-size="13" lengthAdjust="spacing" textLength="180.0894" x="177.3497" y="174.9159">Register and discover twins</text><text fill="#000000" font-family="sans-serif" font-size="13" lengthAdjust="spacing" textLength="84.7856" x="225.0015" y="190.0487">&amp; submodels</text></g><!--link data_interface to stock--><g class="link" data-entity-1="ent0007" data-entity-2="ent0010" data-link-type="association" data-source-line="28" id="lnk20"><path d="M843.22,125.12 C800.8,135.37 613.9,180.52 488.07,210.92" fill="none" id="data_interface-stock" style="stroke:#181818;stroke-width:1;"/></g><!--link batch to stock--><g class="link" data-entity-1="ent0011" data-entity-2="ent0010" data-link-type="association" data-source-line="29" id="lnk21"><path d="M102.58,240.45 C131.27,240.45 164.67,240.45 164.67,240.45 C164.67,240.45 223.63,240.45 252.18,240.45" fill="none" id="batch-stock" style="stroke:#181818;stroke-width:1;"/><text fill="#000000" font-family="sans-serif" font-size="13" lengthAdjust="spacing" textLength="96.2749" x="148.1546" y="221.797">trigger partner</text><text fill="#000000" font-family="sans-serif" font-size="13" lengthAdjust="spacing" textLength="79.2188" x="156.6827" y="236.9298">data update</text></g><!--link batch to mad--><g class="link" data-entity-1="ent0011" data-entity-2="ent0014" data-link-type="association" data-source-line="30" id="lnk22"><path d="M102.58,256.02 C163.02,277.72 275.76,318.2 333.65,338.99" fill="none" id="batch-mad" style="stroke:#181818;stroke-width:1;"/><text fill="#000000" font-family="sans-serif" font-size="13" lengthAdjust="spacing" textLength="70.5415" x="255.4317" y="333.573">query mad</text></g><!--link stock to edc--><g class="link" data-entity-1="ent0010" data-entity-2="ent0012" data-link-type="association" data-source-line="31" id="lnk23"><path d="M488.2,240.45 C517.04,240.45 571.33,240.45 571.33,240.45 C571.33,240.45 608,240.45 637.07,240.45" fill="none" id="stock-edc" style="stroke:#181818;stroke-width:1;"/><text fill="#000000" font-family="sans-serif" font-size="13" lengthAdjust="spacing" textLength="103.9238" x="519.545" y="221.1465">query catalog &amp;</text><text fill="#000000" font-family="sans-serif" font-size="13" lengthAdjust="spacing" textLength="115.8384" x="513.5877" y="236.2793">get data (via edc)</text></g><!--link stock to mad--><g class="link" data-entity-1="ent0010" data-entity-2="ent0014" data-link-type="association" data-source-line="32" id="lnk24"><path d="M370,280.13 C370,296.7 370,315.46 370,329.67" fill="none" id="stock-mad" style="stroke:#181818;stroke-width:1;"/></g><!--link edc to edc_interface--><g class="link" data-entity-1="ent0012" data-entity-2="ent0005" data-source-line="33" id="lnk25"><path d="M706.98,240.45 C722.22,240.45 736.67,240.45 736.67,240.45 C736.67,240.45 801.33,240.45 801.33,240.45 C801.33,240.45 828.85,240.45 846.73,240.45" fill="none" id="edc-to-edc_interface" style="stroke:#181818;stroke-width:1;"/><path d="M853.6518,231.9928 A9,9 0 0 0 853.6518 248.9072" fill="none" style="stroke:#181818;stroke-width:1.5;"/></g><!--link mad to mad_interface--><g class="link" data-entity-1="ent0014" data-entity-2="ent0002" data-link-type="association" data-source-line="35" id="lnk26"><path d="M370,376.27 C370,398.63 370,431.85 370,446.63" fill="none" id="mad-mad_interface" style="stroke:#181818;stroke-width:1;"/></g><!--link mad to not--><g class="link" data-entity-1="ent0014" data-entity-2="ent0013" data-link-type="association" data-source-line="36" id="lnk27"><path d="M406.64,353.04 C430.42,353.04 457,353.04 457,353.04 C457,353.04 544,353.04 544,353.04 C544,353.04 553.82,353.04 566.86,353.04" fill="none" id="mad-not" style="stroke:#181818;stroke-width:1;"/></g><!--link not to not_interface--><g class="link" data-entity-1="ent0013" data-entity-2="ent0006" data-link-type="association" data-source-line="38" id="lnk28"><path d="M695.31,353.04 C701.39,353.04 705.33,353.04 705.33,353.04 C705.33,353.04 779.67,353.04 779.67,353.04 C779.67,353.04 824.58,353.04 844.59,353.04" fill="none" id="not-not_interface" style="stroke:#181818;stroke-width:1;"/></g><?plantuml-src NLF1Rjim3BthAmWVWWI8WNN0RaM1T5w17Be6yNQQYq6r6KU8JNcMtC8OzkyZPRL9VBBqI3xoFShkPAZJlMwXCOH-x10wsunoKUuZHhP2XntSVFbqWVQQJe8og9OhQ7Nrsv37_g1B1EqWUTnai7r74icfV3_BsMDjdEz7M41cN6bVaSyVHIvKMJtuOyX-sl3fSm2nAcTKtxAlyAX9rzWYUTZijY6Hh9ybVhVU74oflR4q7r1xFSlEXvUMzJSyOGYGRi2SYrIdonFtXEJsretEOtjt1xkV-sqE3qzv3lSSHggIlqe1_Cf-x9-5bOsGQ-vjULh3hhVLKCeuQyYmrLIj2ygmCU86GtfqO0-G3rtNZ0LjwM3xDemVo9om2DszzkKnG2zo4eXD2G3R9TTBwIu4s1u9yAx2bRUe_YbrlQYqic-KXg6dNQmk4CKCa0vT2idWK1e1ZmUbRTk1Ogiaz1VMTwwuUEo1rK8LLm_-pP0hQ04kkkwIA6-scKWpnO9QI7jJ7prJUpxKJCRFr1Fs1Kaj31r_CBakYSFy6UJPiVOa611IpdnJb9NenjQmAAX67ruAB5-D5cchIM2icqY5ICo8DClh5wiKno5Dht-R2OnzPJEJkMVWdFeV?></g></svg>