<?xml version="1.0" encoding="us-ascii" standalone="no"?>
<svg xmlns="http://www.w3.org/2000/svg" contentStyleType="text/css" height="965px" preserveAspectRatio="none"
     style="width:955px;height:965px;background:#FFFFFF;" version="1.1" viewBox="0 0 955 965" width="955px"
     zoomAndPan="magnify"><defs/><g><rect fill="#DDDDDD" height="953.6953" style="stroke:#181818;stroke-width:0.5;" width="469.5" x="1" y="6"/><text fill="#000000" font-family="sans-serif" font-size="13" font-weight="bold" lengthAdjust="spacing" textLength="114" x="178.75" y="18.0669">Data Consumer</text><rect fill="#DDDDDD" height="953.6953" style="stroke:#181818;stroke-width:0.5;" width="276.5" x="577.5" y="6"/><text fill="#000000" font-family="sans-serif" font-size="13" font-weight="bold" lengthAdjust="spacing" textLength="101" x="665.25" y="18.0669">Data Provider</text><rect fill="#FFFFFF" height="58.2656" style="stroke:#181818;stroke-width:1.0;" width="10" x="418" y="194.7813"/><rect fill="#FFFFFF" height="58.2656" style="stroke:#181818;stroke-width:1.0;" width="10" x="418" y="339.4453"/><rect fill="#FFFFFF" height="58.2656" style="stroke:#181818;stroke-width:1.0;" width="10" x="418" y="426.8438"/><rect fill="#FFFFFF" height="58.2656" style="stroke:#181818;stroke-width:1.0;" width="10" x="418" y="514.2422"/><rect fill="#FFFFFF" height="120.6641" style="stroke:#181818;stroke-width:1.0;" width="10" x="613" y="770.4375"/><rect fill="#FFFFFF" height="29.1328" style="stroke:#181818;stroke-width:1.0;" width="10" x="764" y="832.8359"/><line style="stroke:#181818;stroke-width:0.5;stroke-dasharray:5.0,5.0;" x1="52" x2="52" y1="72.7266" y2="909.1016"/><line style="stroke:#181818;stroke-width:0.5;stroke-dasharray:5.0,5.0;" x1="422.5" x2="422.5" y1="72.7266" y2="909.1016"/><line style="stroke:#181818;stroke-width:0.5;stroke-dasharray:5.0,5.0;" x1="617.5" x2="617.5" y1="72.7266" y2="909.1016"/><line style="stroke:#181818;stroke-width:0.5;stroke-dasharray:5.0,5.0;" x1="769" x2="769" y1="72.7266" y2="909.1016"/><rect fill="#E2E2F0" height="46.5938" rx="2.5" ry="2.5" style="stroke:#181818;stroke-width:0.5;" width="94" x="5" y="25.1328"/><text fill="#000000" font-family="sans-serif" font-size="14" lengthAdjust="spacing" textLength="62" x="21" y="45.1279">Business</text><text fill="#000000" font-family="sans-serif" font-size="14" lengthAdjust="spacing" textLength="80" x="12" y="61.4248">Application</text><rect fill="#E2E2F0" height="46.5938" rx="2.5" ry="2.5" style="stroke:#181818;stroke-width:0.5;" width="94" x="5" y="908.1016"/><text fill="#000000" font-family="sans-serif" font-size="14" lengthAdjust="spacing" textLength="62" x="21" y="928.0967">Business</text><text fill="#000000" font-family="sans-serif" font-size="14" lengthAdjust="spacing" textLength="80" x="12" y="944.3936">Application</text><rect fill="#E2E2F0" height="46.5938" rx="2.5" ry="2.5" style="stroke:#181818;stroke-width:0.5;" width="87" x="379.5" y="25.1328"/><text fill="#000000" font-family="sans-serif" font-size="14" lengthAdjust="spacing" textLength="30" x="408" y="45.1279">EDC</text><text fill="#000000" font-family="sans-serif" font-size="14" lengthAdjust="spacing" textLength="73" x="386.5" y="61.4248">Consumer</text><rect fill="#E2E2F0" height="46.5938" rx="2.5" ry="2.5" style="stroke:#181818;stroke-width:0.5;" width="87" x="379.5" y="908.1016"/><text fill="#000000" font-family="sans-serif" font-size="14" lengthAdjust="spacing" textLength="30" x="408" y="928.0967">EDC</text><text fill="#000000" font-family="sans-serif" font-size="14" lengthAdjust="spacing" textLength="73" x="386.5" y="944.3936">Consumer</text><rect fill="#E2E2F0" height="46.5938" rx="2.5" ry="2.5" style="stroke:#181818;stroke-width:0.5;" width="73" x="581.5" y="25.1328"/><text fill="#000000" font-family="sans-serif" font-size="14" lengthAdjust="spacing" textLength="30" x="603" y="45.1279">EDC</text><text fill="#000000" font-family="sans-serif" font-size="14" lengthAdjust="spacing" textLength="59" x="588.5" y="61.4248">Provider</text><rect fill="#E2E2F0" height="46.5938" rx="2.5" ry="2.5" style="stroke:#181818;stroke-width:0.5;" width="73" x="581.5" y="908.1016"/><text fill="#000000" font-family="sans-serif" font-size="14" lengthAdjust="spacing" textLength="30" x="603" y="928.0967">EDC</text><text fill="#000000" font-family="sans-serif" font-size="14" lengthAdjust="spacing" textLength="59" x="588.5" y="944.3936">Provider</text><rect fill="#E2E2F0" height="46.5938" rx="2.5" ry="2.5" style="stroke:#181818;stroke-width:0.5;" width="162" x="688" y="25.1328"/><text fill="#000000" font-family="sans-serif" font-size="14" lengthAdjust="spacing" textLength="148" x="695" y="45.1279">Notification Endpoint</text><text fill="#000000" font-family="sans-serif" font-size="14" lengthAdjust="spacing" textLength="59" x="739.5" y="61.4248">Provider</text><rect fill="#E2E2F0" height="46.5938" rx="2.5" ry="2.5" style="stroke:#181818;stroke-width:0.5;" width="162" x="688" y="908.1016"/><text fill="#000000" font-family="sans-serif" font-size="14" lengthAdjust="spacing" textLength="148" x="695" y="928.0967">Notification Endpoint</text><text fill="#000000" font-family="sans-serif" font-size="14" lengthAdjust="spacing" textLength="59" x="739.5" y="944.3936">Provider</text><rect fill="#FFFFFF" height="58.2656" style="stroke:#181818;stroke-width:1.0;" width="10" x="418" y="194.7813"/><rect fill="#FFFFFF" height="58.2656" style="stroke:#181818;stroke-width:1.0;" width="10" x="418" y="339.4453"/><rect fill="#FFFFFF" height="58.2656" style="stroke:#181818;stroke-width:1.0;" width="10" x="418" y="426.8438"/><rect fill="#FFFFFF" height="58.2656" style="stroke:#181818;stroke-width:1.0;" width="10" x="418" y="514.2422"/><rect fill="#FFFFFF" height="120.6641" style="stroke:#181818;stroke-width:1.0;" width="10" x="613" y="770.4375"/><rect fill="#FFFFFF" height="29.1328" style="stroke:#181818;stroke-width:1.0;" width="10" x="764" y="832.8359"/><rect fill="#EEEEEE" height="3" style="stroke:#EEEEEE;stroke-width:1.0;" width="948" x="0" y="105.6211"/><line style="stroke:#000000;stroke-width:1.0;" x1="0" x2="948" y1="105.6211" y2="105.6211"/><line style="stroke:#000000;stroke-width:1.0;" x1="0" x2="948" y1="108.6211" y2="108.6211"/><rect fill="#EEEEEE" height="27.7891" style="stroke:#000000;stroke-width:2.0;" width="255" x="346.5" y="92.7266"/><text fill="#000000" font-family="sans-serif" font-size="17" font-weight="bold" lengthAdjust="spacing" textLength="241" x="352.5" y="112.5063">Send Message to Partner</text><rect fill="#EEEEEE" height="3" style="stroke:#EEEEEE;stroke-width:1.0;" width="948" x="0" y="151.082"/><line style="stroke:#000000;stroke-width:1.0;" x1="0" x2="948" y1="151.082" y2="151.082"/><line style="stroke:#000000;stroke-width:1.0;" x1="0" x2="948" y1="154.082" y2="154.082"/><rect fill="#EEEEEE" height="23.1328" style="stroke:#000000;stroke-width:2.0;" width="272" x="338" y="140.5156"/><text fill="#000000" font-family="sans-serif" font-size="13" font-weight="bold" lengthAdjust="spacing" textLength="253" x="344" y="156.5825">Contract Message Endpoint Usage</text><polygon fill="#181818" points="406,190.7813,416,194.7813,406,198.7813,410,194.7813" style="stroke:#181818;stroke-width:1.0;"/><line style="stroke:#181818;stroke-width:1.0;" x1="52" x2="412" y1="194.7813" y2="194.7813"/><text fill="#000000" font-family="sans-serif" font-size="13" font-weight="bold" lengthAdjust="spacing" textLength="9" x="99" y="189.7153">1</text><text fill="#000000" font-family="sans-serif" font-size="13" lengthAdjust="spacing" textLength="259" x="112" y="189.7153">search for Notification assets at partner</text><polygon fill="#181818" points="439,219.9141,429,223.9141,439,227.9141,435,223.9141" style="stroke:#181818;stroke-width:1.0;"/><polygon fill="#181818" points="606,219.9141,616,223.9141,606,227.9141,610,223.9141" style="stroke:#181818;stroke-width:1.0;"/><line style="stroke:#181818;stroke-width:1.0;" x1="433" x2="612" y1="223.9141" y2="223.9141"/><text fill="#000000" font-family="sans-serif" font-size="13" font-weight="bold" lengthAdjust="spacing" textLength="9" x="440" y="218.8481">2</text><text fill="#000000" font-family="sans-serif" font-size="13" lengthAdjust="spacing" textLength="153" x="453" y="218.8481">catalog communication</text><polygon fill="#181818" points="63,249.0469,53,253.0469,63,257.0469,59,253.0469" style="stroke:#181818;stroke-width:1.0;"/><line style="stroke:#181818;stroke-width:1.0;stroke-dasharray:2.0,2.0;" x1="57" x2="422" y1="253.0469" y2="253.0469"/><text fill="#000000" font-family="sans-serif" font-size="13" font-weight="bold" lengthAdjust="spacing" textLength="9" x="207" y="247.981">3</text><text fill="#000000" font-family="sans-serif" font-size="13" lengthAdjust="spacing" textLength="48" x="220" y="247.981">catalog</text><line style="stroke:#181818;stroke-width:1.0;" x1="52" x2="94" y1="297.3125" y2="297.3125"/><line style="stroke:#181818;stroke-width:1.0;" x1="94" x2="94" y1="297.3125" y2="310.3125"/><line style="stroke:#181818;stroke-width:1.0;" x1="53" x2="94" y1="310.3125" y2="310.3125"/><polygon fill="#181818" points="63,306.3125,53,310.3125,63,314.3125,59,310.3125" style="stroke:#181818;stroke-width:1.0;"/><text fill="#000000" font-family="sans-serif" font-size="13" font-weight="bold" lengthAdjust="spacing" textLength="9" x="59" y="284.6802">4</text><text fill="#000000" font-family="sans-serif" font-size="13" lengthAdjust="spacing" textLength="226" x="72" y="277.1138">identify Notification Endpoint offer</text><text fill="#000000" font-family="sans-serif" font-size="13" lengthAdjust="spacing" textLength="201" x="84.5" y="292.2466">(filter by dcat:type, cx:version)</text><polygon fill="#181818" points="406,335.4453,416,339.4453,406,343.4453,410,339.4453" style="stroke:#181818;stroke-width:1.0;"/><line style="stroke:#181818;stroke-width:1.0;" x1="52" x2="412" y1="339.4453" y2="339.4453"/><text fill="#000000" font-family="sans-serif" font-size="13" font-weight="bold" lengthAdjust="spacing" textLength="9" x="66" y="334.3794">5</text><text fill="#000000" font-family="sans-serif" font-size="13" lengthAdjust="spacing" textLength="325" x="79" y="334.3794">negotiate contract for Notification Endpoint usage</text><polygon fill="#181818" points="439,364.5781,429,368.5781,439,372.5781,435,368.5781" style="stroke:#181818;stroke-width:1.0;"/><polygon fill="#181818" points="606,364.5781,616,368.5781,606,372.5781,610,368.5781" style="stroke:#181818;stroke-width:1.0;"/><line style="stroke:#181818;stroke-width:1.0;" x1="433" x2="612" y1="368.5781" y2="368.5781"/><text fill="#000000" font-family="sans-serif" font-size="13" font-weight="bold" lengthAdjust="spacing" textLength="9" x="479.5" y="363.5122">6</text><text fill="#000000" font-family="sans-serif" font-size="13" lengthAdjust="spacing" textLength="74" x="492.5" y="363.5122">negotiation</text><polygon fill="#181818" points="63,393.7109,53,397.7109,63,401.7109,59,397.7109" style="stroke:#181818;stroke-width:1.0;"/><line style="stroke:#181818;stroke-width:1.0;stroke-dasharray:2.0,2.0;" x1="57" x2="422" y1="397.7109" y2="397.7109"/><text fill="#000000" font-family="sans-serif" font-size="13" font-weight="bold" lengthAdjust="spacing" textLength="9" x="91.5" y="392.645">7</text><text fill="#000000" font-family="sans-serif" font-size="13" lengthAdjust="spacing" textLength="279" x="104.5" y="392.645">contract agreement (contractAgreementId)</text><polygon fill="#181818" points="406,422.8438,416,426.8438,406,430.8438,410,426.8438" style="stroke:#181818;stroke-width:1.0;"/><line style="stroke:#181818;stroke-width:1.0;" x1="52" x2="412" y1="426.8438" y2="426.8438"/><text fill="#000000" font-family="sans-serif" font-size="13" font-weight="bold" lengthAdjust="spacing" textLength="9" x="173" y="421.7778">8</text><text fill="#000000" font-family="sans-serif" font-size="13" lengthAdjust="spacing" textLength="111" x="186" y="421.7778">initialize transfer</text><polygon fill="#181818" points="439,451.9766,429,455.9766,439,459.9766,435,455.9766" style="stroke:#181818;stroke-width:1.0;"/><polygon fill="#181818" points="606,451.9766,616,455.9766,606,459.9766,610,455.9766" style="stroke:#181818;stroke-width:1.0;"/><line style="stroke:#181818;stroke-width:1.0;" x1="433" x2="612" y1="455.9766" y2="455.9766"/><text fill="#000000" font-family="sans-serif" font-size="13" font-weight="bold" lengthAdjust="spacing" textLength="9" x="461" y="450.9106">9</text><text fill="#000000" font-family="sans-serif" font-size="13" lengthAdjust="spacing" textLength="111" x="474" y="450.9106">initialize transfer</text><polygon fill="#181818" points="63,481.1094,53,485.1094,63,489.1094,59,485.1094" style="stroke:#181818;stroke-width:1.0;"/><line style="stroke:#181818;stroke-width:1.0;stroke-dasharray:2.0,2.0;" x1="57" x2="422" y1="485.1094" y2="485.1094"/><text fill="#000000" font-family="sans-serif" font-size="13" font-weight="bold" lengthAdjust="spacing" textLength="18" x="101" y="480.0435">10</text><text fill="#000000" font-family="sans-serif" font-size="13" lengthAdjust="spacing" textLength="251" x="123" y="480.0435">transfer completed (transferProcessId)</text><polygon fill="#181818" points="406,510.2422,416,514.2422,406,518.2422,410,514.2422" style="stroke:#181818;stroke-width:1.0;"/><line style="stroke:#181818;stroke-width:1.0;" x1="52" x2="412" y1="514.2422" y2="514.2422"/><text fill="#000000" font-family="sans-serif" font-size="13" font-weight="bold" lengthAdjust="spacing" textLength="18" x="128.5" y="509.1763">11</text><text fill="#000000" font-family="sans-serif" font-size="13" lengthAdjust="spacing" textLength="191" x="150.5" y="509.1763">get EDR for transferProcessId</text><polygon fill="#181818" points="439,539.375,429,543.375,439,547.375,435,543.375" style="stroke:#181818;stroke-width:1.0;"/><polygon fill="#181818" points="606,539.375,616,543.375,606,547.375,610,543.375" style="stroke:#181818;stroke-width:1.0;"/><line style="stroke:#181818;stroke-width:1.0;" x1="433" x2="612" y1="543.375" y2="543.375"/><text fill="#000000" font-family="sans-serif" font-size="13" font-weight="bold" lengthAdjust="spacing" textLength="18" x="447.5" y="538.3091">12</text><text fill="#000000" font-family="sans-serif" font-size="13" lengthAdjust="spacing" textLength="129" x="469.5" y="538.3091">get EDR for transfer</text><polygon fill="#181818" points="63,568.5078,53,572.5078,63,576.5078,59,572.5078" style="stroke:#181818;stroke-width:1.0;"/><line style="stroke:#181818;stroke-width:1.0;stroke-dasharray:2.0,2.0;" x1="57" x2="422" y1="572.5078" y2="572.5078"/><text fill="#000000" font-family="sans-serif" font-size="13" font-weight="bold" lengthAdjust="spacing" textLength="18" x="175" y="567.4419">13</text><text fill="#000000" font-family="sans-serif" font-size="13" lengthAdjust="spacing" textLength="103" x="197" y="567.4419">EDR (refreshed)</text><rect fill="#EEEEEE" height="3" style="stroke:#EEEEEE;stroke-width:1.0;" width="948" x="0" y="601.0742"/><line style="stroke:#000000;stroke-width:1.0;" x1="0" x2="948" y1="601.0742" y2="601.0742"/><line style="stroke:#000000;stroke-width:1.0;" x1="0" x2="948" y1="604.0742" y2="604.0742"/><rect fill="#EEEEEE" height="23.1328" style="stroke:#000000;stroke-width:2.0;" width="311" x="318.5" y="590.5078"/><text fill="#000000" font-family="sans-serif" font-size="13" font-weight="bold" lengthAdjust="spacing" textLength="292" x="324.5" y="606.5747">Send Demand and Capacity Notification</text><line style="stroke:#181818;stroke-width:1.0;" x1="52" x2="94" y1="644.7734" y2="644.7734"/><line style="stroke:#181818;stroke-width:1.0;" x1="94" x2="94" y1="644.7734" y2="657.7734"/><line style="stroke:#181818;stroke-width:1.0;" x1="53" x2="94" y1="657.7734" y2="657.7734"/><polygon fill="#181818" points="63,653.7734,53,657.7734,63,661.7734,59,657.7734" style="stroke:#181818;stroke-width:1.0;"/><text fill="#000000" font-family="sans-serif" font-size="13" font-weight="bold" lengthAdjust="spacing" textLength="18" x="59" y="639.7075">14</text><text fill="#000000" font-family="sans-serif" font-size="13" lengthAdjust="spacing" textLength="335" x="81" y="639.7075">prepare demand and capacity notification message</text><path d="M9,670.7734 L9,710.7734 L465,710.7734 L465,680.7734 L455,670.7734 L9,670.7734 " fill="#FEFFDD" style="stroke:#181818;stroke-width:0.5;"/><path d="M455,670.7734 L455,680.7734 L465,680.7734 L455,670.7734 " fill="#FEFFDD" style="stroke:#181818;stroke-width:0.5;"/><text fill="#000000" font-family="sans-serif" font-size="13" lengthAdjust="spacing" textLength="165" x="139.75" y="687.8403">Send notification via EDC</text><text fill="#000000" font-family="sans-serif" font-size="13" lengthAdjust="spacing" textLength="186" x="139.75" y="702.9731">using EDR for authentication</text><polygon fill="#181818" points="601,766.4375,611,770.4375,601,774.4375,605,770.4375" style="stroke:#181818;stroke-width:1.0;"/><line style="stroke:#181818;stroke-width:1.0;" x1="52" x2="607" y1="770.4375" y2="770.4375"/><text fill="#000000" font-family="sans-serif" font-size="13" font-weight="bold" lengthAdjust="spacing" textLength="18" x="192" y="765.3716">15</text><text fill="#000000" font-family="sans-serif" font-size="13" lengthAdjust="spacing" textLength="259" x="214" y="765.3716">send message in body against endpoint</text><path d="M628,721.0391 L628,806.0391 L948,806.0391 L948,731.0391 L938,721.0391 L628,721.0391 " fill="#FEFFDD" style="stroke:#181818;stroke-width:0.5;"/><path d="M938,721.0391 L938,731.0391 L948,731.0391 L938,721.0391 " fill="#FEFFDD" style="stroke:#181818;stroke-width:0.5;"/><text fill="#000000" font-family="sans-serif" font-size="13" lengthAdjust="spacing" textLength="259" x="634" y="738.106">Accept or refuse message / notification.</text><text fill="#000000" font-family="sans-serif" font-size="13" lengthAdjust="spacing" textLength="267" x="634" y="753.2388">Notification may be one of the following:</text><text fill="#000000" font-family="sans-serif" font-size="13" lengthAdjust="spacing" textLength="36" x="634" y="768.3716">- new</text><text fill="#000000" font-family="sans-serif" font-size="13" lengthAdjust="spacing" textLength="295" x="634" y="783.5044">- update of a previously received message or</text><text fill="#000000" font-family="sans-serif" font-size="13" lengthAdjust="spacing" textLength="292" x="634" y="798.6372">- a closure of a previously received message</text><polygon fill="#181818" points="752,828.8359,762,832.8359,752,836.8359,756,832.8359" style="stroke:#181818;stroke-width:1.0;"/><line style="stroke:#181818;stroke-width:1.0;" x1="623" x2="758" y1="832.8359" y2="832.8359"/><text fill="#000000" font-family="sans-serif" font-size="13" font-weight="bold" lengthAdjust="spacing" textLength="18" x="632.5" y="827.77">16</text><text fill="#000000" font-family="sans-serif" font-size="13" lengthAdjust="spacing" textLength="100" x="654.5" y="827.77">proxy message</text><polygon fill="#181818" points="634,857.9688,624,861.9688,634,865.9688,630,861.9688" style="stroke:#181818;stroke-width:1.0;"/><line style="stroke:#181818;stroke-width:1.0;stroke-dasharray:2.0,2.0;" x1="628" x2="768" y1="861.9688" y2="861.9688"/><text fill="#000000" font-family="sans-serif" font-size="13" font-weight="bold" lengthAdjust="spacing" textLength="18" x="666.5" y="856.9028">17</text><text fill="#000000" font-family="sans-serif" font-size="13" lengthAdjust="spacing" textLength="37" x="688.5" y="856.9028">result</text><polygon fill="#181818" points="63,887.1016,53,891.1016,63,895.1016,59,891.1016" style="stroke:#181818;stroke-width:1.0;"/><line style="stroke:#181818;stroke-width:1.0;stroke-dasharray:2.0,2.0;" x1="57" x2="617" y1="891.1016" y2="891.1016"/><text fill="#000000" font-family="sans-serif" font-size="13" font-weight="bold" lengthAdjust="spacing" textLength="18" x="305.5" y="886.0356">18</text><text fill="#000000" font-family="sans-serif" font-size="13" lengthAdjust="spacing" textLength="37" x="327.5" y="886.0356">result</text><!--SRC=[bLJBRjim4BphAnO-EK3IteswW6ldq4EBe4Ll0OerjPA9IYJBXnFrwxkqHCho8u-3R8cSdPqTxXA3rogqMxA5-oELGOijEFeRI0dwHivXJQj6rWe4AS-eOgkVORP1Zx3MoeMMxApWC2-5DAWypBu49nL7FggLCOqKwALMCq07QCnlmK5J_Frc_QWoLyHHANeSgH8utt7I1wltiZnBUY39Uud4yC8KzrrxMGsQu5wLHalbJoALzdraJhzSBk5d_1eS0Q_XWMaLMLWkUJjwuIqAdn696tuTFXcLgeUxpxd21NkDLkoWqXOcsj0vycoP1zCdAfXTxj7JaJt32tmQAAFg1J03Dhe6eTisg85m1DynE6d9uAAaS_w9v364ZLAij8EBPeAkAhAFQbx9XXi6jXsK35dupj0jYEV5dgpZW9lYYYEAQkQDGaGozSoTd2n4TzzkJU9-oP2K56jBr7AfC4zhgxJqjRnvtR6n9AaaPstaF-uSYyfLxpdEIy5NjAVzUFIc8KybpDCQjxZWtdodyfeyt6z-74xWZEdjDLoYkLP4nCqjLPRSZgwfJGEveHRvBpvhD2YaFsdBay4RqnXBF5a4vSWW4eCwPcZxYIuANYNGtBwPvNPKT50pYTjBv5hMHRmEwrmz1h-BuvEcie-YC_jxtrpS7mHm8_1jL7RSc2YLyq334FJ2hAntlbW9GOPdq08x61pbu8yJSH-AYKajTh3bsXG_5R10bjeq-ec5Buexdfed_WscZ6V008pcxQKEhkauZo2vfr4cvsOqWcYq2_RrW2CFZi-vlu67b-XAkfRZqUddBeVdg7nlfvT3OurcSaE5nX_tqtZJvpoJ7haGaf3_0G00]--></g></svg>
