<?xml version="1.0" encoding="us-ascii" standalone="no"?><svg xmlns="http://www.w3.org/2000/svg" xmlns:xlink="http://www.w3.org/1999/xlink" contentStyleType="text/css" height="1229px" preserveAspectRatio="none" style="width:1258px;height:1229px;background:#FFFFFF;" version="1.1" viewBox="0 0 1258 1229" width="1258px" zoomAndPan="magnify"><defs/><g><rect fill="#DDDDDD" height="1217.7031" style="stroke:#181818;stroke-width:0.5;" width="133" x="120" y="6"/><text fill="#000000" font-family="sans-serif" font-size="13" font-weight="bold" lengthAdjust="spacing" textLength="33" x="170" y="18.0669">OEM</text><rect fill="#DDDDDD" height="1217.7031" style="stroke:#181818;stroke-width:0.5;" width="150" x="393.5" y="6"/><text fill="#000000" font-family="sans-serif" font-size="13" font-weight="bold" lengthAdjust="spacing" textLength="41" x="448" y="18.0669">Tier 1</text><rect fill="#DDDDDD" height="1217.7031" style="stroke:#181818;stroke-width:0.5;" width="226" x="632.5" y="6"/><text fill="#000000" font-family="sans-serif" font-size="13" font-weight="bold" lengthAdjust="spacing" textLength="41" x="725" y="18.0669">Tier 2</text><rect fill="#DDDDDD" height="1217.7031" style="stroke:#181818;stroke-width:0.5;" width="146" x="999.5" y="6"/><text fill="#000000" font-family="sans-serif" font-size="13" font-weight="bold" lengthAdjust="spacing" textLength="41" x="1052" y="18.0669">Tier 3</text><rect fill="#FFFFFF" height="544.9219" style="stroke:#181818;stroke-width:1.0;" width="10" x="181.5" y="437.4219"/><rect fill="#FFFFFF" height="116.5313" style="stroke:#181818;stroke-width:1.0;" width="10" x="425.5" y="320.8906"/><rect fill="#FFFFFF" height="58.2656" style="stroke:#181818;stroke-width:1.0;" width="10" x="425.5" y="924.0781"/><rect fill="#FFFFFF" height="217.0625" style="stroke:#181818;stroke-width:1.0;" width="10" x="501.5" y="379.1563"/><rect fill="#FFFFFF" height="29.1328" style="stroke:#181818;stroke-width:1.0;" width="10" x="501.5" y="1092.0078"/><rect fill="#FFFFFF" height="167.9297" style="stroke:#181818;stroke-width:1.0;" width="10" x="664.5" y="152.9609"/><rect fill="#FFFFFF" height="167.9297" style="stroke:#181818;stroke-width:1.0;" width="10" x="664.5" y="756.1484"/><rect fill="#FFFFFF" height="197.0625" style="stroke:#181818;stroke-width:1.0;" width="10" x="740.5" y="182.0938"/><rect fill="#FFFFFF" height="306.7266" style="stroke:#181818;stroke-width:1.0;" width="10" x="740.5" y="785.2813"/><rect fill="#FFFFFF" height="197.0625" style="stroke:#181818;stroke-width:1.0;" width="10" x="816.5" y="211.2266"/><rect fill="#FFFFFF" height="306.7266" style="stroke:#181818;stroke-width:1.0;" width="10" x="816.5" y="814.4141"/><rect fill="#FFFFFF" height="747.9844" style="stroke:#181818;stroke-width:1.0;" width="10" x="1067.5" y="66.4297"/><line style="stroke:#181818;stroke-width:0.5;stroke-dasharray:5.0,5.0;" x1="186" x2="186" y1="56.4297" y2="1189.4063"/><line style="stroke:#181818;stroke-width:0.5;stroke-dasharray:5.0,5.0;" x1="430.5" x2="430.5" y1="56.4297" y2="1189.4063"/><line style="stroke:#181818;stroke-width:0.5;stroke-dasharray:5.0,5.0;" x1="506.5" x2="506.5" y1="56.4297" y2="1189.4063"/><line style="stroke:#181818;stroke-width:0.5;stroke-dasharray:5.0,5.0;" x1="669.5" x2="669.5" y1="56.4297" y2="1189.4063"/><line style="stroke:#181818;stroke-width:0.5;stroke-dasharray:5.0,5.0;" x1="745.5" x2="745.5" y1="56.4297" y2="1189.4063"/><line style="stroke:#181818;stroke-width:0.5;stroke-dasharray:5.0,5.0;" x1="821.5" x2="821.5" y1="56.4297" y2="1189.4063"/><line style="stroke:#181818;stroke-width:0.5;stroke-dasharray:5.0,5.0;" x1="1072.5" x2="1072.5" y1="56.4297" y2="1189.4063"/><rect fill="#E2E2F0" height="30.2969" rx="2.5" ry="2.5" style="stroke:#181818;stroke-width:0.5;" width="125" x="124" y="25.1328"/><text fill="#000000" font-family="sans-serif" font-size="14" lengthAdjust="spacing" textLength="111" x="131" y="45.1279">OEM Application</text><rect fill="#E2E2F0" height="30.2969" rx="2.5" ry="2.5" style="stroke:#181818;stroke-width:0.5;" width="125" x="124" y="1188.4063"/><text fill="#000000" font-family="sans-serif" font-size="14" lengthAdjust="spacing" textLength="111" x="131" y="1208.4014">OEM Application</text><rect fill="#E2E2F0" height="30.2969" rx="2.5" ry="2.5" style="stroke:#181818;stroke-width:0.5;" width="66" x="397.5" y="25.1328"/><text fill="#000000" font-family="sans-serif" font-size="14" lengthAdjust="spacing" textLength="52" x="404.5" y="45.1279">Tier 1.1</text><rect fill="#E2E2F0" height="30.2969" rx="2.5" ry="2.5" style="stroke:#181818;stroke-width:0.5;" width="66" x="397.5" y="1188.4063"/><text fill="#000000" font-family="sans-serif" font-size="14" lengthAdjust="spacing" textLength="52" x="404.5" y="1208.4014">Tier 1.1</text><rect fill="#E2E2F0" height="30.2969" rx="2.5" ry="2.5" style="stroke:#181818;stroke-width:0.5;" width="66" x="473.5" y="25.1328"/><text fill="#000000" font-family="sans-serif" font-size="14" lengthAdjust="spacing" textLength="52" x="480.5" y="45.1279">Tier 1.2</text><rect fill="#E2E2F0" height="30.2969" rx="2.5" ry="2.5" style="stroke:#181818;stroke-width:0.5;" width="66" x="473.5" y="1188.4063"/><text fill="#000000" font-family="sans-serif" font-size="14" lengthAdjust="spacing" textLength="52" x="480.5" y="1208.4014">Tier 1.2</text><rect fill="#E2E2F0" height="30.2969" rx="2.5" ry="2.5" style="stroke:#181818;stroke-width:0.5;" width="66" x="636.5" y="25.1328"/><text fill="#000000" font-family="sans-serif" font-size="14" lengthAdjust="spacing" textLength="52" x="643.5" y="45.1279">Tier 2.1</text><rect fill="#E2E2F0" height="30.2969" rx="2.5" ry="2.5" style="stroke:#181818;stroke-width:0.5;" width="66" x="636.5" y="1188.4063"/><text fill="#000000" font-family="sans-serif" font-size="14" lengthAdjust="spacing" textLength="52" x="643.5" y="1208.4014">Tier 2.1</text><rect fill="#E2E2F0" height="30.2969" rx="2.5" ry="2.5" style="stroke:#181818;stroke-width:0.5;" width="66" x="712.5" y="25.1328"/><text fill="#000000" font-family="sans-serif" font-size="14" lengthAdjust="spacing" textLength="52" x="719.5" y="45.1279">Tier 2.2</text><rect fill="#E2E2F0" height="30.2969" rx="2.5" ry="2.5" style="stroke:#181818;stroke-width:0.5;" width="66" x="712.5" y="1188.4063"/><text fill="#000000" font-family="sans-serif" font-size="14" lengthAdjust="spacing" textLength="52" x="719.5" y="1208.4014">Tier 2.2</text><rect fill="#E2E2F0" height="30.2969" rx="2.5" ry="2.5" style="stroke:#181818;stroke-width:0.5;" width="66" x="788.5" y="25.1328"/><text fill="#000000" font-family="sans-serif" font-size="14" lengthAdjust="spacing" textLength="52" x="795.5" y="45.1279">Tier 2.3</text><rect fill="#E2E2F0" height="30.2969" rx="2.5" ry="2.5" style="stroke:#181818;stroke-width:0.5;" width="66" x="788.5" y="1188.4063"/><text fill="#000000" font-family="sans-serif" font-size="14" lengthAdjust="spacing" textLength="52" x="795.5" y="1208.4014">Tier 2.3</text><rect fill="#E2E2F0" height="30.2969" rx="2.5" ry="2.5" style="stroke:#181818;stroke-width:0.5;" width="138" x="1003.5" y="25.1328"/><text fill="#000000" font-family="sans-serif" font-size="14" lengthAdjust="spacing" textLength="124" x="1010.5" y="45.1279">Disruption Source</text><rect fill="#E2E2F0" height="30.2969" rx="2.5" ry="2.5" style="stroke:#181818;stroke-width:0.5;" width="138" x="1003.5" y="1188.4063"/><text fill="#000000" font-family="sans-serif" font-size="14" lengthAdjust="spacing" textLength="124" x="1010.5" y="1208.4014">Disruption Source</text><rect fill="#FFFFFF" height="544.9219" style="stroke:#181818;stroke-width:1.0;" width="10" x="181.5" y="437.4219"/><rect fill="#FFFFFF" height="116.5313" style="stroke:#181818;stroke-width:1.0;" width="10" x="425.5" y="320.8906"/><rect fill="#FFFFFF" height="58.2656" style="stroke:#181818;stroke-width:1.0;" width="10" x="425.5" y="924.0781"/><rect fill="#FFFFFF" height="217.0625" style="stroke:#181818;stroke-width:1.0;" width="10" x="501.5" y="379.1563"/><rect fill="#FFFFFF" height="29.1328" style="stroke:#181818;stroke-width:1.0;" width="10" x="501.5" y="1092.0078"/><rect fill="#FFFFFF" height="167.9297" style="stroke:#181818;stroke-width:1.0;" width="10" x="664.5" y="152.9609"/><rect fill="#FFFFFF" height="167.9297" style="stroke:#181818;stroke-width:1.0;" width="10" x="664.5" y="756.1484"/><rect fill="#FFFFFF" height="197.0625" style="stroke:#181818;stroke-width:1.0;" width="10" x="740.5" y="182.0938"/><rect fill="#FFFFFF" height="306.7266" style="stroke:#181818;stroke-width:1.0;" width="10" x="740.5" y="785.2813"/><rect fill="#FFFFFF" height="197.0625" style="stroke:#181818;stroke-width:1.0;" width="10" x="816.5" y="211.2266"/><rect fill="#FFFFFF" height="306.7266" style="stroke:#181818;stroke-width:1.0;" width="10" x="816.5" y="814.4141"/><rect fill="#FFFFFF" height="747.9844" style="stroke:#181818;stroke-width:1.0;" width="10" x="1067.5" y="66.4297"/><path d="M894,71.4297 L894,126.4297 L1251,126.4297 L1251,81.4297 L1241,71.4297 L894,71.4297 " fill="#FEFFDD" style="stroke:#181818;stroke-width:0.5;"/><path d="M1241,71.4297 L1241,81.4297 L1251,81.4297 L1241,71.4297 " fill="#FEFFDD" style="stroke:#181818;stroke-width:0.5;"/><text fill="#000000" font-family="sans-serif" font-size="13" lengthAdjust="spacing" textLength="270" x="900" y="88.4966">Source disruption occurs at tier 3 supplier.</text><text fill="#000000" font-family="sans-serif" font-size="13" lengthAdjust="spacing" textLength="319" x="900" y="103.6294">Disruption notifications are sent to tier 2 partners.</text><text fill="#000000" font-family="sans-serif" font-size="13" lengthAdjust="spacing" textLength="336" x="900" y="118.7622">All notifications share the same source disruption ID.</text><polygon fill="#181818" points="685.5,148.9609,675.5,152.9609,685.5,156.9609,681.5,152.9609" style="stroke:#181818;stroke-width:1.0;"/><line style="stroke:#181818;stroke-width:1.0;" x1="679.5" x2="1066.5" y1="152.9609" y2="152.9609"/><text fill="#000000" font-family="sans-serif" font-size="13" font-weight="bold" lengthAdjust="spacing" textLength="9" x="760" y="147.895">1</text><text fill="#000000" font-family="sans-serif" font-size="13" lengthAdjust="spacing" textLength="209" x="773" y="147.895">send initial disruption notification</text><polygon fill="#181818" points="761.5,178.0938,751.5,182.0938,761.5,186.0938,757.5,182.0938" style="stroke:#181818;stroke-width:1.0;"/><line style="stroke:#181818;stroke-width:1.0;" x1="755.5" x2="1066.5" y1="182.0938" y2="182.0938"/><text fill="#000000" font-family="sans-serif" font-size="13" font-weight="bold" lengthAdjust="spacing" textLength="9" x="798" y="177.0278">2</text><text fill="#000000" font-family="sans-serif" font-size="13" lengthAdjust="spacing" textLength="209" x="811" y="177.0278">send initial disruption notification</text><polygon fill="#181818" points="837.5,207.2266,827.5,211.2266,837.5,215.2266,833.5,211.2266" style="stroke:#181818;stroke-width:1.0;"/><line style="stroke:#181818;stroke-width:1.0;" x1="831.5" x2="1066.5" y1="211.2266" y2="211.2266"/><text fill="#000000" font-family="sans-serif" font-size="13" font-weight="bold" lengthAdjust="spacing" textLength="9" x="836" y="206.1606">3</text><text fill="#000000" font-family="sans-serif" font-size="13" lengthAdjust="spacing" textLength="209" x="849" y="206.1606">send initial disruption notification</text><path d="M582,224.2266 L582,294.2266 L909,294.2266 L909,234.2266 L899,224.2266 L582,224.2266 " fill="#FEFFDD" style="stroke:#181818;stroke-width:0.5;"/><path d="M899,224.2266 L899,234.2266 L909,234.2266 L899,224.2266 " fill="#FEFFDD" style="stroke:#181818;stroke-width:0.5;"/><text fill="#000000" font-family="sans-serif" font-size="13" lengthAdjust="spacing" textLength="294" x="588" y="241.2935">Tier 2 suppliers receive disruption notifications</text><text fill="#000000" font-family="sans-serif" font-size="13" lengthAdjust="spacing" textLength="125" x="588" y="256.4263">from tier 3 supplier.</text><text fill="#000000" font-family="sans-serif" font-size="13" lengthAdjust="spacing" textLength="306" x="588" y="271.5591">They should also forward the notification to their</text><text fill="#000000" font-family="sans-serif" font-size="13" lengthAdjust="spacing" textLength="98" x="588" y="286.6919">tier 1 suppliers.</text><polygon fill="#181818" points="446.5,316.8906,436.5,320.8906,446.5,324.8906,442.5,320.8906" style="stroke:#181818;stroke-width:1.0;"/><line style="stroke:#181818;stroke-width:1.0;" x1="440.5" x2="668.5" y1="320.8906" y2="320.8906"/><text fill="#000000" font-family="sans-serif" font-size="13" font-weight="bold" lengthAdjust="spacing" textLength="9" x="452" y="315.8247">4</text><text fill="#000000" font-family="sans-serif" font-size="13" lengthAdjust="spacing" textLength="188" x="465" y="315.8247">forward disruption notification</text><polygon fill="#181818" points="446.5,346.0234,436.5,350.0234,446.5,354.0234,442.5,350.0234" style="stroke:#181818;stroke-width:1.0;"/><line style="stroke:#181818;stroke-width:1.0;" x1="440.5" x2="739.5" y1="350.0234" y2="350.0234"/><text fill="#000000" font-family="sans-serif" font-size="13" font-weight="bold" lengthAdjust="spacing" textLength="9" x="487.5" y="344.9575">5</text><text fill="#000000" font-family="sans-serif" font-size="13" lengthAdjust="spacing" textLength="188" x="500.5" y="344.9575">forward disruption notification</text><polygon fill="#181818" points="522.5,375.1563,512.5,379.1563,522.5,383.1563,518.5,379.1563" style="stroke:#181818;stroke-width:1.0;"/><line style="stroke:#181818;stroke-width:1.0;" x1="516.5" x2="744.5" y1="379.1563" y2="379.1563"/><text fill="#000000" font-family="sans-serif" font-size="13" font-weight="bold" lengthAdjust="spacing" textLength="9" x="528" y="374.0903">6</text><text fill="#000000" font-family="sans-serif" font-size="13" lengthAdjust="spacing" textLength="188" x="541" y="374.0903">forward disruption notification</text><polygon fill="#181818" points="522.5,404.2891,512.5,408.2891,522.5,412.2891,518.5,408.2891" style="stroke:#181818;stroke-width:1.0;"/><line style="stroke:#181818;stroke-width:1.0;" x1="516.5" x2="820.5" y1="408.2891" y2="408.2891"/><text fill="#000000" font-family="sans-serif" font-size="13" font-weight="bold" lengthAdjust="spacing" textLength="9" x="566" y="403.2231">7</text><text fill="#000000" font-family="sans-serif" font-size="13" lengthAdjust="spacing" textLength="188" x="579" y="403.2231">forward disruption notification</text><polygon fill="#181818" points="202.5,433.4219,192.5,437.4219,202.5,441.4219,198.5,437.4219" style="stroke:#181818;stroke-width:1.0;"/><line style="stroke:#181818;stroke-width:1.0;" x1="196.5" x2="429.5" y1="437.4219" y2="437.4219"/><text fill="#000000" font-family="sans-serif" font-size="13" font-weight="bold" lengthAdjust="spacing" textLength="9" x="210.5" y="432.356">8</text><text fill="#000000" font-family="sans-serif" font-size="13" lengthAdjust="spacing" textLength="188" x="223.5" y="432.356">forward disruption notification</text><polygon fill="#181818" points="202.5,462.5547,192.5,466.5547,202.5,470.5547,198.5,466.5547" style="stroke:#181818;stroke-width:1.0;"/><line style="stroke:#181818;stroke-width:1.0;" x1="196.5" x2="500.5" y1="466.5547" y2="466.5547"/><text fill="#000000" font-family="sans-serif" font-size="13" font-weight="bold" lengthAdjust="spacing" textLength="9" x="246" y="461.4888">9</text><text fill="#000000" font-family="sans-serif" font-size="13" lengthAdjust="spacing" textLength="188" x="259" y="461.4888">forward disruption notification</text><path d="M53,479.5547 L53,519.5547 L320,519.5547 L320,489.5547 L310,479.5547 L53,479.5547 " fill="#FEFFDD" style="stroke:#181818;stroke-width:0.5;"/><path d="M310,479.5547 L310,489.5547 L320,489.5547 L310,479.5547 " fill="#FEFFDD" style="stroke:#181818;stroke-width:0.5;"/><text fill="#000000" font-family="sans-serif" font-size="13" lengthAdjust="spacing" textLength="246" x="59" y="496.6216">OEM receives 2 disruption notifications</text><text fill="#000000" font-family="sans-serif" font-size="13" lengthAdjust="spacing" textLength="134" x="59" y="511.7544">from Tier 1 suppliers.</text><path d="M254,529.8203 L254,569.8203 L606,569.8203 L606,539.8203 L596,529.8203 L254,529.8203 " fill="#FEFFDD" style="stroke:#181818;stroke-width:0.5;"/><path d="M596,529.8203 L596,539.8203 L606,539.8203 L596,529.8203 " fill="#FEFFDD" style="stroke:#181818;stroke-width:0.5;"/><text fill="#000000" font-family="sans-serif" font-size="13" lengthAdjust="spacing" textLength="331" x="260" y="546.8872">Tier 1.2 supplier resolves the disruption on their end</text><text fill="#000000" font-family="sans-serif" font-size="13" lengthAdjust="spacing" textLength="263" x="260" y="562.02">and resolves the notification for the OEM.</text><polygon fill="#181818" points="202.5,592.2188,192.5,596.2188,202.5,600.2188,198.5,596.2188" style="stroke:#181818;stroke-width:1.0;"/><line style="stroke:#181818;stroke-width:1.0;" x1="196.5" x2="505.5" y1="596.2188" y2="596.2188"/><text fill="#000000" font-family="sans-serif" font-size="13" font-weight="bold" lengthAdjust="spacing" textLength="18" x="244.5" y="591.1528">10</text><text fill="#000000" font-family="sans-serif" font-size="13" lengthAdjust="spacing" textLength="187" x="266.5" y="591.1528">resolve disruption notification</text><path d="M62,609.2188 L62,679.2188 L310,679.2188 L310,619.2188 L300,609.2188 L62,609.2188 " fill="#FEFFDD" style="stroke:#181818;stroke-width:0.5;"/><path d="M300,609.2188 L300,619.2188 L310,619.2188 L300,609.2188 " fill="#FEFFDD" style="stroke:#181818;stroke-width:0.5;"/><text fill="#000000" font-family="sans-serif" font-size="13" lengthAdjust="spacing" textLength="227" x="68" y="626.2856">OEM receives resolution notification</text><text fill="#000000" font-family="sans-serif" font-size="13" lengthAdjust="spacing" textLength="139" x="68" y="641.4185">from Tier 1.1 supplier.</text><text fill="#000000" font-family="sans-serif" font-size="13" lengthAdjust="spacing" textLength="216" x="68" y="656.5513">The disruption is partially resolved</text><text fill="#000000" font-family="sans-serif" font-size="13" lengthAdjust="spacing" textLength="219" x="68" y="671.6841">as Tier 1.2 supplier is still affected.</text><path d="M907,689.75 L907,729.75 L1237,729.75 L1237,699.75 L1227,689.75 L907,689.75 " fill="#FEFFDD" style="stroke:#181818;stroke-width:0.5;"/><path d="M1227,689.75 L1227,699.75 L1237,699.75 L1227,689.75 " fill="#FEFFDD" style="stroke:#181818;stroke-width:0.5;"/><text fill="#000000" font-family="sans-serif" font-size="13" lengthAdjust="spacing" textLength="274" x="913" y="706.8169">The disruption at tier 3 supplier is resolved.</text><text fill="#000000" font-family="sans-serif" font-size="13" lengthAdjust="spacing" textLength="309" x="913" y="721.9497">Tier 2 suppliers are notified about the resolution.</text><polygon fill="#181818" points="685.5,752.1484,675.5,756.1484,685.5,760.1484,681.5,756.1484" style="stroke:#181818;stroke-width:1.0;"/><line style="stroke:#181818;stroke-width:1.0;" x1="679.5" x2="1066.5" y1="756.1484" y2="756.1484"/><text fill="#000000" font-family="sans-serif" font-size="13" font-weight="bold" lengthAdjust="spacing" textLength="18" x="774" y="751.0825">11</text><text fill="#000000" font-family="sans-serif" font-size="13" lengthAdjust="spacing" textLength="172" x="796" y="751.0825">send resolution notification</text><polygon fill="#181818" points="761.5,781.2813,751.5,785.2813,761.5,789.2813,757.5,785.2813" style="stroke:#181818;stroke-width:1.0;"/><line style="stroke:#181818;stroke-width:1.0;" x1="755.5" x2="1066.5" y1="785.2813" y2="785.2813"/><text fill="#000000" font-family="sans-serif" font-size="13" font-weight="bold" lengthAdjust="spacing" textLength="18" x="812" y="780.2153">12</text><text fill="#000000" font-family="sans-serif" font-size="13" lengthAdjust="spacing" textLength="172" x="834" y="780.2153">send resolution notification</text><polygon fill="#181818" points="837.5,810.4141,827.5,814.4141,837.5,818.4141,833.5,814.4141" style="stroke:#181818;stroke-width:1.0;"/><line style="stroke:#181818;stroke-width:1.0;" x1="831.5" x2="1071.5" y1="814.4141" y2="814.4141"/><text fill="#000000" font-family="sans-serif" font-size="13" font-weight="bold" lengthAdjust="spacing" textLength="18" x="852.5" y="809.3481">13</text><text fill="#000000" font-family="sans-serif" font-size="13" lengthAdjust="spacing" textLength="172" x="874.5" y="809.3481">send resolution notification</text><path d="M548,827.4141 L548,897.4141 L942,897.4141 L942,837.4141 L932,827.4141 L548,827.4141 " fill="#FEFFDD" style="stroke:#181818;stroke-width:0.5;"/><path d="M932,827.4141 L932,837.4141 L942,837.4141 L932,827.4141 " fill="#FEFFDD" style="stroke:#181818;stroke-width:0.5;"/><text fill="#000000" font-family="sans-serif" font-size="13" lengthAdjust="spacing" textLength="294" x="554" y="844.481">Tier 2 suppliers receive resolution notifications</text><text fill="#000000" font-family="sans-serif" font-size="13" lengthAdjust="spacing" textLength="125" x="554" y="859.6138">from tier 3 supplier.</text><text fill="#000000" font-family="sans-serif" font-size="13" lengthAdjust="spacing" textLength="373" x="554" y="874.7466">They should also forward the resolution notification to their</text><text fill="#000000" font-family="sans-serif" font-size="13" lengthAdjust="spacing" textLength="98" x="554" y="889.8794">tier 1 suppliers.</text><polygon fill="#181818" points="446.5,920.0781,436.5,924.0781,446.5,928.0781,442.5,924.0781" style="stroke:#181818;stroke-width:1.0;"/><line style="stroke:#181818;stroke-width:1.0;" x1="440.5" x2="668.5" y1="924.0781" y2="924.0781"/><text fill="#000000" font-family="sans-serif" font-size="13" font-weight="bold" lengthAdjust="spacing" textLength="18" x="447.5" y="919.0122">14</text><text fill="#000000" font-family="sans-serif" font-size="13" lengthAdjust="spacing" textLength="188" x="469.5" y="919.0122">forward resolution notification</text><polygon fill="#181818" points="446.5,949.2109,436.5,953.2109,446.5,957.2109,442.5,953.2109" style="stroke:#181818;stroke-width:1.0;"/><line style="stroke:#181818;stroke-width:1.0;" x1="440.5" x2="739.5" y1="953.2109" y2="953.2109"/><text fill="#000000" font-family="sans-serif" font-size="13" font-weight="bold" lengthAdjust="spacing" textLength="18" x="483" y="948.145">15</text><text fill="#000000" font-family="sans-serif" font-size="13" lengthAdjust="spacing" textLength="188" x="505" y="948.145">forward resolution notification</text><polygon fill="#181818" points="197.5,978.3438,187.5,982.3438,197.5,986.3438,193.5,982.3438" style="stroke:#181818;stroke-width:1.0;"/><line style="stroke:#181818;stroke-width:1.0;" x1="191.5" x2="429.5" y1="982.3438" y2="982.3438"/><text fill="#000000" font-family="sans-serif" font-size="13" font-weight="bold" lengthAdjust="spacing" textLength="18" x="203.5" y="977.2778">16</text><text fill="#000000" font-family="sans-serif" font-size="13" lengthAdjust="spacing" textLength="188" x="225.5" y="977.2778">forward resolution notification</text><path d="M5,995.3438 L5,1065.3438 L368,1065.3438 L368,1005.3438 L358,995.3438 L5,995.3438 " fill="#FEFFDD" style="stroke:#181818;stroke-width:0.5;"/><path d="M358,995.3438 L358,1005.3438 L368,1005.3438 L358,995.3438 " fill="#FEFFDD" style="stroke:#181818;stroke-width:0.5;"/><text fill="#000000" font-family="sans-serif" font-size="13" lengthAdjust="spacing" textLength="227" x="11" y="1012.4106">OEM receives resolution notification</text><text fill="#000000" font-family="sans-serif" font-size="13" lengthAdjust="spacing" textLength="139" x="11" y="1027.5435">from Tier 1.1 supplier.</text><text fill="#000000" font-family="sans-serif" font-size="13" lengthAdjust="spacing" textLength="191" x="11" y="1042.6763">The disruption is fully resolved</text><text fill="#000000" font-family="sans-serif" font-size="13" lengthAdjust="spacing" textLength="342" x="11" y="1057.8091">as all tier 1 suppliers have resolved their notifications.</text><polygon fill="#181818" points="522.5,1088.0078,512.5,1092.0078,522.5,1096.0078,518.5,1092.0078" style="stroke:#181818;stroke-width:1.0;"/><line style="stroke:#181818;stroke-width:1.0;" x1="516.5" x2="744.5" y1="1092.0078" y2="1092.0078"/><text fill="#000000" font-family="sans-serif" font-size="13" font-weight="bold" lengthAdjust="spacing" textLength="18" x="523.5" y="1086.9419">17</text><text fill="#000000" font-family="sans-serif" font-size="13" lengthAdjust="spacing" textLength="188" x="545.5" y="1086.9419">forward resolution notification</text><polygon fill="#181818" points="517.5,1117.1406,507.5,1121.1406,517.5,1125.1406,513.5,1121.1406" style="stroke:#181818;stroke-width:1.0;"/><line style="stroke:#181818;stroke-width:1.0;" x1="511.5" x2="820.5" y1="1121.1406" y2="1121.1406"/><text fill="#000000" font-family="sans-serif" font-size="13" font-weight="bold" lengthAdjust="spacing" textLength="18" x="559" y="1116.0747">18</text><text fill="#000000" font-family="sans-serif" font-size="13" lengthAdjust="spacing" textLength="188" x="581" y="1116.0747">forward resolution notification</text><path d="M320,1134.1406 L320,1174.1406 L693,1174.1406 L693,1144.1406 L683,1134.1406 L320,1134.1406 " fill="#FEFFDD" style="stroke:#181818;stroke-width:0.5;"/><path d="M683,1134.1406 L683,1144.1406 L693,1144.1406 L683,1134.1406 " fill="#FEFFDD" style="stroke:#181818;stroke-width:0.5;"/><text fill="#000000" font-family="sans-serif" font-size="13" lengthAdjust="spacing" textLength="174" x="326" y="1151.2075">No further action is needed</text><text fill="#000000" font-family="sans-serif" font-size="13" lengthAdjust="spacing" textLength="352" x="326" y="1166.3403">as Tier 1.2 supplier has already resolved the disruption.</text><!--SRC=[jPLDZvim48Rl_0ehvnO9S-kXKgJjeOTj3yrzvS2mM2KszKVQ_FkE3IJ6G0hPxMMrcimyy-aNPeqKzdG4bUYVNBHCiHFHyCk2AE0Pj6Qli6_ugo0528DUoL7-8RllNvvt2JeRNl2M2UCjPD-s3I-OuLBi2DE4jUsBX5C2eYGOriSUE2YIHU6TCSskSIPxoMPTQEX2vzXqZar3Dfrbqv1DaJtdaeSk-LpwF4h_nBMohHiA-I6jAk162E9POVYP6HX-41B_bsVazOOkbfGtcYmAgv1aYF5vYRPk0Q3I9CY985xrMq5d1RXUBCl8BeeILwm0fTDatpIHkwvTWAanY9tmpwI6hq-fxy6LctILae-VhrF-v9ALX0jkE6l2m31FrBpRpWH57qJHAIf_43LP2XRwuVPZTo3N9MYYe01-XYM-JYebJzFT7MguuE2bRKh26Yr99TLlfag_XX3WTrW3LubdPBVKyKwmq6l_cTlAW5nglOIPbOmisR0a7F4szamKVQGYEgc83kpyhUmy6VePIAXZsq5PF3QdXaDTcyZHwJcEKzp-n3JUtVqhEonVI7JKhkP1Qg_-c4ZBnYLoHnXgaEXEa20kOOWSEOwk5LlqHgmxlizu6ZramvpfFoVacNRA2iQJPkDd6ERdsWibwaLp6Uh3ZZMPpWfTjU6efQoge31G1krETJtACrLpnniIfbELSGBTDGIe5qTfZP_ohTqr0hqqd0t2l1PnHv2N4F6wytUJveMC3qdp0kiTL7hjN1vHwSMrtTE_jGMvz97DlSl__rGh6pzJVBSaNW2fsN03wDKBsUWEmfTx_xkrVaVRlrjBxDaFrmfjzBPlUBrMOSzeAuQv2O1oITPgFqK5hBoCPXQCFXZNNm00]--></g></svg>