<?xml version="1.0" encoding="us-ascii" standalone="no"?>
<svg xmlns="http://www.w3.org/2000/svg" contentStyleType="text/css" height="938.4px" preserveAspectRatio="none"
     style="width:982px;height:938px;background:#FFFFFF;" version="1.1" viewBox="0 0 982 938" width="982.4px"
     zoomAndPan="magnify"><defs/><g><rect fill="#DDDDDD" height="929.1438" style="stroke:#181818;stroke-width:0.4000000000000001;" width="955.6" x="0.8" y="4.8"/><text fill="#000000" font-family="sans-serif" font-size="10.4" font-weight="bold" lengthAdjust="spacing" textLength="89.6" x="433.8" y="14.4535">PURIS backend</text><rect fill="#FFFFFF" height="106.1313" style="stroke:#181818;stroke-width:0.8000000000000002;" width="8" x="313.6" y="121.3188"/><rect fill="#FFFFFF" height="616.2063" style="stroke:#181818;stroke-width:0.8000000000000002;" width="8" x="446.8" y="262.8625"/><rect fill="#FFFFFF" height="206.5563" style="stroke:#181818;stroke-width:0.8000000000000002;" width="8" x="657.2" y="506.275"/><rect fill="#FFFFFF" height="23.3063" style="stroke:#181818;stroke-width:0.8000000000000002;" width="8" x="890.8" y="416.4063"/><rect fill="#FFFFFF" height="23.3063" style="stroke:#181818;stroke-width:0.8000000000000002;" width="8" x="890.8" y="821.2563"/><rect fill="none" height="71.625" style="stroke:#000000;stroke-width:1.2000000000000002;" width="204.8" x="247.2" y="133.3188"/><rect fill="none" height="502.1813" style="stroke:#000000;stroke-width:1.2000000000000002;" width="605.2" x="364" y="354.3813"/><rect fill="none" height="477.275" style="stroke:#000000;stroke-width:1.2000000000000002;" width="589.2" x="372" y="373.6875"/><rect fill="none" height="323.0875" style="stroke:#000000;stroke-width:1.2000000000000002;" width="514.8" x="380" y="463.5563"/><line style="stroke:#181818;stroke-width:0.4000000000000001;stroke-dasharray:5.0,5.0;" x1="60.8" x2="60.8" y1="58.1813" y2="893.4688"/><line style="stroke:#181818;stroke-width:0.4000000000000001;stroke-dasharray:5.0,5.0;" x1="186.4" x2="186.4" y1="58.1813" y2="893.4688"/><line style="stroke:#181818;stroke-width:0.4000000000000001;stroke-dasharray:5.0,5.0;" x1="317.6" x2="317.6" y1="58.1813" y2="893.4688"/><line style="stroke:#181818;stroke-width:0.4000000000000001;stroke-dasharray:5.0,5.0;" x1="450.4" x2="450.4" y1="58.1813" y2="893.4688"/><line style="stroke:#181818;stroke-width:0.4000000000000001;stroke-dasharray:5.0,5.0;" x1="661.2" x2="661.2" y1="58.1813" y2="893.4688"/><line style="stroke:#181818;stroke-width:0.4000000000000001;stroke-dasharray:5.0,5.0;" x1="894.8" x2="894.8" y1="58.1813" y2="893.4688"/><rect fill="#E2E2F0" height="24.2375" rx="2" ry="2" style="stroke:#181818;stroke-width:0.4000000000000001;" width="114.4" x="4" y="33.1438"/><text fill="#000000" font-family="sans-serif" font-size="11.2" lengthAdjust="spacing" textLength="103.2" x="9.6" y="49.1398">MaterialController</text><rect fill="#E2E2F0" height="24.2375" rx="2" ry="2" style="stroke:#181818;stroke-width:0.4000000000000001;" width="114.4" x="4" y="892.6688"/><text fill="#000000" font-family="sans-serif" font-size="11.2" lengthAdjust="spacing" textLength="103.2" x="9.6" y="908.6648">MaterialController</text><rect fill="#E2E2F0" height="37.275" rx="2" ry="2" style="stroke:#181818;stroke-width:0.4000000000000001;" width="120.8" x="126.4" y="20.1063"/><text fill="#000000" font-family="sans-serif" font-size="11.2" lengthAdjust="spacing" textLength="88" x="142.8" y="36.1023">MaterialPartner</text><text fill="#000000" font-family="sans-serif" font-size="11.2" lengthAdjust="spacing" textLength="109.6" x="132" y="49.1398">RelationsController</text><rect fill="#E2E2F0" height="37.275" rx="2" ry="2" style="stroke:#181818;stroke-width:0.4000000000000001;" width="120.8" x="126.4" y="892.6688"/><text fill="#000000" font-family="sans-serif" font-size="11.2" lengthAdjust="spacing" textLength="88" x="142.8" y="908.6648">MaterialPartner</text><text fill="#000000" font-family="sans-serif" font-size="11.2" lengthAdjust="spacing" textLength="109.6" x="132" y="921.7023">RelationsController</text><rect fill="#E2E2F0" height="24.2375" rx="2" ry="2" style="stroke:#181818;stroke-width:0.4000000000000001;" width="124.8" x="255.2" y="33.1438"/><text fill="#000000" font-family="sans-serif" font-size="11.2" lengthAdjust="spacing" textLength="113.6" x="260.8" y="49.1398">MaterialServiceImpl</text><rect fill="#E2E2F0" height="24.2375" rx="2" ry="2" style="stroke:#181818;stroke-width:0.4000000000000001;" width="124.8" x="255.2" y="892.6688"/><text fill="#000000" font-family="sans-serif" font-size="11.2" lengthAdjust="spacing" textLength="113.6" x="260.8" y="908.6648">MaterialServiceImpl</text><rect fill="#E2E2F0" height="37.275" rx="2" ry="2" style="stroke:#181818;stroke-width:0.4000000000000001;" width="125.6" x="388" y="20.1063"/><text fill="#000000" font-family="sans-serif" font-size="11.2" lengthAdjust="spacing" textLength="88" x="406.8" y="36.1023">MaterialPartner</text><text fill="#000000" font-family="sans-serif" font-size="11.2" lengthAdjust="spacing" textLength="114.4" x="393.6" y="49.1398">RelationServiceImpl</text><rect fill="#E2E2F0" height="37.275" rx="2" ry="2" style="stroke:#181818;stroke-width:0.4000000000000001;" width="125.6" x="388" y="892.6688"/><text fill="#000000" font-family="sans-serif" font-size="11.2" lengthAdjust="spacing" textLength="88" x="406.8" y="908.6648">MaterialPartner</text><text fill="#000000" font-family="sans-serif" font-size="11.2" lengthAdjust="spacing" textLength="114.4" x="393.6" y="921.7023">RelationServiceImpl</text><rect fill="#E2E2F0" height="24.2375" rx="2" ry="2" style="stroke:#181818;stroke-width:0.4000000000000001;" width="120" x="601.2" y="33.1438"/><text fill="#000000" font-family="sans-serif" font-size="11.2" lengthAdjust="spacing" textLength="108.8" x="606.8" y="49.1398">EdcAdapterService</text><rect fill="#E2E2F0" height="24.2375" rx="2" ry="2" style="stroke:#181818;stroke-width:0.4000000000000001;" width="120" x="601.2" y="892.6688"/><text fill="#000000" font-family="sans-serif" font-size="11.2" lengthAdjust="spacing" textLength="108.8" x="606.8" y="908.6648">EdcAdapterService</text><rect fill="#E2E2F0" height="24.2375" rx="2" ry="2" style="stroke:#181818;stroke-width:0.4000000000000001;" width="116.8" x="836.4" y="33.1438"/><text fill="#000000" font-family="sans-serif" font-size="11.2" lengthAdjust="spacing" textLength="105.6" x="842" y="49.1398">DtrAdapterService</text><rect fill="#E2E2F0" height="24.2375" rx="2" ry="2" style="stroke:#181818;stroke-width:0.4000000000000001;" width="116.8" x="836.4" y="892.6688"/><text fill="#000000" font-family="sans-serif" font-size="11.2" lengthAdjust="spacing" textLength="105.6" x="842" y="908.6648">DtrAdapterService</text><rect fill="#FFFFFF" height="106.1313" style="stroke:#181818;stroke-width:0.8000000000000002;" width="8" x="313.6" y="121.3188"/><rect fill="#FFFFFF" height="616.2063" style="stroke:#181818;stroke-width:0.8000000000000002;" width="8" x="446.8" y="262.8625"/><rect fill="#FFFFFF" height="206.5563" style="stroke:#181818;stroke-width:0.8000000000000002;" width="8" x="657.2" y="506.275"/><rect fill="#FFFFFF" height="23.3063" style="stroke:#181818;stroke-width:0.8000000000000002;" width="8" x="890.8" y="416.4063"/><rect fill="#FFFFFF" height="23.3063" style="stroke:#181818;stroke-width:0.8000000000000002;" width="8" x="890.8" y="821.2563"/><rect fill="#EEEEEE" height="2.4" style="stroke:#EEEEEE;stroke-width:0.8000000000000002;" width="977.2" x="0" y="84.4969"/><line style="stroke:#000000;stroke-width:0.8000000000000002;" x1="0" x2="977.2" y1="84.4969" y2="84.4969"/><line style="stroke:#000000;stroke-width:0.8000000000000002;" x1="0" x2="977.2" y1="86.8969" y2="86.8969"/><rect fill="#EEEEEE" height="22.2313" style="stroke:#000000;stroke-width:1.6000000000000003;" width="295.2" x="341" y="74.1813"/><text fill="#000000" font-family="sans-serif" font-size="13.6" font-weight="bold" lengthAdjust="spacing" textLength="284" x="345.8" y="90.0051">Create or Update Material or Product</text><polygon fill="#181818" points="304,118.1188,312,121.3188,304,124.5188,307.2,121.3188" style="stroke:#181818;stroke-width:0.8000000000000002;"/><line style="stroke:#181818;stroke-width:0.8000000000000002;" x1="61.2" x2="308.8" y1="121.3188" y2="121.3188"/><text fill="#000000" font-family="sans-serif" font-size="10.4" font-weight="bold" lengthAdjust="spacing" textLength="7.2" x="87" y="117.266">1</text><text fill="#000000" font-family="sans-serif" font-size="10.4" lengthAdjust="spacing" textLength="190.4" x="97.4" y="117.266">Create or Update Material or Product</text><path d="M247.2,133.3188 L298.4,133.3188 L298.4,139.025 L290.4,147.025 L247.2,147.025 L247.2,133.3188 " fill="#EEEEEE" style="stroke:#000000;stroke-width:1.2000000000000002;"/><rect fill="none" height="71.625" style="stroke:#000000;stroke-width:1.2000000000000002;" width="204.8" x="247.2" y="133.3188"/><text fill="#000000" font-family="sans-serif" font-size="10.4" font-weight="bold" lengthAdjust="spacing" textLength="15.2" x="259.2" y="143.7723">alt</text><text fill="#000000" font-family="sans-serif" font-size="8.8" font-weight="bold" lengthAdjust="spacing" textLength="137.6" x="310.4" y="143.0871">[create material or product]</text><line style="stroke:#181818;stroke-width:0.8000000000000002;" x1="321.6" x2="355.2" y1="188.1438" y2="188.1438"/><line style="stroke:#181818;stroke-width:0.8000000000000002;" x1="355.2" x2="355.2" y1="188.1438" y2="198.5438"/><line style="stroke:#181818;stroke-width:0.8000000000000002;" x1="322.4" x2="355.2" y1="198.5438" y2="198.5438"/><polygon fill="#181818" points="330.4,195.3438,322.4,198.5438,330.4,201.7438,327.2,198.5438" style="stroke:#181818;stroke-width:0.8000000000000002;"/><text fill="#000000" font-family="sans-serif" font-size="10.4" font-weight="bold" lengthAdjust="spacing" textLength="7.2" x="327.2" y="171.9848">2</text><text fill="#000000" font-family="sans-serif" font-size="10.4" lengthAdjust="spacing" textLength="88" x="341.6" y="159.8785">Generate or take</text><text fill="#000000" font-family="sans-serif" font-size="10.4" lengthAdjust="spacing" textLength="62.4" x="354.4" y="171.9848">Catena-X ID</text><text fill="#000000" font-family="sans-serif" font-size="10.4" lengthAdjust="spacing" textLength="96" x="337.6" y="184.091">(save on material)</text><polygon fill="#181818" points="70,224.25,62,227.45,70,230.65,66.8,227.45" style="stroke:#181818;stroke-width:0.8000000000000002;"/><line style="stroke:#181818;stroke-width:0.8000000000000002;stroke-dasharray:2.0,2.0;" x1="65.2" x2="316.8" y1="227.45" y2="227.45"/><text fill="#000000" font-family="sans-serif" font-size="10.4" font-weight="bold" lengthAdjust="spacing" textLength="7.2" x="176.6" y="223.3973">3</text><text fill="#000000" font-family="sans-serif" font-size="10.4" lengthAdjust="spacing" textLength="15.2" x="187" y="223.3973">OK</text><polygon fill="#181818" points="437.2,259.6625,445.2,262.8625,437.2,266.0625,440.4,262.8625" style="stroke:#181818;stroke-width:0.8000000000000002;"/><line style="stroke:#181818;stroke-width:0.8000000000000002;" x1="186.8" x2="442" y1="262.8625" y2="262.8625"/><text fill="#000000" font-family="sans-serif" font-size="10.4" font-weight="bold" lengthAdjust="spacing" textLength="7.2" x="227.2" y="252.7566">4</text><text fill="#000000" font-family="sans-serif" font-size="10.4" lengthAdjust="spacing" textLength="168.8" x="237.6" y="246.7035">Create or Updae MPR for partner</text><text fill="#000000" font-family="sans-serif" font-size="10.4" lengthAdjust="spacing" textLength="115.2" x="264.4" y="258.8098">and material / product</text><line style="stroke:#181818;stroke-width:0.8000000000000002;" x1="454.8" x2="488.4" y1="286.1688" y2="286.1688"/><line style="stroke:#181818;stroke-width:0.8000000000000002;" x1="488.4" x2="488.4" y1="286.1688" y2="296.5688"/><line style="stroke:#181818;stroke-width:0.8000000000000002;" x1="455.6" x2="488.4" y1="296.5688" y2="296.5688"/><polygon fill="#181818" points="463.6,293.3688,455.6,296.5688,463.6,299.7688,460.4,296.5688" style="stroke:#181818;stroke-width:0.8000000000000002;"/><text fill="#000000" font-family="sans-serif" font-size="10.4" font-weight="bold" lengthAdjust="spacing" textLength="7.2" x="460.4" y="282.116">5</text><text fill="#000000" font-family="sans-serif" font-size="10.4" lengthAdjust="spacing" textLength="141.6" x="470.8" y="282.116">Create DtrRegistrationTask</text><line style="stroke:#181818;stroke-width:0.8000000000000002;" x1="454.8" x2="488.4" y1="331.9813" y2="331.9813"/><line style="stroke:#181818;stroke-width:0.8000000000000002;" x1="488.4" x2="488.4" y1="331.9813" y2="342.3813"/><line style="stroke:#181818;stroke-width:0.8000000000000002;" x1="455.6" x2="488.4" y1="342.3813" y2="342.3813"/><polygon fill="#181818" points="463.6,339.1813,455.6,342.3813,463.6,345.5813,460.4,342.3813" style="stroke:#181818;stroke-width:0.8000000000000002;"/><text fill="#000000" font-family="sans-serif" font-size="10.4" font-weight="bold" lengthAdjust="spacing" textLength="7.2" x="460.4" y="321.8754">6</text><text fill="#000000" font-family="sans-serif" font-size="10.4" lengthAdjust="spacing" textLength="126.4" x="492" y="315.8223">Determine Partners who</text><text fill="#000000" font-family="sans-serif" font-size="10.4" lengthAdjust="spacing" textLength="168.8" x="470.8" y="327.9285">buy material and supply product</text><path d="M364,354.3813 L517.6,354.3813 L517.6,360.0875 L509.6,368.0875 L364,368.0875 L364,354.3813 " fill="#EEEEEE" style="stroke:#000000;stroke-width:1.2000000000000002;"/><rect fill="none" height="502.1813" style="stroke:#000000;stroke-width:1.2000000000000002;" width="605.2" x="364" y="354.3813"/><text fill="#000000" font-family="sans-serif" font-size="10.4" font-weight="bold" lengthAdjust="spacing" textLength="117.6" x="376" y="364.8348">DtrRegistrationTask</text><path d="M372,373.6875 L423.2,373.6875 L423.2,379.3938 L415.2,387.3938 L372,387.3938 L372,373.6875 " fill="#EEEEEE" style="stroke:#000000;stroke-width:1.2000000000000002;"/><rect fill="none" height="477.275" style="stroke:#000000;stroke-width:1.2000000000000002;" width="589.2" x="372" y="373.6875"/><text fill="#000000" font-family="sans-serif" font-size="10.4" font-weight="bold" lengthAdjust="spacing" textLength="15.2" x="384" y="384.141">alt</text><text fill="#000000" font-family="sans-serif" font-size="8.8" font-weight="bold" lengthAdjust="spacing" textLength="258.4" x="435.2" y="383.4559">[at least one Partner who buys (We're the supplier)]</text><polygon fill="#181818" points="881.2,413.2063,889.2,416.4063,881.2,419.6063,884.4,416.4063" style="stroke:#181818;stroke-width:0.8000000000000002;"/><line style="stroke:#181818;stroke-width:0.8000000000000002;" x1="454.8" x2="886" y1="416.4063" y2="416.4063"/><text fill="#000000" font-family="sans-serif" font-size="10.4" font-weight="bold" lengthAdjust="spacing" textLength="7.2" x="532.8" y="406.3004">7</text><text fill="#000000" font-family="sans-serif" font-size="10.4" lengthAdjust="spacing" textLength="269.6" x="543.2" y="400.2473">Create ShellDescriptor with access rights for buying</text><text fill="#000000" font-family="sans-serif" font-size="10.4" lengthAdjust="spacing" textLength="141.6" x="607.2" y="412.3535">partners and all submodels</text><polygon fill="#181818" points="463.6,436.5125,455.6,439.7125,463.6,442.9125,460.4,439.7125" style="stroke:#181818;stroke-width:0.8000000000000002;"/><line style="stroke:#181818;stroke-width:0.8000000000000002;stroke-dasharray:2.0,2.0;" x1="458.8" x2="894" y1="439.7125" y2="439.7125"/><text fill="#000000" font-family="sans-serif" font-size="10.4" font-weight="bold" lengthAdjust="spacing" textLength="7.2" x="662" y="435.6598">8</text><text fill="#000000" font-family="sans-serif" font-size="10.4" lengthAdjust="spacing" textLength="15.2" x="672.4" y="435.6598">OK</text><line style="stroke:#000000;stroke-width:0.8000000000000002;stroke-dasharray:2.0,2.0;" x1="372" x2="961.2" y1="446.9125" y2="446.9125"/><text fill="#000000" font-family="sans-serif" font-size="8.8" font-weight="bold" lengthAdjust="spacing" textLength="263.2" x="376" y="455.0809">[at least one Partner who sells (We're the customer)]</text><path d="M380,463.5563 L431.2,463.5563 L431.2,469.2625 L423.2,477.2625 L380,477.2625 L380,463.5563 " fill="#EEEEEE" style="stroke:#000000;stroke-width:1.2000000000000002;"/><rect fill="none" height="323.0875" style="stroke:#000000;stroke-width:1.2000000000000002;" width="514.8" x="380" y="463.5563"/><text fill="#000000" font-family="sans-serif" font-size="10.4" font-weight="bold" lengthAdjust="spacing" textLength="15.2" x="392" y="474.0098">alt</text><text fill="#000000" font-family="sans-serif" font-size="8.8" font-weight="bold" lengthAdjust="spacing" textLength="171.2" x="443.2" y="473.3246">[MPR does not yet have the CX-ID]</text><polygon fill="#181818" points="647.6,503.075,655.6,506.275,647.6,509.475,650.8,506.275" style="stroke:#181818;stroke-width:0.8000000000000002;"/><line style="stroke:#181818;stroke-width:0.8000000000000002;" x1="454.8" x2="652.4" y1="506.275" y2="506.275"/><text fill="#000000" font-family="sans-serif" font-size="10.4" font-weight="bold" lengthAdjust="spacing" textLength="7.2" x="471.2" y="496.1691">9</text><text fill="#000000" font-family="sans-serif" font-size="10.4" lengthAdjust="spacing" textLength="159.2" x="481.6" y="490.116">Lookup DigitalTwin at Supplier</text><text fill="#000000" font-family="sans-serif" font-size="10.4" lengthAdjust="spacing" textLength="116" x="503.2" y="502.2223">to extract Catena-X ID</text><line style="stroke:#181818;stroke-width:0.8000000000000002;" x1="665.2" x2="698.8" y1="529.5813" y2="529.5813"/><line style="stroke:#181818;stroke-width:0.8000000000000002;" x1="698.8" x2="698.8" y1="529.5813" y2="539.9813"/><line style="stroke:#181818;stroke-width:0.8000000000000002;" x1="666" x2="698.8" y1="539.9813" y2="539.9813"/><polygon fill="#181818" points="674,536.7813,666,539.9813,674,543.1813,670.8,539.9813" style="stroke:#181818;stroke-width:0.8000000000000002;"/><text fill="#000000" font-family="sans-serif" font-size="10.4" font-weight="bold" lengthAdjust="spacing" textLength="14.4" x="670.8" y="525.5285">10</text><text fill="#000000" font-family="sans-serif" font-size="10.4" lengthAdjust="spacing" textLength="132" x="688.4" y="525.5285">Lookup and Contract DTR</text><line style="stroke:#181818;stroke-width:0.8000000000000002;" x1="665.2" x2="698.8" y1="599.6063" y2="599.6063"/><line style="stroke:#181818;stroke-width:0.8000000000000002;" x1="698.8" x2="698.8" y1="599.6063" y2="610.0063"/><line style="stroke:#181818;stroke-width:0.8000000000000002;" x1="666" x2="698.8" y1="610.0063" y2="610.0063"/><polygon fill="#181818" points="674,606.8063,666,610.0063,674,613.2063,670.8,610.0063" style="stroke:#181818;stroke-width:0.8000000000000002;"/><text fill="#000000" font-family="sans-serif" font-size="10.4" font-weight="bold" lengthAdjust="spacing" textLength="14.4" x="670.8" y="577.3941">11</text><text fill="#000000" font-family="sans-serif" font-size="10.4" lengthAdjust="spacing" textLength="160" x="688.4" y="559.2348">Determine ShellDescriptor and</text><text fill="#000000" font-family="sans-serif" font-size="10.4" lengthAdjust="spacing" textLength="152" x="692.4" y="571.341">Submodel "DSP" Endpoint for</text><text fill="#000000" font-family="sans-serif" font-size="10.4" lengthAdjust="spacing" textLength="135.2" x="700.8" y="583.4473">PartTypeInformation from</text><text fill="#000000" font-family="sans-serif" font-size="10.4" lengthAdjust="spacing" textLength="62.4" x="737.2" y="595.5535">partner DTR</text><line style="stroke:#181818;stroke-width:0.8000000000000002;" x1="665.2" x2="698.8" y1="645.4188" y2="645.4188"/><line style="stroke:#181818;stroke-width:0.8000000000000002;" x1="698.8" x2="698.8" y1="645.4188" y2="655.8188"/><line style="stroke:#181818;stroke-width:0.8000000000000002;" x1="666" x2="698.8" y1="655.8188" y2="655.8188"/><polygon fill="#181818" points="674,652.6188,666,655.8188,674,659.0188,670.8,655.8188" style="stroke:#181818;stroke-width:0.8000000000000002;"/><text fill="#000000" font-family="sans-serif" font-size="10.4" font-weight="bold" lengthAdjust="spacing" textLength="14.4" x="670.8" y="635.3129">12</text><text fill="#000000" font-family="sans-serif" font-size="10.4" lengthAdjust="spacing" textLength="196.8" x="688.4" y="629.2598">Query PartTypeInformation Submodel</text><text fill="#000000" font-family="sans-serif" font-size="10.4" lengthAdjust="spacing" textLength="51.2" x="761.2" y="641.366">at partner</text><line style="stroke:#181818;stroke-width:0.8000000000000002;" x1="665.2" x2="698.8" y1="679.125" y2="679.125"/><line style="stroke:#181818;stroke-width:0.8000000000000002;" x1="698.8" x2="698.8" y1="679.125" y2="689.525"/><line style="stroke:#181818;stroke-width:0.8000000000000002;" x1="666" x2="698.8" y1="689.525" y2="689.525"/><polygon fill="#181818" points="674,686.325,666,689.525,674,692.725,670.8,689.525" style="stroke:#181818;stroke-width:0.8000000000000002;"/><text fill="#000000" font-family="sans-serif" font-size="10.4" font-weight="bold" lengthAdjust="spacing" textLength="14.4" x="670.8" y="675.0723">13</text><text fill="#000000" font-family="sans-serif" font-size="10.4" lengthAdjust="spacing" textLength="185.6" x="688.4" y="675.0723">Extract Catena-X ID from Submodel</text><polygon fill="#181818" points="463.6,709.6313,455.6,712.8313,463.6,716.0313,460.4,712.8313" style="stroke:#181818;stroke-width:0.8000000000000002;"/><line style="stroke:#181818;stroke-width:0.8000000000000002;stroke-dasharray:2.0,2.0;" x1="458.8" x2="660.4" y1="712.8313" y2="712.8313"/><text fill="#000000" font-family="sans-serif" font-size="10.4" font-weight="bold" lengthAdjust="spacing" textLength="14.4" x="518" y="708.7785">14</text><text fill="#000000" font-family="sans-serif" font-size="10.4" lengthAdjust="spacing" textLength="62.4" x="535.6" y="708.7785">Catena-X ID</text><line style="stroke:#181818;stroke-width:0.8000000000000002;" x1="454.8" x2="488.4" y1="736.1375" y2="736.1375"/><line style="stroke:#181818;stroke-width:0.8000000000000002;" x1="488.4" x2="488.4" y1="736.1375" y2="746.5375"/><line style="stroke:#181818;stroke-width:0.8000000000000002;" x1="455.6" x2="488.4" y1="746.5375" y2="746.5375"/><polygon fill="#181818" points="463.6,743.3375,455.6,746.5375,463.6,749.7375,460.4,746.5375" style="stroke:#181818;stroke-width:0.8000000000000002;"/><text fill="#000000" font-family="sans-serif" font-size="10.4" font-weight="bold" lengthAdjust="spacing" textLength="14.4" x="460.4" y="732.0848">15</text><text fill="#000000" font-family="sans-serif" font-size="10.4" lengthAdjust="spacing" textLength="123.2" x="478" y="732.0848">Set Partner Catena-X ID</text><line style="stroke:#181818;stroke-width:0.8000000000000002;" x1="454.8" x2="488.4" y1="769.8438" y2="769.8438"/><line style="stroke:#181818;stroke-width:0.8000000000000002;" x1="488.4" x2="488.4" y1="769.8438" y2="780.2438"/><line style="stroke:#181818;stroke-width:0.8000000000000002;" x1="455.6" x2="488.4" y1="780.2438" y2="780.2438"/><polygon fill="#181818" points="463.6,777.0438,455.6,780.2438,463.6,783.4438,460.4,780.2438" style="stroke:#181818;stroke-width:0.8000000000000002;"/><text fill="#000000" font-family="sans-serif" font-size="10.4" font-weight="bold" lengthAdjust="spacing" textLength="14.4" x="460.4" y="765.791">16</text><text fill="#000000" font-family="sans-serif" font-size="10.4" lengthAdjust="spacing" textLength="173.6" x="478" y="765.791">Save MaterialPartnerRelationship</text><polygon fill="#181818" points="881.2,818.0563,889.2,821.2563,881.2,824.4563,884.4,821.2563" style="stroke:#181818;stroke-width:0.8000000000000002;"/><line style="stroke:#181818;stroke-width:0.8000000000000002;" x1="454.8" x2="886" y1="821.2563" y2="821.2563"/><text fill="#000000" font-family="sans-serif" font-size="10.4" font-weight="bold" lengthAdjust="spacing" textLength="14.4" x="502.4" y="811.1504">17</text><text fill="#000000" font-family="sans-serif" font-size="10.4" lengthAdjust="spacing" textLength="323.2" x="520" y="805.0973">Create or Update ShellDescriptor with access rights for selling</text><text fill="#000000" font-family="sans-serif" font-size="10.4" lengthAdjust="spacing" textLength="141.6" x="610.8" y="817.2035">partners and all submodels</text><polygon fill="#181818" points="463.6,841.3625,455.6,844.5625,463.6,847.7625,460.4,844.5625" style="stroke:#181818;stroke-width:0.8000000000000002;"/><line style="stroke:#181818;stroke-width:0.8000000000000002;stroke-dasharray:2.0,2.0;" x1="458.8" x2="894" y1="844.5625" y2="844.5625"/><text fill="#000000" font-family="sans-serif" font-size="10.4" font-weight="bold" lengthAdjust="spacing" textLength="14.4" x="658.4" y="840.5098">18</text><text fill="#000000" font-family="sans-serif" font-size="10.4" lengthAdjust="spacing" textLength="15.2" x="676" y="840.5098">OK</text><polygon fill="#181818" points="195.6,875.8688,187.6,879.0688,195.6,882.2688,192.4,879.0688" style="stroke:#181818;stroke-width:0.8000000000000002;"/><line style="stroke:#181818;stroke-width:0.8000000000000002;stroke-dasharray:2.0,2.0;" x1="190.8" x2="450" y1="879.0688" y2="879.0688"/><text fill="#000000" font-family="sans-serif" font-size="10.4" font-weight="bold" lengthAdjust="spacing" textLength="14.4" x="302.4" y="875.016">19</text><text fill="#000000" font-family="sans-serif" font-size="10.4" lengthAdjust="spacing" textLength="15.2" x="320" y="875.016">OK</text><!--SRC=[hLLDRzim3BtxLn2vh3qKknV8W28fXc0hbiKfreE1GP4vMuWiQPBSDlz-b68hYPsqFSo789B9nyV73xFMQzKs6xIPsmfbc6KDEFpRekBuWCwn2k-ag1HmL9wiier-XSdoSRN8OSFu5bKvoSZD2ouCKnuc3upi19CphRpLKgAT07FG_ERdxPPqgT0MQeMIUQ6L6teQUyatH_iiE2uQ8xiWxeD1HfuKPE1xN_AxaXa2w8oZ8PPyQ3ZtzenXwGCYwGCaMPPbq-aKPXQ946WBZwOC_tf-uMffTTbo3zDfHcB1pPUGpks7V3B6lNWEBuC2J7hWUw_coDPqjcIImByYgTB1UxR5GitefDZD4opcXRfox9dUgOHp7HBQ8qG8VWi_lcKbdiJFOiLYZA3gC0NAOBc2Fu5HNnL6AYMgdnFJ0sgiJlmTmvByAwo4ypPMTitSTcGwHm9lX4BeEi71IwqBjMbtXy21XMkDaRl48AkiRitP441FK9fvaCYS9vaIUW07mdPmzGi_MGHVunvQeBsEhk59B6Elf8Jo6gMSe-DM64yolGXV0-ESnX6ig6hledg4BrHLADDd5FWpAIdGfj4bIfS29I7tJTbVM_IjLQ62uKGEU3aRHvnEqk6jyxevJYUe4KfRQdIWj8STUgX31mNxsTFDOfviJzAFCtKBtxNU1h559JoJwnUX0fsyawrGNWE-KWbeHewwz0Go9ReVq-DNyMOSBOWM5qw0dQzNR_eSscXO8u8fLDu9JoiXNqxWNfL62zeGLAr21J7NEuCBHSSczX7yiRf91Nmt-iyMxGxEuVI1QP9yFrLlGjsFTOna4j8vxwF9ko3_qI8O5s0uapbrHzzXbm17Fg6R1aizVJTgOP9pM5FlZDbXetvmuC88_D-98v9nd-u9TccETshSVly0]--></g></svg>
