<?xml version="1.0" encoding="us-ascii" standalone="no"?>
<svg xmlns="http://www.w3.org/2000/svg" contentStyleType="text/css" height="561px" preserveAspectRatio="none"
     style="width:1482px;height:561px;background:#FFFFFF;" version="1.1" viewBox="0 0 1482 561" width="1482px"
     zoomAndPan="magnify"><defs/><g><!--cluster Shared--><g id="cluster_Shared"><path d="M279.5,231.5 L336.5,231.5 A3.75,3.75 0 0 1 339,234 L346,253.7969 L623.5,253.7969 A2.5,2.5 0 0 1 626,256.2969 L626,326 A2.5,2.5 0 0 1 623.5,328.5 L279.5,328.5 A2.5,2.5 0 0 1 277,326 L277,234 A2.5,2.5 0 0 1 279.5,231.5 " fill="none" style="stroke:#000000;stroke-width:1.5;"/><line style="stroke:#000000;stroke-width:1.5;" x1="277" x2="346" y1="253.7969" y2="253.7969"/><text fill="#000000" font-family="sans-serif" font-size="14" font-weight="bold" lengthAdjust="spacing" textLength="56" x="281" y="246.4951">Shared</text></g><!--cluster Customer--><g id="cluster_Customer"><path d="M75.5,6 L153.5,6 A3.75,3.75 0 0 1 156,8.5 L163,28.2969 L1051.5,28.2969 A2.5,2.5 0 0 1 1054,30.7969 L1054,196.5 A2.5,2.5 0 0 1 1051.5,199 L75.5,199 A2.5,2.5 0 0 1 73,196.5 L73,8.5 A2.5,2.5 0 0 1 75.5,6 " fill="none" style="stroke:#000000;stroke-width:1.5;"/><line style="stroke:#000000;stroke-width:1.5;" x1="73" x2="163" y1="28.2969" y2="28.2969"/><text fill="#000000" font-family="sans-serif" font-size="14" font-weight="bold" lengthAdjust="spacing" textLength="77" x="77" y="20.9951">Customer</text></g><!--cluster CX--><g id="cluster_CX"><path d="M671.5,223 L693.5,223 A3.75,3.75 0 0 1 696,225.5 L703,245.2969 L1472.5,245.2969 A2.5,2.5 0 0 1 1475,247.7969 L1475,334.5 A2.5,2.5 0 0 1 1472.5,337 L671.5,337 A2.5,2.5 0 0 1 669,334.5 L669,225.5 A2.5,2.5 0 0 1 671.5,223 " fill="none" style="stroke:#000000;stroke-width:1.5;"/><line style="stroke:#000000;stroke-width:1.5;" x1="669" x2="703" y1="245.2969" y2="245.2969"/><text fill="#000000" font-family="sans-serif" font-size="14" font-weight="bold" lengthAdjust="spacing" textLength="21" x="673" y="237.9951">CX</text></g><!--cluster Supplier--><g id="cluster_Supplier"><path d="M103.5,361 L171.5,361 A3.75,3.75 0 0 1 174,363.5 L181,383.2969 L1059.5,383.2969 A2.5,2.5 0 0 1 1062,385.7969 L1062,551.5 A2.5,2.5 0 0 1 1059.5,554 L103.5,554 A2.5,2.5 0 0 1 101,551.5 L101,363.5 A2.5,2.5 0 0 1 103.5,361 " fill="none" style="stroke:#000000;stroke-width:1.5;"/><line style="stroke:#000000;stroke-width:1.5;" x1="101" x2="181" y1="383.2969" y2="383.2969"/><text fill="#000000" font-family="sans-serif" font-size="14" font-weight="bold" lengthAdjust="spacing" textLength="67" x="105" y="375.9951">Supplier</text></g><!--entity postgres_shared--><g id="elem_postgres_shared"><rect fill="#F1F1F1" height="46.2969" rx="2.5" ry="2.5" style="stroke:#181818;stroke-width:0.5;" width="138" x="293" y="266.5"/><rect fill="#F1F1F1" height="10" style="stroke:#181818;stroke-width:0.5;" width="15" x="411" y="271.5"/><rect fill="#F1F1F1" height="2" style="stroke:#181818;stroke-width:0.5;" width="4" x="409" y="273.5"/><rect fill="#F1F1F1" height="2" style="stroke:#181818;stroke-width:0.5;" width="4" x="409" y="277.5"/><text fill="#000000" font-family="sans-serif" font-size="14" lengthAdjust="spacing" textLength="98" x="308" y="299.4951">Postgresql DB</text></g><!--entity keycloak--><g id="elem_keycloak"><rect fill="#F1F1F1" height="46.2969" rx="2.5" ry="2.5" style="stroke:#181818;stroke-width:0.5;" width="104" x="506" y="266.5"/><rect fill="#F1F1F1" height="10" style="stroke:#181818;stroke-width:0.5;" width="15" x="590" y="271.5"/><rect fill="#F1F1F1" height="2" style="stroke:#181818;stroke-width:0.5;" width="4" x="588" y="273.5"/><rect fill="#F1F1F1" height="2" style="stroke:#181818;stroke-width:0.5;" width="4" x="588" y="277.5"/><text fill="#000000" font-family="sans-serif" font-size="14" lengthAdjust="spacing" textLength="64" x="521" y="299.4951">Keycloak</text></g><!--entity edc_cus--><g id="elem_edc_cus"><rect fill="#F1F1F1" height="46.2969" rx="2.5" ry="2.5" style="stroke:#181818;stroke-width:0.5;" width="259" x="778.5" y="137"/><rect fill="#F1F1F1" height="10" style="stroke:#181818;stroke-width:0.5;" width="15" x="1017.5" y="142"/><rect fill="#F1F1F1" height="2" style="stroke:#181818;stroke-width:0.5;" width="4" x="1015.5" y="144"/><rect fill="#F1F1F1" height="2" style="stroke:#181818;stroke-width:0.5;" width="4" x="1015.5" y="148"/><text fill="#000000" font-family="sans-serif" font-size="14" lengthAdjust="spacing" textLength="219" x="793.5" y="169.9951">Tractus-X Connector Customer</text></g><!--entity dtr_cus--><g id="elem_dtr_cus"><rect fill="#F1F1F1" height="46.2969" rx="2.5" ry="2.5" style="stroke:#181818;stroke-width:0.5;" width="258" x="182" y="137"/><rect fill="#F1F1F1" height="10" style="stroke:#181818;stroke-width:0.5;" width="15" x="420" y="142"/><rect fill="#F1F1F1" height="2" style="stroke:#181818;stroke-width:0.5;" width="4" x="418" y="144"/><rect fill="#F1F1F1" height="2" style="stroke:#181818;stroke-width:0.5;" width="4" x="418" y="148"/><text fill="#000000" font-family="sans-serif" font-size="14" lengthAdjust="spacing" textLength="218" x="197" y="169.9951">Digital Twin Registry Customer</text></g><!--entity puris_backend_cus--><g id="elem_puris_backend_cus"><rect fill="#F1F1F1" height="46.2969" rx="2.5" ry="2.5" style="stroke:#181818;stroke-width:0.5;" width="188" x="515" y="137"/><rect fill="#F1F1F1" height="10" style="stroke:#181818;stroke-width:0.5;" width="15" x="683" y="142"/><rect fill="#F1F1F1" height="2" style="stroke:#181818;stroke-width:0.5;" width="4" x="681" y="144"/><rect fill="#F1F1F1" height="2" style="stroke:#181818;stroke-width:0.5;" width="4" x="681" y="148"/><text fill="#000000" font-family="sans-serif" font-size="14" lengthAdjust="spacing" textLength="148" x="530" y="169.9951">PURIS FOSS Backend</text></g><!--entity puris_frontend_cus--><g id="elem_puris_frontend_cus"><rect fill="#F1F1F1" height="46.2969" rx="2.5" ry="2.5" style="stroke:#181818;stroke-width:0.5;" width="190" x="514" y="41"/><rect fill="#F1F1F1" height="10" style="stroke:#181818;stroke-width:0.5;" width="15" x="684" y="46"/><rect fill="#F1F1F1" height="2" style="stroke:#181818;stroke-width:0.5;" width="4" x="682" y="48"/><rect fill="#F1F1F1" height="2" style="stroke:#181818;stroke-width:0.5;" width="4" x="682" y="52"/><text fill="#000000" font-family="sans-serif" font-size="14" lengthAdjust="spacing" textLength="150" x="529" y="73.9951">PURIS FOSS Frontend</text></g><!--entity Interface internal systems\n(Customer)--><g id="elem_Interface internal systems\n(Customer)"><ellipse cx="98" cy="160" fill="#F1F1F1" rx="8" ry="8" style="stroke:#181818;stroke-width:0.5;"/><text fill="#000000" font-family="sans-serif" font-size="14" lengthAdjust="spacing" textLength="184" x="6" y="189.9951">Interface internal systems</text><text fill="#000000" font-family="sans-serif" font-size="14" lengthAdjust="spacing" textLength="79" x="6" y="206.292">(Customer)</text></g><!--entity pg_miw--><g id="elem_pg_miw"><rect fill="#F1F1F1" height="46.2969" rx="2.5" ry="2.5" style="stroke:#181818;stroke-width:0.5;" width="172" x="685" y="266.5"/><rect fill="#F1F1F1" height="10" style="stroke:#181818;stroke-width:0.5;" width="15" x="837" y="271.5"/><rect fill="#F1F1F1" height="2" style="stroke:#181818;stroke-width:0.5;" width="4" x="835" y="273.5"/><rect fill="#F1F1F1" height="2" style="stroke:#181818;stroke-width:0.5;" width="4" x="835" y="277.5"/><text fill="#000000" font-family="sans-serif" font-size="14" lengthAdjust="spacing" textLength="132" x="700" y="299.4951">Postgresql DB MIW</text></g><!--entity miw--><g id="elem_miw"><rect fill="#F1F1F1" height="62.5938" rx="2.5" ry="2.5" style="stroke:#181818;stroke-width:0.5;" width="212" x="1247" y="258"/><rect fill="#F1F1F1" height="10" style="stroke:#181818;stroke-width:0.5;" width="15" x="1439" y="263"/><rect fill="#F1F1F1" height="2" style="stroke:#181818;stroke-width:0.5;" width="4" x="1437" y="265"/><rect fill="#F1F1F1" height="2" style="stroke:#181818;stroke-width:0.5;" width="4" x="1437" y="269"/><text fill="#000000" font-family="sans-serif" font-size="14" lengthAdjust="spacing" textLength="172" x="1262" y="290.9951">Managed Identity Wallet</text><text fill="#000000" font-family="sans-serif" font-size="14" lengthAdjust="spacing" textLength="67" x="1262" y="307.292">Mock IAM</text></g><!--entity bdrs--><g id="elem_bdrs"><rect fill="#F1F1F1" height="46.2969" rx="2.5" ry="2.5" style="stroke:#181818;stroke-width:0.5;" width="240" x="932" y="266.5"/><rect fill="#F1F1F1" height="10" style="stroke:#181818;stroke-width:0.5;" width="15" x="1152" y="271.5"/><rect fill="#F1F1F1" height="2" style="stroke:#181818;stroke-width:0.5;" width="4" x="1150" y="273.5"/><rect fill="#F1F1F1" height="2" style="stroke:#181818;stroke-width:0.5;" width="4" x="1150" y="277.5"/><text fill="#000000" font-family="sans-serif" font-size="14" lengthAdjust="spacing" textLength="200" x="947" y="299.4951">BPNL Did Resolution Service</text></g><!--entity edc_sup--><g id="elem_edc_sup"><rect fill="#F1F1F1" height="46.2969" rx="2.5" ry="2.5" style="stroke:#181818;stroke-width:0.5;" width="249" x="796.5" y="396"/><rect fill="#F1F1F1" height="10" style="stroke:#181818;stroke-width:0.5;" width="15" x="1025.5" y="401"/><rect fill="#F1F1F1" height="2" style="stroke:#181818;stroke-width:0.5;" width="4" x="1023.5" y="403"/><rect fill="#F1F1F1" height="2" style="stroke:#181818;stroke-width:0.5;" width="4" x="1023.5" y="407"/><text fill="#000000" font-family="sans-serif" font-size="14" lengthAdjust="spacing" textLength="209" x="811.5" y="428.9951">Tractus-X Connector Supplier</text></g><!--entity dtr_sup--><g id="elem_dtr_sup"><rect fill="#F1F1F1" height="46.2969" rx="2.5" ry="2.5" style="stroke:#181818;stroke-width:0.5;" width="248" x="210" y="396"/><rect fill="#F1F1F1" height="10" style="stroke:#181818;stroke-width:0.5;" width="15" x="438" y="401"/><rect fill="#F1F1F1" height="2" style="stroke:#181818;stroke-width:0.5;" width="4" x="436" y="403"/><rect fill="#F1F1F1" height="2" style="stroke:#181818;stroke-width:0.5;" width="4" x="436" y="407"/><text fill="#000000" font-family="sans-serif" font-size="14" lengthAdjust="spacing" textLength="208" x="225" y="428.9951">Digital Twin Registry Supplier</text></g><!--entity puris_backend_sup--><g id="elem_puris_backend_sup"><rect fill="#F1F1F1" height="46.2969" rx="2.5" ry="2.5" style="stroke:#181818;stroke-width:0.5;" width="188" x="533" y="396"/><rect fill="#F1F1F1" height="10" style="stroke:#181818;stroke-width:0.5;" width="15" x="701" y="401"/><rect fill="#F1F1F1" height="2" style="stroke:#181818;stroke-width:0.5;" width="4" x="699" y="403"/><rect fill="#F1F1F1" height="2" style="stroke:#181818;stroke-width:0.5;" width="4" x="699" y="407"/><text fill="#000000" font-family="sans-serif" font-size="14" lengthAdjust="spacing" textLength="148" x="548" y="428.9951">PURIS FOSS Backend</text></g><!--entity puris_frontend_sup--><g id="elem_puris_frontend_sup"><rect fill="#F1F1F1" height="46.2969" rx="2.5" ry="2.5" style="stroke:#181818;stroke-width:0.5;" width="190" x="532" y="492"/><rect fill="#F1F1F1" height="10" style="stroke:#181818;stroke-width:0.5;" width="15" x="702" y="497"/><rect fill="#F1F1F1" height="2" style="stroke:#181818;stroke-width:0.5;" width="4" x="700" y="499"/><rect fill="#F1F1F1" height="2" style="stroke:#181818;stroke-width:0.5;" width="4" x="700" y="503"/><text fill="#000000" font-family="sans-serif" font-size="14" lengthAdjust="spacing" textLength="150" x="547" y="524.9951">PURIS FOSS Frontend</text></g><!--entity Interface internal systems\n(Supplier)--><g id="elem_Interface internal systems\n(Supplier)"><ellipse cx="126" cy="419" fill="#F1F1F1" rx="8" ry="8" style="stroke:#181818;stroke-width:0.5;"/><text fill="#000000" font-family="sans-serif" font-size="14" lengthAdjust="spacing" textLength="184" x="34" y="448.9951">Interface internal systems</text><text fill="#000000" font-family="sans-serif" font-size="14" lengthAdjust="spacing" textLength="69" x="34" y="465.292">(Supplier)</text></g><!--link dtr_cus to puris_backend_cus--><g id="link_dtr_cus_puris_backend_cus"><path d="M440.14,160 C469.4,160 509.67,160 509.67,160 C509.67,160 511.52,160 514.73,160 " fill="none" id="dtr_cus-puris_backend_cus" style="stroke:#181818;stroke-width:1.0;"/></g><!--link dtr_cus to keycloak--><g id="link_dtr_cus_keycloak"><path d="M375.72,183.12 C419.35,198.03 469,215 469,215 C469,215 505.08,244.8 531.3,266.45 " fill="none" id="dtr_cus-keycloak" style="stroke:#181818;stroke-width:1.0;"/></g><!--link dtr_cus to postgres_shared--><g id="link_dtr_cus_postgres_shared"><path d="M319.88,183.21 C329.19,206.47 343.72,242.79 353.05,266.12 " fill="none" id="dtr_cus-postgres_shared" style="stroke:#181818;stroke-width:1.0;"/></g><!--link edc_cus to postgres_shared--><g id="link_edc_cus_postgres_shared"><path d="M827.92,183.06 C785.06,194.86 741,207 741,207 C741,207 469,215 469,215 C469,215 425.62,244.8 394.1,266.45 " fill="none" id="edc_cus-postgres_shared" style="stroke:#181818;stroke-width:1.0;"/></g><!--link puris_backend_cus to edc_cus--><g id="link_puris_backend_cus_edc_cus"><path d="M703.02,160 C706.58,160 708.67,160 708.67,160 C708.67,160 749.07,160 778.43,160 " fill="none" id="puris_backend_cus-edc_cus" style="stroke:#181818;stroke-width:1.0;"/></g><!--link puris_backend_cus to postgres_shared--><g id="link_puris_backend_cus_postgres_shared"><path d="M551.65,183.12 C512.99,198.03 469,215 469,215 C469,215 425.62,244.8 394.1,266.45 " fill="none" id="puris_backend_cus-postgres_shared" style="stroke:#181818;stroke-width:1.0;"/></g><!--link puris_backend_cus to keycloak--><g id="link_puris_backend_cus_keycloak"><path d="M600.12,183.21 C590.81,206.47 576.28,242.79 566.95,266.12 " fill="none" id="puris_backend_cus-keycloak" style="stroke:#181818;stroke-width:1.0;"/></g><!--link puris_frontend_cus to puris_backend_cus--><g id="link_puris_frontend_cus_puris_backend_cus"><path d="M609,87.28 C609,102.26 609,121.93 609,136.88 " fill="none" id="puris_frontend_cus-puris_backend_cus" style="stroke:#181818;stroke-width:1.0;"/></g><!--link Interface internal systems\n(Customer) to puris_backend_cus--><g id="link_Interface internal systems\n(Customer)_puris_backend_cus"><path d="M107.25,154.68 C129,142.18 181.5,112 181.5,112 C181.5,112 440.5,112 440.5,112 C440.5,112 484.96,124.67 528.2,136.98 " fill="none" id="Interface internal systems\n(Customer)-puris_backend_cus" style="stroke:#181818;stroke-width:1.0;"/></g><!--link keycloak to pg_miw--><g id="link_keycloak_pg_miw"><path d="M610.35,289.5 C620.99,289.5 629,289.5 629,289.5 C629,289.5 664.1,289.5 684.94,289.5 " fill="none" id="keycloak-pg_miw" style="stroke:#181818;stroke-width:1.0;"/></g><!--link pg_miw to miw--><g id="link_pg_miw_miw"><path d="M809.55,266.34 C845.96,244.47 895,215 895,215 C895,215 932.5,211 932.5,211 C932.5,211 1172.5,211 1172.5,211 C1172.5,211 1210,215 1210,215 C1210,215 1253.38,237.6 1292.36,257.91 " fill="none" id="pg_miw-miw" style="stroke:#181818;stroke-width:1.0;"/></g><!--link dtr_sup to puris_backend_sup--><g id="link_dtr_sup_puris_backend_sup"><path d="M458.1,419 C487.02,419 529.33,419 529.33,419 C529.33,419 530.5,419 532.58,419 " fill="none" id="dtr_sup-puris_backend_sup" style="stroke:#181818;stroke-width:1.0;"/></g><!--link keycloak to dtr_sup--><g id="link_keycloak_dtr_sup"><path d="M522.06,312.51 C497.36,327.64 469,345 469,345 C469,345 414.6,374.41 374.87,395.9 " fill="none" id="keycloak-dtr_sup" style="stroke:#181818;stroke-width:1.0;"/></g><!--link keycloak to puris_backend_sup--><g id="link_keycloak_puris_backend_sup"><path d="M570.02,312.71 C582.61,335.97 602.27,372.29 614.89,395.62 " fill="none" id="keycloak-puris_backend_sup" style="stroke:#181818;stroke-width:1.0;"/></g><!--link postgres_shared to dtr_sup--><g id="link_postgres_shared_dtr_sup"><path d="M357.12,312.71 C352.01,335.97 344.04,372.29 338.92,395.62 " fill="none" id="postgres_shared-dtr_sup" style="stroke:#181818;stroke-width:1.0;"/></g><!--link postgres_shared to edc_sup--><g id="link_postgres_shared_edc_sup"><path d="M405.21,312.51 C434.91,327.64 469,345 469,345 C469,345 759,353 759,353 C759,353 819.16,377.14 866.15,395.99 " fill="none" id="postgres_shared-edc_sup" style="stroke:#181818;stroke-width:1.0;"/></g><!--link puris_backend_sup to edc_sup--><g id="link_puris_backend_sup_edc_sup"><path d="M721.28,419 C723.65,419 725,419 725,419 C725,419 767.46,419 796.48,419 " fill="none" id="puris_backend_sup-edc_sup" style="stroke:#181818;stroke-width:1.0;"/></g><!--link postgres_shared to puris_backend_sup--><g id="link_postgres_shared_puris_backend_sup"><path d="M405.21,312.51 C434.91,327.64 469,345 469,345 C469,345 496,353 496,353 C496,353 544.65,377.14 582.65,395.99 " fill="none" id="postgres_shared-puris_backend_sup" style="stroke:#181818;stroke-width:1.0;"/></g><!--link Interface internal systems\n(Supplier) to puris_backend_sup--><g id="link_Interface internal systems\n(Supplier)_puris_backend_sup"><path d="M132.4,409.82 C145.04,391.69 172,353 172,353 C172,353 209.5,349 209.5,349 C209.5,349 458.5,349 458.5,349 C458.5,349 496,353 496,353 C496,353 543.41,376.88 581.18,395.92 " fill="none" id="Interface internal systems\n(Supplier)-puris_backend_sup" style="stroke:#181818;stroke-width:1.0;"/></g><!--link puris_backend_sup to puris_frontend_sup--><g id="link_puris_backend_sup_puris_frontend_sup"><path d="M627,442.28 C627,457.26 627,476.93 627,491.88 " fill="none" id="puris_backend_sup-puris_frontend_sup" style="stroke:#181818;stroke-width:1.0;"/></g><!--link edc_cus to keycloak--><g id="link_edc_cus_keycloak"><path d="M827.92,183.06 C785.06,194.86 741,207 741,207 C741,207 659,215 659,215 C659,215 618.05,244.8 588.3,266.45 " fill="none" id="edc_cus-keycloak" style="stroke:#181818;stroke-width:1.0;"/></g><!--link edc_cus to miw--><g id="link_edc_cus_miw"><path d="M1031.27,183.04 C1114.78,197.97 1210,215 1210,215 C1210,215 1254.31,237.77 1293.6,257.97 " fill="none" id="edc_cus-miw" style="stroke:#181818;stroke-width:1.0;"/></g><!--link edc_cus to bdrs--><g id="link_edc_cus_bdrs"><path d="M933.08,183.21 C959.35,206.47 1000.38,242.79 1026.72,266.12 " fill="none" id="edc_cus-bdrs" style="stroke:#181818;stroke-width:1.0;"/></g><!--link keycloak to edc_sup--><g id="link_keycloak_edc_sup"><path d="M598.79,312.51 C626.82,327.64 659,345 659,345 C659,345 759,353 759,353 C759,353 819.16,377.14 866.15,395.99 " fill="none" id="keycloak-edc_sup" style="stroke:#181818;stroke-width:1.0;"/></g><!--link miw to edc_sup--><g id="link_miw_edc_sup"><path d="M1272.72,321.1 C1240.13,333.52 1210,345 1210,345 C1210,345 1093.2,374.5 1008.1,396 " fill="none" id="miw-edc_sup" style="stroke:#181818;stroke-width:1.0;"/></g><!--link bdrs to edc_sup--><g id="link_bdrs_edc_sup"><path d="M1029.18,312.71 C1005.28,335.97 967.96,372.29 944,395.62 " fill="none" id="bdrs-edc_sup" style="stroke:#181818;stroke-width:1.0;"/></g><!--SRC=[ZLF1Jjmm4BtdAqPxAeT8lQ2UkwoG8jWM4IgGIhKopf1QyTh1TegYglzUsucJc1YqjypCcpSppo-wOQ8bYXo1Cu6cRn5QoNiNP7gg2LcXnXQ-d2-IYeZ69Sy_PrdM4jgG6c5J_YOAgmtypG1-taXjQeNwXSDk-mk8jkH3vg0zpe6kiATSaiRNcp78_Yr9Bpfjv16LetKjTufGq-dy0Iwa44YDL10mdWOhUg2TTjWTgvaX7EvUcO1Rh9asge_HbL4UxLV-SLkKSFczB65hnwEeXhqxnVJXQSW4wWNsKabXOl3pc0hKunJ8asHJDPyrYB9hvSOZqyNL33jtLYLHFP4aMczzgET9dBSfB4Gz4uh0t9UmBw9xRV2e7yMdy1fdcwGwpWop5nw22o9tmRwu7yIl3qVswkfx8cn71KM5mZ3JmptX7CsZs4lQGF5rx_4ZU7lpxHfshB8MqP9tXaa19Qe_ZAA7FLNAlsAutYqQ9WqVDkF2QDcoQrlEFZPkm4p6rLtxld4ZjBE7Gvzit97wHEEErEEKrTCCPBCW-RHFd4rrlV5Qt9mephgis22ghbjJup-sOz0uOSTtTyYJubalBFxIwSzPv9nb5k5WiwLwuJRli3bqm6Ny7m00]--></g></svg>
