<?xml version="1.0" encoding="us-ascii" standalone="no"?>
<svg xmlns="http://www.w3.org/2000/svg" contentStyleType="text/css" height="443px" preserveAspectRatio="none"
     style="width:968px;height:443px;background:#FFFFFF;" version="1.1" viewBox="0 0 968 443" width="968px"
     zoomAndPan="magnify"><defs/><g><!--cluster PURIS--><g id="cluster_PURIS"><path d="M75.5,6 L123.5,6 A3.75,3.75 0 0 1 126,8.5 L133,28.2969 L958.5,28.2969 A2.5,2.5 0 0 1 961,30.7969 L961,312.5 A2.5,2.5 0 0 1 958.5,315 L75.5,315 A2.5,2.5 0 0 1 73,312.5 L73,8.5 A2.5,2.5 0 0 1 75.5,6 " fill="none" style="stroke:#000000;stroke-width:1.5;"/><line style="stroke:#000000;stroke-width:1.5;" x1="73" x2="133" y1="28.2969" y2="28.2969"/><text fill="#000000" font-family="sans-serif" font-size="14" font-weight="bold" lengthAdjust="spacing" textLength="47" x="77" y="20.9951">PURIS</text></g><!--cluster CX--><g id="cluster_CX"><path d="M483.5,339 L505.5,339 A3.75,3.75 0 0 1 508,341.5 L515,361.2969 L861.5,361.2969 A2.5,2.5 0 0 1 864,363.7969 L864,433.5 A2.5,2.5 0 0 1 861.5,436 L483.5,436 A2.5,2.5 0 0 1 481,433.5 L481,341.5 A2.5,2.5 0 0 1 483.5,339 " fill="none" style="stroke:#000000;stroke-width:1.5;"/><line style="stroke:#000000;stroke-width:1.5;" x1="481" x2="515" y1="361.2969" y2="361.2969"/><text fill="#000000" font-family="sans-serif" font-size="14" font-weight="bold" lengthAdjust="spacing" textLength="21" x="485" y="353.9951">CX</text></g><!--entity edc_pg--><g id="elem_edc_pg"><rect fill="#F1F1F1" height="46.2969" rx="2.5" ry="2.5" style="stroke:#181818;stroke-width:0.5;" width="133" x="731.5" y="253"/><rect fill="#F1F1F1" height="10" style="stroke:#181818;stroke-width:0.5;" width="15" x="844.5" y="258"/><rect fill="#F1F1F1" height="2" style="stroke:#181818;stroke-width:0.5;" width="4" x="842.5" y="260"/><rect fill="#F1F1F1" height="2" style="stroke:#181818;stroke-width:0.5;" width="4" x="842.5" y="264"/><text fill="#000000" font-family="sans-serif" font-size="14" lengthAdjust="spacing" textLength="93" x="746.5" y="285.9951">Postgres TXC</text></g><!--entity edc--><g id="elem_edc"><rect fill="#F1F1F1" height="46.2969" rx="2.5" ry="2.5" style="stroke:#181818;stroke-width:0.5;" width="186" x="510" y="253"/><rect fill="#F1F1F1" height="10" style="stroke:#181818;stroke-width:0.5;" width="15" x="676" y="258"/><rect fill="#F1F1F1" height="2" style="stroke:#181818;stroke-width:0.5;" width="4" x="674" y="260"/><rect fill="#F1F1F1" height="2" style="stroke:#181818;stroke-width:0.5;" width="4" x="674" y="264"/><text fill="#000000" font-family="sans-serif" font-size="14" lengthAdjust="spacing" textLength="146" x="525" y="285.9951">Tractus-X Connector</text></g><!--entity dtr--><g id="elem_dtr"><rect fill="#F1F1F1" height="46.2969" rx="2.5" ry="2.5" style="stroke:#181818;stroke-width:0.5;" width="185" x="311.5" y="147"/><rect fill="#F1F1F1" height="10" style="stroke:#181818;stroke-width:0.5;" width="15" x="476.5" y="152"/><rect fill="#F1F1F1" height="2" style="stroke:#181818;stroke-width:0.5;" width="4" x="474.5" y="154"/><rect fill="#F1F1F1" height="2" style="stroke:#181818;stroke-width:0.5;" width="4" x="474.5" y="158"/><text fill="#000000" font-family="sans-serif" font-size="14" lengthAdjust="spacing" textLength="145" x="326.5" y="179.9951">Digital Twin Registry</text></g><!--entity dtr_idp--><g id="elem_dtr_idp"><rect fill="#F1F1F1" height="46.2969" rx="2.5" ry="2.5" style="stroke:#181818;stroke-width:0.5;" width="97" x="377.5" y="253"/><rect fill="#F1F1F1" height="10" style="stroke:#181818;stroke-width:0.5;" width="15" x="454.5" y="258"/><rect fill="#F1F1F1" height="2" style="stroke:#181818;stroke-width:0.5;" width="4" x="452.5" y="260"/><rect fill="#F1F1F1" height="2" style="stroke:#181818;stroke-width:0.5;" width="4" x="452.5" y="264"/><text fill="#000000" font-family="sans-serif" font-size="14" lengthAdjust="spacing" textLength="57" x="392.5" y="285.9951">DTR IDP</text></g><!--entity dtr_pg--><g id="elem_dtr_pg"><rect fill="#F1F1F1" height="46.2969" rx="2.5" ry="2.5" style="stroke:#181818;stroke-width:0.5;" width="134" x="142" y="147"/><rect fill="#F1F1F1" height="10" style="stroke:#181818;stroke-width:0.5;" width="15" x="256" y="152"/><rect fill="#F1F1F1" height="2" style="stroke:#181818;stroke-width:0.5;" width="4" x="254" y="154"/><rect fill="#F1F1F1" height="2" style="stroke:#181818;stroke-width:0.5;" width="4" x="254" y="158"/><text fill="#000000" font-family="sans-serif" font-size="14" lengthAdjust="spacing" textLength="94" x="157" y="179.9951">Postgres DTR</text></g><!--entity postgres--><g id="elem_postgres"><rect fill="#F1F1F1" height="46.2969" rx="2.5" ry="2.5" style="stroke:#181818;stroke-width:0.5;" width="138" x="557" y="41"/><rect fill="#F1F1F1" height="10" style="stroke:#181818;stroke-width:0.5;" width="15" x="675" y="46"/><rect fill="#F1F1F1" height="2" style="stroke:#181818;stroke-width:0.5;" width="4" x="673" y="48"/><rect fill="#F1F1F1" height="2" style="stroke:#181818;stroke-width:0.5;" width="4" x="673" y="52"/><text fill="#000000" font-family="sans-serif" font-size="14" lengthAdjust="spacing" textLength="98" x="572" y="73.9951">Postgresql DB</text></g><!--entity puris_backend--><g id="elem_puris_backend"><rect fill="#F1F1F1" height="46.2969" rx="2.5" ry="2.5" style="stroke:#181818;stroke-width:0.5;" width="188" x="532" y="147"/><rect fill="#F1F1F1" height="10" style="stroke:#181818;stroke-width:0.5;" width="15" x="700" y="152"/><rect fill="#F1F1F1" height="2" style="stroke:#181818;stroke-width:0.5;" width="4" x="698" y="154"/><rect fill="#F1F1F1" height="2" style="stroke:#181818;stroke-width:0.5;" width="4" x="698" y="158"/><text fill="#000000" font-family="sans-serif" font-size="14" lengthAdjust="spacing" textLength="148" x="547" y="179.9951">PURIS FOSS Backend</text></g><!--entity puris_frontend--><g id="elem_puris_frontend"><rect fill="#F1F1F1" height="46.2969" rx="2.5" ry="2.5" style="stroke:#181818;stroke-width:0.5;" width="190" x="755" y="147"/><rect fill="#F1F1F1" height="10" style="stroke:#181818;stroke-width:0.5;" width="15" x="925" y="152"/><rect fill="#F1F1F1" height="2" style="stroke:#181818;stroke-width:0.5;" width="4" x="923" y="154"/><rect fill="#F1F1F1" height="2" style="stroke:#181818;stroke-width:0.5;" width="4" x="923" y="158"/><text fill="#000000" font-family="sans-serif" font-size="14" lengthAdjust="spacing" textLength="150" x="770" y="179.9951">PURIS FOSS Frontend</text></g><!--entity Interface internal systems\n--><g id="elem_Interface internal systems\n"><ellipse cx="98" cy="170" fill="#F1F1F1" rx="8" ry="8" style="stroke:#181818;stroke-width:0.5;"/><text fill="#000000" font-family="sans-serif" font-size="14" lengthAdjust="spacing" textLength="184" x="6" y="199.9951">Interface internal systems</text><text fill="#000000" font-family="sans-serif" font-size="14" lengthAdjust="spacing" textLength="4" x="6" y="216.292">&#160;</text></g><!--entity keycloak--><g id="elem_keycloak"><rect fill="#F1F1F1" height="46.2969" rx="2.5" ry="2.5" style="stroke:#181818;stroke-width:0.5;" width="104" x="744" y="374"/><rect fill="#F1F1F1" height="10" style="stroke:#181818;stroke-width:0.5;" width="15" x="828" y="379"/><rect fill="#F1F1F1" height="2" style="stroke:#181818;stroke-width:0.5;" width="4" x="826" y="381"/><rect fill="#F1F1F1" height="2" style="stroke:#181818;stroke-width:0.5;" width="4" x="826" y="385"/><text fill="#000000" font-family="sans-serif" font-size="14" lengthAdjust="spacing" textLength="64" x="759" y="406.9951">Keycloak</text></g><!--entity miw--><g id="elem_miw"><rect fill="#F1F1F1" height="46.2969" rx="2.5" ry="2.5" style="stroke:#181818;stroke-width:0.5;" width="212" x="497" y="374"/><rect fill="#F1F1F1" height="10" style="stroke:#181818;stroke-width:0.5;" width="15" x="689" y="379"/><rect fill="#F1F1F1" height="2" style="stroke:#181818;stroke-width:0.5;" width="4" x="687" y="381"/><rect fill="#F1F1F1" height="2" style="stroke:#181818;stroke-width:0.5;" width="4" x="687" y="385"/><text fill="#000000" font-family="sans-serif" font-size="14" lengthAdjust="spacing" textLength="172" x="512" y="406.9951">Managed Identity Wallet</text></g><!--link puris_backend to edc--><g id="link_puris_backend_edc"><path d="M621.12,193.06 C617.22,210.7 611.77,235.34 607.87,252.98 " fill="none" id="puris_backend-edc" style="stroke:#181818;stroke-width:1.0;"/></g><!--link edc to edc_pg--><g id="link_edc_edc_pg"><path d="M696.31,276 C707.96,276 719.61,276 731.27,276 " fill="none" id="edc-edc_pg" style="stroke:#181818;stroke-width:1.0;"/></g><!--link dtr_idp to edc--><g id="link_dtr_idp_edc"><path d="M474.74,276 C486.43,276 498.12,276 509.81,276 " fill="none" id="dtr_idp-edc" style="stroke:#181818;stroke-width:1.0;"/></g><!--link dtr to puris_backend--><g id="link_dtr_puris_backend"><path d="M496.79,170 C508.48,170 520.17,170 531.87,170 " fill="none" id="dtr-puris_backend" style="stroke:#181818;stroke-width:1.0;"/></g><!--link puris_backend to dtr_idp--><g id="link_puris_backend_dtr_idp"><path d="M583.59,193.06 C549.64,210.7 502.28,235.34 468.35,252.98 " fill="none" id="puris_backend-dtr_idp" style="stroke:#181818;stroke-width:1.0;"/></g><!--link dtr_pg to dtr--><g id="link_dtr_pg_dtr"><path d="M276.03,170 C287.7,170 299.36,170 311.02,170 " fill="none" id="dtr_pg-dtr" style="stroke:#181818;stroke-width:1.0;"/></g><!--link dtr to dtr_idp--><g id="link_dtr_dtr_idp"><path d="M408.67,193.06 C412.4,210.7 417.61,235.34 421.34,252.98 " fill="none" id="dtr-dtr_idp" style="stroke:#181818;stroke-width:1.0;"/></g><!--link postgres to puris_backend--><g id="link_postgres_puris_backend"><path d="M626,87.06 C626,104.7 626,129.34 626,146.98 " fill="none" id="postgres-puris_backend" style="stroke:#181818;stroke-width:1.0;"/></g><!--link Interface internal systems\n to puris_backend--><g id="link_Interface internal systems\n_puris_backend"><path d="M102.32,160.76 C108.8,148.14 122.35,126.06 141.5,117 C212.82,83.27 419.09,101.77 496.5,117 C526.06,122.81 557.36,135.43 581.79,146.9 " fill="none" id="Interface internal systems\n-puris_backend" style="stroke:#181818;stroke-width:1.0;"/></g><!--link puris_backend to puris_frontend--><g id="link_puris_backend_puris_frontend"><path d="M720.06,170 C731.65,170 743.24,170 754.83,170 " fill="none" id="puris_backend-puris_frontend" style="stroke:#181818;stroke-width:1.0;"/></g><!--link edc to keycloak--><g id="link_edc_keycloak"><path d="M658.54,299.01 C685.61,310.17 714.9,323.02 727,331 C745.27,343.05 763.18,360.13 776.17,373.75 " fill="none" id="edc-keycloak" style="stroke:#181818;stroke-width:1.0;"/></g><!--link edc to miw--><g id="link_edc_miw"><path d="M603,299.1 C603,320.34 603,352.28 603,373.61 " fill="none" id="edc-miw" style="stroke:#181818;stroke-width:1.0;"/></g><!--link puris_frontend to keycloak--><g id="link_puris_frontend_keycloak"><path d="M862.99,193.12 C879.08,223.6 902.05,279.68 882,323 C872.21,344.15 852.94,361.41 835.12,373.83 " fill="none" id="puris_frontend-keycloak" style="stroke:#181818;stroke-width:1.0;"/></g><!--SRC=[XPB1QeGm48RlFiNWFI-noeAKKb6N2csHDCbAq8qscMMHqdTl4cDTtKCl8JFVdvdvXuoKTRGL4EUd8YlZxoW2UCi7WwqM1gew-G1gG73MZAr3bQOChuRKa0nA2OQ3NXGEfxALI7keRb918LffK4zUm55xGLL0bkPBgf5yt7Iq_8_PZlViguVquE4OCfwwkU7uKfPmi5w4uhFaggLfFkVCJdVKWyAjy1nIhk7cAH0IlDaJoBg9C3misCRslc_xK6lrF3i44ZRZtz_pnQJBxil6cPrMdoaJ8DrDsPMRoQ2uc7SL_p_7W-kVA1gNdv3KCSp_u4bCh1zevnVLXS21Pwgib4F6XKA94xpIlXVeTHTvy_NyliZwBCGERxjlLBy0]--></g></svg>
