<svg xmlns="http://www.w3.org/2000/svg" fill="none" viewBox="36.8 6.75 107.92 26.5">
<path d="M78.8132 28V11.2727H85.4126C86.6813 11.2727 87.7622 11.515 88.6552 11.9996C89.5482 12.4788 90.2288 13.1458 90.6971 14.0007C91.1708 14.8501 91.4077 15.8303 91.4077 16.9411C91.4077 18.0518 91.1681 19.032 90.6889 19.8814C90.2098 20.7308 89.5155 21.3924 88.6062 21.8661C87.7023 22.3398 86.6078 22.5767 85.3228 22.5767H81.1165V19.7425H84.7511C85.4317 19.7425 85.9925 19.6255 86.4336 19.3913C86.8801 19.1518 87.2122 18.8223 87.43 18.4031C87.6533 17.9783 87.7649 17.491 87.7649 16.9411C87.7649 16.3857 87.6533 15.901 87.43 15.4872C87.2122 15.0679 86.8801 14.744 86.4336 14.5153C85.9871 14.2811 85.4208 14.1641 84.7347 14.1641H82.3498V28H78.8132ZM104.037 11.2727H107.573V22.1357C107.573 23.3554 107.282 24.4226 106.699 25.3374C106.122 26.2521 105.314 26.9654 104.274 27.4773C103.234 27.9837 102.022 28.2369 100.639 28.2369C99.2506 28.2369 98.0364 27.9837 96.9964 27.4773C95.9564 26.9654 95.1478 26.2521 94.5706 25.3374C93.9934 24.4226 93.7048 23.3554 93.7048 22.1357V11.2727H97.2414V21.8335C97.2414 22.4705 97.3802 23.0368 97.6579 23.5323C97.9411 24.0278 98.3386 24.4171 98.8504 24.7003C99.3622 24.9834 99.9585 25.125 100.639 25.125C101.325 25.125 101.921 24.9834 102.428 24.7003C102.94 24.4171 103.334 24.0278 103.612 23.5323C103.895 23.0368 104.037 22.4705 104.037 21.8335V11.2727ZM110.483 28V11.2727H117.083C118.346 11.2727 119.424 11.4987 120.317 11.9506C121.215 12.3971 121.899 13.0315 122.367 13.8537C122.841 14.6705 123.078 15.6315 123.078 16.7369C123.078 17.8477 122.838 18.8033 122.359 19.6037C121.88 20.3987 121.185 21.0085 120.276 21.4332C119.372 21.858 118.278 22.0703 116.993 22.0703H112.574V19.228H116.421C117.096 19.228 117.657 19.1354 118.104 18.9503C118.55 18.7652 118.882 18.4875 119.1 18.1172C119.323 17.7469 119.435 17.2868 119.435 16.7369C119.435 16.1815 119.323 15.7132 119.1 15.332C118.882 14.9509 118.547 14.6623 118.095 14.4663C117.649 14.2648 117.085 14.1641 116.405 14.1641H114.02V28H110.483ZM119.517 20.3878L123.674 28H119.77L115.702 20.3878H119.517ZM129.113 11.2727V28H125.577V11.2727H129.113ZM141.097 16.0835C141.032 15.4246 140.752 14.9128 140.256 14.5479C139.761 14.1831 139.088 14.0007 138.239 14.0007C137.662 14.0007 137.174 14.0824 136.777 14.2457C136.379 14.4036 136.074 14.6242 135.862 14.9073C135.655 15.1905 135.552 15.5117 135.552 15.8711C135.541 16.1706 135.603 16.4319 135.739 16.6552C135.881 16.8784 136.074 17.0717 136.319 17.2351C136.564 17.393 136.848 17.5318 137.169 17.6516C137.49 17.766 137.833 17.864 138.198 17.9457L139.701 18.305C140.43 18.4684 141.1 18.6862 141.71 18.9585C142.32 19.2307 142.848 19.5656 143.294 19.9631C143.741 20.3606 144.087 20.8288 144.332 21.3679C144.582 21.907 144.71 22.525 144.716 23.2219C144.71 24.2456 144.449 25.1332 143.932 25.8846C143.42 26.6306 142.679 27.2105 141.71 27.6243C140.746 28.0327 139.584 28.2369 138.222 28.2369C136.872 28.2369 135.696 28.0299 134.694 27.6161C133.698 27.2023 132.919 26.5897 132.358 25.7784C131.803 24.9616 131.511 23.9516 131.484 22.7482H134.906C134.944 23.3091 135.105 23.7773 135.388 24.1531C135.677 24.5233 136.061 24.8037 136.54 24.9943C137.024 25.1795 137.572 25.272 138.182 25.272C138.781 25.272 139.301 25.1849 139.742 25.0107C140.188 24.8364 140.534 24.5941 140.779 24.2837C141.024 23.9734 141.146 23.6167 141.146 23.2138C141.146 22.8381 141.035 22.5223 140.812 22.2663C140.594 22.0104 140.272 21.7926 139.848 21.6129C139.428 21.4332 138.914 21.2699 138.304 21.1229L136.483 20.6655C135.072 20.3224 133.959 19.7861 133.142 19.0565C132.325 18.3268 131.92 17.344 131.925 16.108C131.92 15.0952 132.189 14.2103 132.734 13.4535C133.284 12.6966 134.038 12.1058 134.996 11.6811C135.955 11.2564 137.044 11.044 138.263 11.044C139.505 11.044 140.588 11.2564 141.514 11.6811C142.445 12.1058 143.169 12.6966 143.687 13.4535C144.204 14.2103 144.471 15.087 144.487 16.0835H141.097Z" fill="#081F4B"/>
<path d="M48.355 16.4827C49.5782 15.7766 51.5612 15.7766 52.7843 16.4827L63.4232 22.6244C64.6464 23.3305 64.6464 24.4753 63.4232 25.1814L52.7843 31.3231C51.5612 32.0293 49.5782 32.0293 48.355 31.3231L37.7161 25.1814C36.4931 24.4753 36.4931 23.3305 37.7161 22.6244L48.355 16.4827Z" fill="#E3DEE6" fill-opacity="0.9"/>
<path fill-rule="evenodd" clip-rule="evenodd" d="M63.3125 24.0869L52.6736 17.945C51.5116 17.2743 49.6278 17.2743 48.4658 17.945L37.8269 24.0869C36.6649 24.7576 36.6649 25.8451 37.8269 26.5159L48.4658 32.6576C49.6278 33.3284 51.5116 33.3284 52.6736 32.6576L63.3125 26.5159C64.4744 25.8451 64.4744 24.7576 63.3125 24.0869ZM52.7843 17.8811C51.5612 17.1751 49.5782 17.1751 48.355 17.8811L37.7161 24.0229C36.4931 24.7289 36.4931 25.8737 37.7161 26.5798L48.355 32.7216C49.5782 33.4277 51.5612 33.4277 52.7843 32.7216L63.4232 26.5798C64.6464 25.8737 64.6464 24.7289 63.4232 24.0229L52.7843 17.8811Z" fill="#E5E0E7"/>
<path d="M48.4254 13.3674C49.6485 12.6614 51.6315 12.6614 52.8546 13.3674L63.4935 19.5092C64.7166 20.2153 64.7166 21.3601 63.4935 22.0662L52.8546 28.2079C51.6315 28.9139 49.6485 28.9139 48.4254 28.2079L37.7865 22.0662C36.5634 21.3601 36.5634 20.2153 37.7865 19.5092L48.4254 13.3674Z" fill="#E1D0E3"/>
<g filter="url(#filter0_ddddd_240_58)">
<path fill-rule="evenodd" clip-rule="evenodd" d="M63.3828 20.9735L52.7438 14.8318C51.582 14.161 49.6981 14.161 48.5361 14.8318L37.8972 20.9735C36.7353 21.6442 36.7353 22.7318 37.8972 23.4026L48.5361 29.5444C49.6981 30.2151 51.582 30.2151 52.7438 29.5444L63.3828 23.4026C64.5448 22.7318 64.5448 21.6442 63.3828 20.9735ZM52.8546 14.7678C51.6315 14.0618 49.6485 14.0618 48.4254 14.7678L37.7865 20.9095C36.5634 21.6157 36.5634 22.7604 37.7865 23.4666L48.4254 29.6083C49.6485 30.3144 51.6315 30.3144 52.8546 29.6083L63.4935 23.4666C64.7166 22.7604 64.7166 21.6157 63.4935 20.9095L52.8546 14.7678Z" fill="#E1D0E3"/>
</g>
<path d="M48.4254 10.3948C49.6485 9.68872 51.6315 9.68871 52.8546 10.3948L63.4935 16.5365C64.7166 17.2426 64.7166 18.3874 63.4935 19.0934L52.8546 25.2353C51.6315 25.9413 49.6485 25.9413 48.4254 25.2353L37.7865 19.0934C36.5634 18.3874 36.5634 17.2426 37.7865 16.5365L48.4254 10.3948Z" fill="#DEC1E2"/>
<path fill-rule="evenodd" clip-rule="evenodd" d="M63.3828 18.0008L52.7438 11.8591C51.582 11.1883 49.6981 11.1883 48.5361 11.8591L37.8972 18.0008C36.7353 18.6716 36.7353 19.7592 37.8972 20.43L48.5361 26.5717C49.6981 27.2425 51.582 27.2425 52.7438 26.5717L63.3828 20.43C64.5448 19.7592 64.5448 18.6716 63.3828 18.0008ZM52.8546 11.7952C51.6315 11.0891 49.6485 11.0891 48.4254 11.7952L37.7865 17.9369C36.5634 18.643 36.5634 19.7878 37.7865 20.4939L48.4254 26.6356C49.6485 27.3417 51.6315 27.3417 52.8546 26.6356L63.4935 20.4939C64.7166 19.7878 64.7166 18.643 63.4935 17.9369L52.8546 11.7952Z" fill="#DEC1E2"/>
<path d="M48.4254 7.27956C49.6485 6.57348 51.6315 6.57348 52.8546 7.27956L63.4935 13.4213C64.7166 14.1274 64.7166 15.2722 63.4935 15.9783L52.8546 22.12C51.6315 22.8261 49.6485 22.8261 48.4254 22.12L37.7865 15.9783C36.5634 15.2722 36.5634 14.1274 37.7865 13.4213L48.4254 7.27956Z" fill="#FFC9F6"/>
<path fill-rule="evenodd" clip-rule="evenodd" d="M63.3827 14.8856L52.7439 8.74388C51.5819 8.0731 49.698 8.0731 48.5362 8.74388L37.8972 14.8856C36.7353 15.5564 36.7353 16.644 37.8972 17.3147L48.5362 23.4564C49.698 24.1272 51.5819 24.1272 52.7439 23.4564L63.3829 17.3147C64.5447 16.6439 64.5447 15.5564 63.3827 14.8856ZM52.8546 8.67995C51.6315 7.97387 49.6485 7.97387 48.4254 8.67995L37.7865 14.8217C36.5634 15.5278 36.5634 16.6726 37.7865 17.3786L48.4254 23.5204C49.6485 24.2265 51.6315 24.2265 52.8546 23.5204L63.4935 17.3786C64.7166 16.6726 64.7166 15.5278 63.4935 14.8217L52.8546 8.67995Z" fill="#FFC9F6"/>
<path fill-rule="evenodd" clip-rule="evenodd" d="M53.8035 14.7886L56.1914 13.4101L56.6047 13.6488L54.1217 15.0822C54.0307 14.9792 53.9242 14.881 53.8035 14.7886ZM51.7101 14.0418L53.3368 13.1026L52.9233 12.864L50.9382 14.0101C51.1924 14.0037 51.451 14.0138 51.7101 14.0418ZM57.1207 15.7836L54.2398 17.4467L53.8263 17.2081L56.7073 15.5449L57.1207 15.7836ZM50.0258 12.5813L47.9188 13.7977L47.5054 13.559L49.6124 12.3427L50.0258 12.5813ZM45.3984 12.3427L49.1824 10.1582L49.5959 10.3969L45.8119 12.5813L45.3984 12.3427Z" fill="white"/>
<path fill-rule="evenodd" clip-rule="evenodd" d="M51.6567 14.7484C50.4825 14.5668 49.2758 14.969 48.9611 15.6468C48.6466 16.3246 49.3433 17.0213 50.5174 17.203C51.6916 17.3846 52.8984 16.9823 53.213 16.3045C53.5276 15.6267 52.8308 14.93 51.6567 14.7484ZM48.3964 15.5595C48.7946 14.7016 50.322 14.1925 51.8081 14.4224C53.294 14.6522 54.1759 15.534 53.7778 16.3919C53.3795 17.2497 51.8521 17.7588 50.3661 17.529C48.8801 17.2991 47.9982 16.4173 48.3964 15.5595Z" fill="white"/>
<path fill-rule="evenodd" clip-rule="evenodd" d="M49.373 19.0179L50.1888 17.2207L50.7543 17.3063L49.9386 19.1034L49.373 19.0179Z" fill="white"/>
<defs>
<filter id="filter0_ddddd_240_58" x="-28.1309" y="0.238281" width="179.542" height="295.9" filterUnits="userSpaceOnUse" color-interpolation-filters="sRGB">
<feFlood flood-opacity="0" result="BackgroundImageFix"/>
<feColorMatrix in="SourceAlpha" type="matrix" values="0 0 0 0 0 0 0 0 0 0 0 0 0 0 0 0 0 0 127 0" result="hardAlpha"/>
<feOffset/>
<feColorMatrix type="matrix" values="0 0 0 0 0 0 0 0 0 0 0 0 0 0 0 0 0 0 0.1 0"/>
<feBlend mode="normal" in2="BackgroundImageFix" result="effect1_dropShadow_240_58"/>
<feColorMatrix in="SourceAlpha" type="matrix" values="0 0 0 0 0 0 0 0 0 0 0 0 0 0 0 0 0 0 127 0" result="hardAlpha"/>
<feOffset dx="1" dy="12"/>
<feGaussianBlur stdDeviation="13"/>
<feColorMatrix type="matrix" values="0 0 0 0 0 0 0 0 0 0 0 0 0 0 0 0 0 0 0.1 0"/>
<feBlend mode="normal" in2="effect1_dropShadow_240_58" result="effect2_dropShadow_240_58"/>
<feColorMatrix in="SourceAlpha" type="matrix" values="0 0 0 0 0 0 0 0 0 0 0 0 0 0 0 0 0 0 127 0" result="hardAlpha"/>
<feOffset dx="3" dy="47"/>
<feGaussianBlur stdDeviation="24"/>
<feColorMatrix type="matrix" values="0 0 0 0 0 0 0 0 0 0 0 0 0 0 0 0 0 0 0.09 0"/>
<feBlend mode="normal" in2="effect2_dropShadow_240_58" result="effect3_dropShadow_240_58"/>
<feColorMatrix in="SourceAlpha" type="matrix" values="0 0 0 0 0 0 0 0 0 0 0 0 0 0 0 0 0 0 127 0" result="hardAlpha"/>
<feOffset dx="6" dy="107"/>
<feGaussianBlur stdDeviation="32"/>
<feColorMatrix type="matrix" values="0 0 0 0 0 0 0 0 0 0 0 0 0 0 0 0 0 0 0.05 0"/>
<feBlend mode="normal" in2="effect3_dropShadow_240_58" result="effect4_dropShadow_240_58"/>
<feColorMatrix in="SourceAlpha" type="matrix" values="0 0 0 0 0 0 0 0 0 0 0 0 0 0 0 0 0 0 127 0" result="hardAlpha"/>
<feOffset dx="11" dy="190"/>
<feGaussianBlur stdDeviation="38"/>
<feColorMatrix type="matrix" values="0 0 0 0 0 0 0 0 0 0 0 0 0 0 0 0 0 0 0.01 0"/>
<feBlend mode="normal" in2="effect4_dropShadow_240_58" result="effect5_dropShadow_240_58"/>
<feBlend mode="normal" in="SourceGraphic" in2="effect5_dropShadow_240_58" result="shape"/>
</filter>
</defs>
</svg>