<?xml version="1.0" encoding="us-ascii" standalone="no"?>
<svg xmlns="http://www.w3.org/2000/svg" contentStyleType="text/css" height="973px" preserveAspectRatio="none"
     style="width:1640px;height:973px;background:#FFFFFF;" version="1.1" viewBox="0 0 1640 973" width="1640px"
     zoomAndPan="magnify"><defs/><g><rect fill="#DDDDDD" height="961.0391" style="stroke:#181818;stroke-width:0.5;" width="384.5" x="269" y="6"/><text fill="#000000" font-family="sans-serif" font-size="13" font-weight="bold" lengthAdjust="spacing" textLength="114" x="404.25" y="18.0669">Data Consumer</text><rect fill="#DDDDDD" height="961.0391" style="stroke:#181818;stroke-width:0.5;" width="291.5" x="721.5" y="6"/><text fill="#000000" font-family="sans-serif" font-size="13" font-weight="bold" lengthAdjust="spacing" textLength="101" x="816.75" y="18.0669">Data Provider</text><rect fill="#FFFFFF" height="93.3984" style="stroke:#181818;stroke-width:1.0;" width="10" x="315" y="798.0469"/><rect fill="#FFFFFF" height="310.3281" style="stroke:#181818;stroke-width:1.0;" width="10" x="957" y="545.9844"/><line style="stroke:#181818;stroke-width:0.5;stroke-dasharray:5.0,5.0;" x1="320" x2="320" y1="72.7266" y2="916.4453"/><line style="stroke:#181818;stroke-width:0.5;stroke-dasharray:5.0,5.0;" x1="588.5" x2="588.5" y1="72.7266" y2="916.4453"/><line style="stroke:#181818;stroke-width:0.5;stroke-dasharray:5.0,5.0;" x1="778.5" x2="778.5" y1="72.7266" y2="916.4453"/><line style="stroke:#181818;stroke-width:0.5;stroke-dasharray:5.0,5.0;" x1="962" x2="962" y1="72.7266" y2="916.4453"/><rect fill="#E2E2F0" height="46.5938" rx="2.5" ry="2.5" style="stroke:#181818;stroke-width:0.5;" width="94" x="273" y="25.1328"/><text fill="#000000" font-family="sans-serif" font-size="14" lengthAdjust="spacing" textLength="62" x="289" y="45.1279">Business</text><text fill="#000000" font-family="sans-serif" font-size="14" lengthAdjust="spacing" textLength="80" x="280" y="61.4248">Application</text><rect fill="#E2E2F0" height="46.5938" rx="2.5" ry="2.5" style="stroke:#181818;stroke-width:0.5;" width="94" x="273" y="915.4453"/><text fill="#000000" font-family="sans-serif" font-size="14" lengthAdjust="spacing" textLength="62" x="289" y="935.4404">Business</text><text fill="#000000" font-family="sans-serif" font-size="14" lengthAdjust="spacing" textLength="80" x="280" y="951.7373">Application</text><rect fill="#E2E2F0" height="30.2969" rx="2.5" ry="2.5" style="stroke:#181818;stroke-width:0.5;" width="121" x="528.5" y="41.4297"/><text fill="#000000" font-family="sans-serif" font-size="14" lengthAdjust="spacing" textLength="107" x="535.5" y="61.4248">EDC Consumer</text><rect fill="#E2E2F0" height="30.2969" rx="2.5" ry="2.5" style="stroke:#181818;stroke-width:0.5;" width="121" x="528.5" y="915.4453"/><text fill="#000000" font-family="sans-serif" font-size="14" lengthAdjust="spacing" textLength="107" x="535.5" y="935.4404">EDC Consumer</text><rect fill="#E2E2F0" height="30.2969" rx="2.5" ry="2.5" style="stroke:#181818;stroke-width:0.5;" width="107" x="725.5" y="41.4297"/><text fill="#000000" font-family="sans-serif" font-size="14" lengthAdjust="spacing" textLength="93" x="732.5" y="61.4248">EDC Provider</text><rect fill="#E2E2F0" height="30.2969" rx="2.5" ry="2.5" style="stroke:#181818;stroke-width:0.5;" width="107" x="725.5" y="915.4453"/><text fill="#000000" font-family="sans-serif" font-size="14" lengthAdjust="spacing" textLength="93" x="732.5" y="935.4404">EDC Provider</text><rect fill="#E2E2F0" height="46.5938" rx="2.5" ry="2.5" style="stroke:#181818;stroke-width:0.5;" width="94" x="915" y="25.1328"/><text fill="#000000" font-family="sans-serif" font-size="14" lengthAdjust="spacing" textLength="62" x="931" y="45.1279">Business</text><text fill="#000000" font-family="sans-serif" font-size="14" lengthAdjust="spacing" textLength="80" x="922" y="61.4248">Application</text><rect fill="#E2E2F0" height="46.5938" rx="2.5" ry="2.5" style="stroke:#181818;stroke-width:0.5;" width="94" x="915" y="915.4453"/><text fill="#000000" font-family="sans-serif" font-size="14" lengthAdjust="spacing" textLength="62" x="931" y="935.4404">Business</text><text fill="#000000" font-family="sans-serif" font-size="14" lengthAdjust="spacing" textLength="80" x="922" y="951.7373">Application</text><rect fill="#FFFFFF" height="93.3984" style="stroke:#181818;stroke-width:1.0;" width="10" x="315" y="798.0469"/><rect fill="#FFFFFF" height="310.3281" style="stroke:#181818;stroke-width:1.0;" width="10" x="957" y="545.9844"/><polygon fill="#181818" points="577,99.8594,587,103.8594,577,107.8594,581,103.8594" style="stroke:#181818;stroke-width:1.0;"/><line style="stroke:#181818;stroke-width:1.0;" x1="320" x2="583" y1="103.8594" y2="103.8594"/><text fill="#000000" font-family="sans-serif" font-size="13" font-weight="bold" lengthAdjust="spacing" textLength="9" x="332" y="98.7935">1</text><text fill="#000000" font-family="sans-serif" font-size="13" lengthAdjust="spacing" textLength="232" x="345" y="98.7935">search for request assets at partner</text><polygon fill="#181818" points="600,128.9922,590,132.9922,600,136.9922,596,132.9922" style="stroke:#181818;stroke-width:1.0;"/><polygon fill="#181818" points="767,128.9922,777,132.9922,767,136.9922,771,132.9922" style="stroke:#181818;stroke-width:1.0;"/><line style="stroke:#181818;stroke-width:1.0;" x1="594" x2="773" y1="132.9922" y2="132.9922"/><text fill="#000000" font-family="sans-serif" font-size="13" font-weight="bold" lengthAdjust="spacing" textLength="9" x="601" y="127.9263">2</text><text fill="#000000" font-family="sans-serif" font-size="13" lengthAdjust="spacing" textLength="153" x="614" y="127.9263">catalog communication</text><polygon fill="#181818" points="331,158.125,321,162.125,331,166.125,327,162.125" style="stroke:#181818;stroke-width:1.0;"/><line style="stroke:#181818;stroke-width:1.0;stroke-dasharray:2.0,2.0;" x1="325" x2="588" y1="162.125" y2="162.125"/><text fill="#000000" font-family="sans-serif" font-size="13" font-weight="bold" lengthAdjust="spacing" textLength="9" x="424" y="157.0591">3</text><text fill="#000000" font-family="sans-serif" font-size="13" lengthAdjust="spacing" textLength="48" x="437" y="157.0591">catalog</text><line style="stroke:#181818;stroke-width:1.0;" x1="320" x2="362" y1="206.3906" y2="206.3906"/><line style="stroke:#181818;stroke-width:1.0;" x1="362" x2="362" y1="206.3906" y2="219.3906"/><line style="stroke:#181818;stroke-width:1.0;" x1="321" x2="362" y1="219.3906" y2="219.3906"/><polygon fill="#181818" points="331,215.3906,321,219.3906,331,223.3906,327,219.3906" style="stroke:#181818;stroke-width:1.0;"/><text fill="#000000" font-family="sans-serif" font-size="13" font-weight="bold" lengthAdjust="spacing" textLength="9" x="327" y="193.7583">4</text><text fill="#000000" font-family="sans-serif" font-size="13" lengthAdjust="spacing" textLength="176" x="340" y="186.1919">identify Information Object</text><text fill="#000000" font-family="sans-serif" font-size="13" lengthAdjust="spacing" textLength="159" x="348.5" y="201.3247">Exchange Request asset</text><polygon fill="#181818" points="577,259.6563,587,263.6563,577,267.6563,581,263.6563" style="stroke:#181818;stroke-width:1.0;"/><line style="stroke:#181818;stroke-width:1.0;" x1="320" x2="583" y1="263.6563" y2="263.6563"/><text fill="#000000" font-family="sans-serif" font-size="13" font-weight="bold" lengthAdjust="spacing" textLength="9" x="337.5" y="251.0239">5</text><text fill="#000000" font-family="sans-serif" font-size="13" lengthAdjust="spacing" textLength="221" x="350.5" y="243.4575">negotiate contract for Information</text><text fill="#000000" font-family="sans-serif" font-size="13" lengthAdjust="spacing" textLength="191" x="367.5" y="258.5903">Object Exchange Request API</text><polygon fill="#181818" points="600,288.7891,590,292.7891,600,296.7891,596,292.7891" style="stroke:#181818;stroke-width:1.0;"/><polygon fill="#181818" points="767,288.7891,777,292.7891,767,296.7891,771,292.7891" style="stroke:#181818;stroke-width:1.0;"/><line style="stroke:#181818;stroke-width:1.0;" x1="594" x2="773" y1="292.7891" y2="292.7891"/><text fill="#000000" font-family="sans-serif" font-size="13" font-weight="bold" lengthAdjust="spacing" textLength="9" x="640.5" y="287.7231">6</text><text fill="#000000" font-family="sans-serif" font-size="13" lengthAdjust="spacing" textLength="74" x="653.5" y="287.7231">negotiation</text><polygon fill="#181818" points="331,328.4883,321,332.4883,331,336.4883,327,332.4883" style="stroke:#181818;stroke-width:1.0;"/><line style="stroke:#181818;stroke-width:1.0;stroke-dasharray:2.0,2.0;" x1="325" x2="588" y1="332.4883" y2="332.4883"/><text fill="#000000" font-family="sans-serif" font-size="13" font-weight="bold" lengthAdjust="spacing" textLength="9" x="384" y="327.4224">7</text><text fill="#000000" font-family="sans-serif" font-size="13" lengthAdjust="spacing" textLength="128" x="397" y="327.4224">contract agreement</text><path d="M5,305.7891 L5,345.7891 L315,345.7891 L315,315.7891 L305,305.7891 L5,305.7891 " fill="#FEFFDD" style="stroke:#181818;stroke-width:0.5;"/><path d="M305,305.7891 L305,315.7891 L315,315.7891 L305,305.7891 " fill="#FEFFDD" style="stroke:#181818;stroke-width:0.5;"/><text fill="#000000" font-family="sans-serif" font-size="13" lengthAdjust="spacing" textLength="285" x="11" y="322.856">Define Endpoint Data Reference Endpoint =</text><text fill="#000000" font-family="sans-serif" font-size="13" lengthAdjust="spacing" textLength="135" x="15" y="337.9888">Business Application</text><polygon fill="#181818" points="577,368.1875,587,372.1875,577,376.1875,581,372.1875" style="stroke:#181818;stroke-width:1.0;"/><line style="stroke:#181818;stroke-width:1.0;" x1="320" x2="583" y1="372.1875" y2="372.1875"/><text fill="#000000" font-family="sans-serif" font-size="13" font-weight="bold" lengthAdjust="spacing" textLength="9" x="392.5" y="367.1216">8</text><text fill="#000000" font-family="sans-serif" font-size="13" lengthAdjust="spacing" textLength="111" x="405.5" y="367.1216">initialize transfer</text><polygon fill="#181818" points="600,397.3203,590,401.3203,600,405.3203,596,401.3203" style="stroke:#181818;stroke-width:1.0;"/><polygon fill="#181818" points="767,397.3203,777,401.3203,767,405.3203,771,401.3203" style="stroke:#181818;stroke-width:1.0;"/><line style="stroke:#181818;stroke-width:1.0;" x1="594" x2="773" y1="401.3203" y2="401.3203"/><text fill="#000000" font-family="sans-serif" font-size="13" font-weight="bold" lengthAdjust="spacing" textLength="9" x="622" y="396.2544">9</text><text fill="#000000" font-family="sans-serif" font-size="13" lengthAdjust="spacing" textLength="111" x="635" y="396.2544">initialize transfer</text><polygon fill="#181818" points="331,426.4531,321,430.4531,331,434.4531,327,430.4531" style="stroke:#181818;stroke-width:1.0;"/><line style="stroke:#181818;stroke-width:1.0;stroke-dasharray:2.0,2.0;" x1="325" x2="778" y1="430.4531" y2="430.4531"/><text fill="#000000" font-family="sans-serif" font-size="13" font-weight="bold" lengthAdjust="spacing" textLength="18" x="443" y="425.3872">10</text><text fill="#000000" font-family="sans-serif" font-size="13" lengthAdjust="spacing" textLength="191" x="465" y="425.3872">transfer completed, EDR sent</text><line style="stroke:#181818;stroke-width:1.0;" x1="320" x2="362" y1="474.7188" y2="474.7188"/><line style="stroke:#181818;stroke-width:1.0;" x1="362" x2="362" y1="474.7188" y2="487.7188"/><line style="stroke:#181818;stroke-width:1.0;" x1="321" x2="362" y1="487.7188" y2="487.7188"/><polygon fill="#181818" points="331,483.7188,321,487.7188,331,491.7188,327,487.7188" style="stroke:#181818;stroke-width:1.0;"/><text fill="#000000" font-family="sans-serif" font-size="13" font-weight="bold" lengthAdjust="spacing" textLength="18" x="327" y="462.0864">11</text><text fill="#000000" font-family="sans-serif" font-size="13" lengthAdjust="spacing" textLength="166" x="349" y="454.52">prepare request based on</text><text fill="#000000" font-family="sans-serif" font-size="13" lengthAdjust="spacing" textLength="149" x="357.5" y="469.6528">EDR endpoint and auth</text><path d="M527,454.5195 L527,479.5195 L769,479.5195 L769,464.5195 L759,454.5195 L527,454.5195 " fill="#FEFFDD" style="stroke:#181818;stroke-width:0.5;"/><path d="M759,454.5195 L759,464.5195 L769,464.5195 L759,454.5195 " fill="#FEFFDD" style="stroke:#181818;stroke-width:0.5;"/><text fill="#000000" font-family="sans-serif" font-size="13" lengthAdjust="spacing" textLength="221" x="533" y="471.5864">Request against Endpoint via EDC</text><polygon fill="#181818" points="767,512.8516,777,516.8516,767,520.8516,771,516.8516" style="stroke:#181818;stroke-width:1.0;"/><line style="stroke:#181818;stroke-width:1.0;" x1="320" x2="773" y1="516.8516" y2="516.8516"/><text fill="#000000" font-family="sans-serif" font-size="13" font-weight="bold" lengthAdjust="spacing" textLength="18" x="383" y="511.7856">12</text><text fill="#000000" font-family="sans-serif" font-size="13" lengthAdjust="spacing" textLength="311" x="405" y="511.7856">Request Information Object Exchange (via EDC)</text><polygon fill="#181818" points="945,541.9844,955,545.9844,945,549.9844,949,545.9844" style="stroke:#181818;stroke-width:1.0;"/><line style="stroke:#181818;stroke-width:1.0;" x1="779" x2="951" y1="545.9844" y2="545.9844"/><text fill="#000000" font-family="sans-serif" font-size="13" font-weight="bold" lengthAdjust="spacing" textLength="18" x="812" y="540.9185">13</text><text fill="#000000" font-family="sans-serif" font-size="13" lengthAdjust="spacing" textLength="90" x="834" y="540.9185">proxy request</text><polygon fill="#181818" points="790,571.1172,780,575.1172,790,579.1172,786,575.1172" style="stroke:#181818;stroke-width:1.0;"/><line style="stroke:#181818;stroke-width:1.0;stroke-dasharray:2.0,2.0;" x1="784" x2="956" y1="575.1172" y2="575.1172"/><text fill="#000000" font-family="sans-serif" font-size="13" font-weight="bold" lengthAdjust="spacing" textLength="18" x="827" y="570.0513">14</text><text fill="#000000" font-family="sans-serif" font-size="13" lengthAdjust="spacing" textLength="60" x="849" y="570.0513">Accepted</text><polygon fill="#181818" points="331,600.25,321,604.25,331,608.25,327,604.25" style="stroke:#181818;stroke-width:1.0;"/><line style="stroke:#181818;stroke-width:1.0;stroke-dasharray:2.0,2.0;" x1="325" x2="778" y1="604.25" y2="604.25"/><text fill="#000000" font-family="sans-serif" font-size="13" font-weight="bold" lengthAdjust="spacing" textLength="18" x="508.5" y="599.1841">15</text><text fill="#000000" font-family="sans-serif" font-size="13" lengthAdjust="spacing" textLength="60" x="530.5" y="599.1841">Accepted</text><line style="stroke:#181818;stroke-width:1.0;" x1="967" x2="1009" y1="633.3828" y2="633.3828"/><line style="stroke:#181818;stroke-width:1.0;" x1="1009" x2="1009" y1="633.3828" y2="646.3828"/><line style="stroke:#181818;stroke-width:1.0;" x1="968" x2="1009" y1="646.3828" y2="646.3828"/><polygon fill="#181818" points="978,642.3828,968,646.3828,978,650.3828,974,646.3828" style="stroke:#181818;stroke-width:1.0;"/><text fill="#000000" font-family="sans-serif" font-size="13" font-weight="bold" lengthAdjust="spacing" textLength="18" x="974" y="628.3169">16</text><text fill="#000000" font-family="sans-serif" font-size="13" lengthAdjust="spacing" textLength="264" x="996" y="628.3169">Determine requested Information Object</text><path d="M1272,620.75 L1272,645.75 L1633,645.75 L1633,630.75 L1623,620.75 L1272,620.75 " fill="#FEFFDD" style="stroke:#181818;stroke-width:0.5;"/><path d="M1623,620.75 L1623,630.75 L1633,630.75 L1623,620.75 " fill="#FEFFDD" style="stroke:#181818;stroke-width:0.5;"/><text fill="#000000" font-family="sans-serif" font-size="13" lengthAdjust="spacing" textLength="340" x="1278" y="637.8169">simplified communication with EDC, same as above</text><polygon fill="#181818" points="790,671.5156,780,675.5156,790,679.5156,786,675.5156" style="stroke:#181818;stroke-width:1.0;"/><line style="stroke:#181818;stroke-width:1.0;" x1="784" x2="956" y1="675.5156" y2="675.5156"/><text fill="#000000" font-family="sans-serif" font-size="13" font-weight="bold" lengthAdjust="spacing" textLength="18" x="791" y="670.4497">17</text><text fill="#000000" font-family="sans-serif" font-size="13" lengthAdjust="spacing" textLength="132" x="813" y="670.4497">EDC communication</text><polygon fill="#181818" points="600,700.6484,590,704.6484,600,708.6484,596,704.6484" style="stroke:#181818;stroke-width:1.0;"/><polygon fill="#181818" points="767,700.6484,777,704.6484,767,708.6484,771,704.6484" style="stroke:#181818;stroke-width:1.0;"/><line style="stroke:#181818;stroke-width:1.0;" x1="594" x2="773" y1="704.6484" y2="704.6484"/><text fill="#000000" font-family="sans-serif" font-size="13" font-weight="bold" lengthAdjust="spacing" textLength="18" x="607" y="699.5825">18</text><text fill="#000000" font-family="sans-serif" font-size="13" lengthAdjust="spacing" textLength="132" x="629" y="699.5825">EDC communication</text><polygon fill="#181818" points="945,732.7813,955,736.7813,945,740.7813,949,736.7813" style="stroke:#181818;stroke-width:1.0;"/><line style="stroke:#181818;stroke-width:1.0;stroke-dasharray:2.0,2.0;" x1="589" x2="951" y1="736.7813" y2="736.7813"/><text fill="#000000" font-family="sans-serif" font-size="13" font-weight="bold" lengthAdjust="spacing" textLength="18" x="666.5" y="731.7153">19</text><text fill="#000000" font-family="sans-serif" font-size="13" lengthAdjust="spacing" textLength="191" x="688.5" y="731.7153">transfer completed, EDR sent</text><path d="M972,717.6484 L972,742.6484 L1271,742.6484 L1271,727.6484 L1261,717.6484 L972,717.6484 " fill="#FEFFDD" style="stroke:#181818;stroke-width:0.5;"/><path d="M1261,717.6484 L1261,727.6484 L1271,727.6484 L1261,717.6484 " fill="#FEFFDD" style="stroke:#181818;stroke-width:0.5;"/><text fill="#000000" font-family="sans-serif" font-size="13" lengthAdjust="spacing" textLength="278" x="978" y="734.7153">Send requested Information Objectvia EDC</text><polygon fill="#181818" points="600,764.9141,590,768.9141,600,772.9141,596,768.9141" style="stroke:#181818;stroke-width:1.0;"/><line style="stroke:#181818;stroke-width:1.0;" x1="594" x2="956" y1="768.9141" y2="768.9141"/><text fill="#000000" font-family="sans-serif" font-size="13" font-weight="bold" lengthAdjust="spacing" textLength="18" x="601.5" y="763.8481">20</text><text fill="#000000" font-family="sans-serif" font-size="13" lengthAdjust="spacing" textLength="321" x="623.5" y="763.8481">Response Information Object Exchange (via EDC)</text><polygon fill="#181818" points="336,794.0469,326,798.0469,336,802.0469,332,798.0469" style="stroke:#181818;stroke-width:1.0;"/><line style="stroke:#181818;stroke-width:1.0;" x1="330" x2="588" y1="798.0469" y2="798.0469"/><text fill="#000000" font-family="sans-serif" font-size="13" font-weight="bold" lengthAdjust="spacing" textLength="18" x="401" y="792.981">21</text><text fill="#000000" font-family="sans-serif" font-size="13" lengthAdjust="spacing" textLength="90" x="423" y="792.981">proxy request</text><polygon fill="#181818" points="577,823.1797,587,827.1797,577,831.1797,581,827.1797" style="stroke:#181818;stroke-width:1.0;"/><line style="stroke:#181818;stroke-width:1.0;stroke-dasharray:2.0,2.0;" x1="325" x2="583" y1="827.1797" y2="827.1797"/><text fill="#000000" font-family="sans-serif" font-size="13" font-weight="bold" lengthAdjust="spacing" textLength="18" x="416" y="822.1138">22</text><text fill="#000000" font-family="sans-serif" font-size="13" lengthAdjust="spacing" textLength="60" x="438" y="822.1138">Accepted</text><polygon fill="#181818" points="950,852.3125,960,856.3125,950,860.3125,954,856.3125" style="stroke:#181818;stroke-width:1.0;"/><line style="stroke:#181818;stroke-width:1.0;stroke-dasharray:2.0,2.0;" x1="589" x2="956" y1="856.3125" y2="856.3125"/><text fill="#000000" font-family="sans-serif" font-size="13" font-weight="bold" lengthAdjust="spacing" textLength="18" x="734.5" y="851.2466">23</text><text fill="#000000" font-family="sans-serif" font-size="13" lengthAdjust="spacing" textLength="60" x="756.5" y="851.2466">Accepted</text><line style="stroke:#181818;stroke-width:1.0;" x1="325" x2="367" y1="890.4453" y2="890.4453"/><line style="stroke:#181818;stroke-width:1.0;" x1="367" x2="367" y1="890.4453" y2="903.4453"/><line style="stroke:#181818;stroke-width:1.0;" x1="320" x2="367" y1="903.4453" y2="903.4453"/><polygon fill="#181818" points="330,899.4453,320,903.4453,330,907.4453,326,903.4453" style="stroke:#181818;stroke-width:1.0;"/><text fill="#000000" font-family="sans-serif" font-size="13" font-weight="bold" lengthAdjust="spacing" textLength="18" x="332" y="885.3794">24</text><text fill="#000000" font-family="sans-serif" font-size="13" lengthAdjust="spacing" textLength="56" x="354" y="885.3794">use data</text><!--SRC=[bLJDZjem4Bxp52DEhRJx0cYBH8737ggkw1MfCiuaJ9kCNTkXR9- -uonsaeKWxOa8pyptDxPgW-6sEQ2R-T_4LZdLWCS_BRB6R-Yzgd1LKyMWaODKpGxc3FED2WhMXdtRe9lFf2sG9giumFnhwucbSyyhQslIAf3XEIWFojgVMfh6zTlDkXyLox3GRsN81GZS4FF5cHCLLvXnHZvACwpyyH5gNNt6J6JXSPaPBSGQvVGHIkF0HPTya6wFGIO4Y5Wi7gLoUBhqniaB43XLcmgqQPgMB-XzyQCK9z1SFERH7ujG3bI-mZCBbwOR1TyFlr27FM_F-gYuGjWDAKv9OgnC81LGY75mIeTEtc3mFes6gychb-SfkMdkFP49K5KEiH59inaROL9Z6HQmmLBYWYqNrf3arst03ajqSJlx_x-0C4pPmY3Q2SN49CHg-eSWyEpBwSocIkFfEp7fFEPhQmnOFC1sivELuJ0LetKeIuDvbmxAOm7HyTY9IQ2IfLHjE5xSSLGTnPwSRgM8vJVxSI8boEiHva1JwhjUdJxVJvSPdmTgb_cMHEBc_9fepoH2EiKDwkzH-kXCwh5NMgCLQwPCpEU30KiO06_4MDV4jRY0Yr_NGiP6UP90g2Gf7Tqz-4lX65K-W5SDTk_0mPnmXDrpZu_CzTtjwfv6-tMxSBJ_RnFlhynGme_uBjrJFCmyszPJsg6tye4V2FtMjaw7tZtO_SAD_1Y5ViE6V5vW7feNQUBcjAAbaFVWVK_7upy0]--></g></svg>
