<?xml version="1.0" encoding="us-ascii" standalone="no"?>
<svg xmlns="http://www.w3.org/2000/svg" contentStyleType="text/css" height="2416px" preserveAspectRatio="none"
     style="width:932px;height:2416px;background:#FFFFFF;" version="1.1" viewBox="0 0 932 2416" width="932px"
     zoomAndPan="magnify"><defs/><g><rect fill="#DDDDDD" height="2404.8594" style="stroke:#181818;stroke-width:0.5;" width="428.5" x="1" y="6"/><text fill="#000000" font-family="sans-serif" font-size="13" font-weight="bold" lengthAdjust="spacing" textLength="114" x="158.25" y="18.0669">Data Consumer</text><rect fill="#DDDDDD" height="2404.8594" style="stroke:#181818;stroke-width:0.5;" width="379" x="545.5" y="6"/><text fill="#000000" font-family="sans-serif" font-size="13" font-weight="bold" lengthAdjust="spacing" textLength="101" x="684.5" y="18.0669">Data Provider</text><rect fill="#FFFFFF" height="58.2656" style="stroke:#181818;stroke-width:1.0;" width="10" x="377" y="194.7813"/><rect fill="#FFFFFF" height="58.2656" style="stroke:#181818;stroke-width:1.0;" width="10" x="377" y="339.4453"/><rect fill="#FFFFFF" height="58.2656" style="stroke:#181818;stroke-width:1.0;" width="10" x="377" y="426.8438"/><rect fill="#FFFFFF" height="58.2656" style="stroke:#181818;stroke-width:1.0;" width="10" x="377" y="514.2422"/><rect fill="#FFFFFF" height="58.2656" style="stroke:#181818;stroke-width:1.0;" width="10" x="377" y="1216.6953"/><rect fill="#FFFFFF" height="58.2656" style="stroke:#181818;stroke-width:1.0;" width="10" x="377" y="1609.9453"/><rect fill="#FFFFFF" height="58.2656" style="stroke:#181818;stroke-width:1.0;" width="10" x="377" y="1769.7422"/><rect fill="#FFFFFF" height="58.2656" style="stroke:#181818;stroke-width:1.0;" width="10" x="377" y="1899.2734"/><rect fill="#FFFFFF" height="58.2656" style="stroke:#181818;stroke-width:1.0;" width="10" x="377" y="1986.6719"/><rect fill="#FFFFFF" height="58.2656" style="stroke:#181818;stroke-width:1.0;" width="10" x="377" y="2284"/><rect fill="#FFFFFF" height="113.0977" style="stroke:#181818;stroke-width:1.0;" width="10" x="581" y="835.2695"/><rect fill="#FFFFFF" height="87.3984" style="stroke:#181818;stroke-width:1.0;" width="10" x="581" y="1100.1641"/><rect fill="#FFFFFF" height="87.3984" style="stroke:#181818;stroke-width:1.0;" width="10" x="581" y="2167.4688"/><rect fill="#FFFFFF" height="29.1328" style="stroke:#181818;stroke-width:1.0;" width="10" x="783" y="890.1016"/><rect fill="#FFFFFF" height="29.1328" style="stroke:#181818;stroke-width:1.0;" width="10" x="783" y="1129.2969"/><rect fill="#FFFFFF" height="29.1328" style="stroke:#181818;stroke-width:1.0;" width="10" x="872.5" y="2196.6016"/><line style="stroke:#181818;stroke-width:0.5;stroke-dasharray:5.0,5.0;" x1="52" x2="52" y1="72.7266" y2="2360.2656"/><line style="stroke:#181818;stroke-width:0.5;stroke-dasharray:5.0,5.0;" x1="381.5" x2="381.5" y1="72.7266" y2="2360.2656"/><line style="stroke:#181818;stroke-width:0.5;stroke-dasharray:5.0,5.0;" x1="585.5" x2="585.5" y1="72.7266" y2="2360.2656"/><line style="stroke:#181818;stroke-width:0.5;stroke-dasharray:5.0,5.0;" x1="787.5" x2="787.5" y1="72.7266" y2="2360.2656"/><line style="stroke:#181818;stroke-width:0.5;stroke-dasharray:5.0,5.0;" x1="877.5" x2="877.5" y1="72.7266" y2="2360.2656"/><rect fill="#E2E2F0" height="46.5938" rx="2.5" ry="2.5" style="stroke:#181818;stroke-width:0.5;" width="94" x="5" y="25.1328"/><text fill="#000000" font-family="sans-serif" font-size="14" lengthAdjust="spacing" textLength="62" x="21" y="45.1279">Business</text><text fill="#000000" font-family="sans-serif" font-size="14" lengthAdjust="spacing" textLength="80" x="12" y="61.4248">Application</text><rect fill="#E2E2F0" height="46.5938" rx="2.5" ry="2.5" style="stroke:#181818;stroke-width:0.5;" width="94" x="5" y="2359.2656"/><text fill="#000000" font-family="sans-serif" font-size="14" lengthAdjust="spacing" textLength="62" x="21" y="2379.2607">Business</text><text fill="#000000" font-family="sans-serif" font-size="14" lengthAdjust="spacing" textLength="80" x="12" y="2395.5576">Application</text><rect fill="#E2E2F0" height="46.5938" rx="2.5" ry="2.5" style="stroke:#181818;stroke-width:0.5;" width="87" x="338.5" y="25.1328"/><text fill="#000000" font-family="sans-serif" font-size="14" lengthAdjust="spacing" textLength="30" x="367" y="45.1279">EDC</text><text fill="#000000" font-family="sans-serif" font-size="14" lengthAdjust="spacing" textLength="73" x="345.5" y="61.4248">Consumer</text><rect fill="#E2E2F0" height="46.5938" rx="2.5" ry="2.5" style="stroke:#181818;stroke-width:0.5;" width="87" x="338.5" y="2359.2656"/><text fill="#000000" font-family="sans-serif" font-size="14" lengthAdjust="spacing" textLength="30" x="367" y="2379.2607">EDC</text><text fill="#000000" font-family="sans-serif" font-size="14" lengthAdjust="spacing" textLength="73" x="345.5" y="2395.5576">Consumer</text><rect fill="#E2E2F0" height="46.5938" rx="2.5" ry="2.5" style="stroke:#181818;stroke-width:0.5;" width="73" x="549.5" y="25.1328"/><text fill="#000000" font-family="sans-serif" font-size="14" lengthAdjust="spacing" textLength="30" x="571" y="45.1279">EDC</text><text fill="#000000" font-family="sans-serif" font-size="14" lengthAdjust="spacing" textLength="59" x="556.5" y="61.4248">Provider</text><rect fill="#E2E2F0" height="46.5938" rx="2.5" ry="2.5" style="stroke:#181818;stroke-width:0.5;" width="73" x="549.5" y="2359.2656"/><text fill="#000000" font-family="sans-serif" font-size="14" lengthAdjust="spacing" textLength="30" x="571" y="2379.2607">EDC</text><text fill="#000000" font-family="sans-serif" font-size="14" lengthAdjust="spacing" textLength="59" x="556.5" y="2395.5576">Provider</text><rect fill="#E2E2F0" height="46.5938" rx="2.5" ry="2.5" style="stroke:#181818;stroke-width:0.5;" width="73" x="751.5" y="25.1328"/><text fill="#000000" font-family="sans-serif" font-size="14" lengthAdjust="spacing" textLength="20" x="778" y="45.1279">DT</text><text fill="#000000" font-family="sans-serif" font-size="14" lengthAdjust="spacing" textLength="59" x="758.5" y="61.4248">Provider</text><rect fill="#E2E2F0" height="46.5938" rx="2.5" ry="2.5" style="stroke:#181818;stroke-width:0.5;" width="73" x="751.5" y="2359.2656"/><text fill="#000000" font-family="sans-serif" font-size="14" lengthAdjust="spacing" textLength="20" x="778" y="2379.2607">DT</text><text fill="#000000" font-family="sans-serif" font-size="14" lengthAdjust="spacing" textLength="59" x="758.5" y="2395.5576">Provider</text><rect fill="#E2E2F0" height="46.5938" rx="2.5" ry="2.5" style="stroke:#181818;stroke-width:0.5;" width="86" x="834.5" y="25.1328"/><text fill="#000000" font-family="sans-serif" font-size="14" lengthAdjust="spacing" textLength="72" x="841.5" y="45.1279">Submodel</text><text fill="#000000" font-family="sans-serif" font-size="14" lengthAdjust="spacing" textLength="63" x="846" y="61.4248">Endpoint</text><rect fill="#E2E2F0" height="46.5938" rx="2.5" ry="2.5" style="stroke:#181818;stroke-width:0.5;" width="86" x="834.5" y="2359.2656"/><text fill="#000000" font-family="sans-serif" font-size="14" lengthAdjust="spacing" textLength="72" x="841.5" y="2379.2607">Submodel</text><text fill="#000000" font-family="sans-serif" font-size="14" lengthAdjust="spacing" textLength="63" x="846" y="2395.5576">Endpoint</text><rect fill="#FFFFFF" height="58.2656" style="stroke:#181818;stroke-width:1.0;" width="10" x="377" y="194.7813"/><rect fill="#FFFFFF" height="58.2656" style="stroke:#181818;stroke-width:1.0;" width="10" x="377" y="339.4453"/><rect fill="#FFFFFF" height="58.2656" style="stroke:#181818;stroke-width:1.0;" width="10" x="377" y="426.8438"/><rect fill="#FFFFFF" height="58.2656" style="stroke:#181818;stroke-width:1.0;" width="10" x="377" y="514.2422"/><rect fill="#FFFFFF" height="58.2656" style="stroke:#181818;stroke-width:1.0;" width="10" x="377" y="1216.6953"/><rect fill="#FFFFFF" height="58.2656" style="stroke:#181818;stroke-width:1.0;" width="10" x="377" y="1609.9453"/><rect fill="#FFFFFF" height="58.2656" style="stroke:#181818;stroke-width:1.0;" width="10" x="377" y="1769.7422"/><rect fill="#FFFFFF" height="58.2656" style="stroke:#181818;stroke-width:1.0;" width="10" x="377" y="1899.2734"/><rect fill="#FFFFFF" height="58.2656" style="stroke:#181818;stroke-width:1.0;" width="10" x="377" y="1986.6719"/><rect fill="#FFFFFF" height="58.2656" style="stroke:#181818;stroke-width:1.0;" width="10" x="377" y="2284"/><rect fill="#FFFFFF" height="113.0977" style="stroke:#181818;stroke-width:1.0;" width="10" x="581" y="835.2695"/><rect fill="#FFFFFF" height="87.3984" style="stroke:#181818;stroke-width:1.0;" width="10" x="581" y="1100.1641"/><rect fill="#FFFFFF" height="87.3984" style="stroke:#181818;stroke-width:1.0;" width="10" x="581" y="2167.4688"/><rect fill="#FFFFFF" height="29.1328" style="stroke:#181818;stroke-width:1.0;" width="10" x="783" y="890.1016"/><rect fill="#FFFFFF" height="29.1328" style="stroke:#181818;stroke-width:1.0;" width="10" x="783" y="1129.2969"/><rect fill="#FFFFFF" height="29.1328" style="stroke:#181818;stroke-width:1.0;" width="10" x="872.5" y="2196.6016"/><rect fill="#EEEEEE" height="3" style="stroke:#EEEEEE;stroke-width:1.0;" width="925.5" x="0" y="105.6211"/><line style="stroke:#000000;stroke-width:1.0;" x1="0" x2="925.5" y1="105.6211" y2="105.6211"/><line style="stroke:#000000;stroke-width:1.0;" x1="0" x2="925.5" y1="108.6211" y2="108.6211"/><rect fill="#EEEEEE" height="27.7891" style="stroke:#000000;stroke-width:2.0;" width="491" x="217.25" y="92.7266"/><text fill="#000000" font-family="sans-serif" font-size="17" font-weight="bold" lengthAdjust="spacing" textLength="477" x="223.25" y="112.5063">Identify Data via Digital Twin Registry of Provider</text><rect fill="#EEEEEE" height="3" style="stroke:#EEEEEE;stroke-width:1.0;" width="925.5" x="0" y="151.082"/><line style="stroke:#000000;stroke-width:1.0;" x1="0" x2="925.5" y1="151.082" y2="151.082"/><line style="stroke:#000000;stroke-width:1.0;" x1="0" x2="925.5" y1="154.082" y2="154.082"/><rect fill="#EEEEEE" height="23.1328" style="stroke:#000000;stroke-width:2.0;" width="168" x="378.75" y="140.5156"/><text fill="#000000" font-family="sans-serif" font-size="13" font-weight="bold" lengthAdjust="spacing" textLength="149" x="384.75" y="156.5825">Contract DTR Usage</text><polygon fill="#181818" points="365,190.7813,375,194.7813,365,198.7813,369,194.7813" style="stroke:#181818;stroke-width:1.0;"/><line style="stroke:#181818;stroke-width:1.0;" x1="52" x2="371" y1="194.7813" y2="194.7813"/><text fill="#000000" font-family="sans-serif" font-size="13" font-weight="bold" lengthAdjust="spacing" textLength="9" x="103" y="189.7153">1</text><text fill="#000000" font-family="sans-serif" font-size="13" lengthAdjust="spacing" textLength="210" x="116" y="189.7153">search for DTR assets at partner</text><polygon fill="#181818" points="398,219.9141,388,223.9141,398,227.9141,394,223.9141" style="stroke:#181818;stroke-width:1.0;"/><polygon fill="#181818" points="574,219.9141,584,223.9141,574,227.9141,578,223.9141" style="stroke:#181818;stroke-width:1.0;"/><line style="stroke:#181818;stroke-width:1.0;" x1="392" x2="580" y1="223.9141" y2="223.9141"/><text fill="#000000" font-family="sans-serif" font-size="13" font-weight="bold" lengthAdjust="spacing" textLength="9" x="403.5" y="218.8481">2</text><text fill="#000000" font-family="sans-serif" font-size="13" lengthAdjust="spacing" textLength="153" x="416.5" y="218.8481">catalog communication</text><polygon fill="#181818" points="63,249.0469,53,253.0469,63,257.0469,59,253.0469" style="stroke:#181818;stroke-width:1.0;"/><line style="stroke:#181818;stroke-width:1.0;stroke-dasharray:2.0,2.0;" x1="57" x2="381" y1="253.0469" y2="253.0469"/><text fill="#000000" font-family="sans-serif" font-size="13" font-weight="bold" lengthAdjust="spacing" textLength="9" x="186.5" y="247.981">3</text><text fill="#000000" font-family="sans-serif" font-size="13" lengthAdjust="spacing" textLength="48" x="199.5" y="247.981">catalog</text><line style="stroke:#181818;stroke-width:1.0;" x1="52" x2="94" y1="297.3125" y2="297.3125"/><line style="stroke:#181818;stroke-width:1.0;" x1="94" x2="94" y1="297.3125" y2="310.3125"/><line style="stroke:#181818;stroke-width:1.0;" x1="53" x2="94" y1="310.3125" y2="310.3125"/><polygon fill="#181818" points="63,306.3125,53,310.3125,63,314.3125,59,310.3125" style="stroke:#181818;stroke-width:1.0;"/><text fill="#000000" font-family="sans-serif" font-size="13" font-weight="bold" lengthAdjust="spacing" textLength="9" x="59" y="284.6802">4</text><text fill="#000000" font-family="sans-serif" font-size="13" lengthAdjust="spacing" textLength="118" x="113.5" y="277.1138">identify DTR Offer</text><text fill="#000000" font-family="sans-serif" font-size="13" lengthAdjust="spacing" textLength="201" x="72" y="292.2466">(filter by dcat:type, cx:version)</text><polygon fill="#181818" points="365,335.4453,375,339.4453,365,343.4453,369,339.4453" style="stroke:#181818;stroke-width:1.0;"/><line style="stroke:#181818;stroke-width:1.0;" x1="52" x2="371" y1="339.4453" y2="339.4453"/><text fill="#000000" font-family="sans-serif" font-size="13" font-weight="bold" lengthAdjust="spacing" textLength="9" x="100.5" y="334.3794">5</text><text fill="#000000" font-family="sans-serif" font-size="13" lengthAdjust="spacing" textLength="215" x="113.5" y="334.3794">negotiate contract for DTR usage</text><polygon fill="#181818" points="398,364.5781,388,368.5781,398,372.5781,394,368.5781" style="stroke:#181818;stroke-width:1.0;"/><polygon fill="#181818" points="574,364.5781,584,368.5781,574,372.5781,578,368.5781" style="stroke:#181818;stroke-width:1.0;"/><line style="stroke:#181818;stroke-width:1.0;" x1="392" x2="580" y1="368.5781" y2="368.5781"/><text fill="#000000" font-family="sans-serif" font-size="13" font-weight="bold" lengthAdjust="spacing" textLength="9" x="443" y="363.5122">6</text><text fill="#000000" font-family="sans-serif" font-size="13" lengthAdjust="spacing" textLength="74" x="456" y="363.5122">negotiation</text><polygon fill="#181818" points="63,393.7109,53,397.7109,63,401.7109,59,397.7109" style="stroke:#181818;stroke-width:1.0;"/><line style="stroke:#181818;stroke-width:1.0;stroke-dasharray:2.0,2.0;" x1="57" x2="381" y1="397.7109" y2="397.7109"/><text fill="#000000" font-family="sans-serif" font-size="13" font-weight="bold" lengthAdjust="spacing" textLength="9" x="71" y="392.645">7</text><text fill="#000000" font-family="sans-serif" font-size="13" lengthAdjust="spacing" textLength="279" x="84" y="392.645">contract agreement (contractAgreementId)</text><polygon fill="#181818" points="365,422.8438,375,426.8438,365,430.8438,369,426.8438" style="stroke:#181818;stroke-width:1.0;"/><line style="stroke:#181818;stroke-width:1.0;" x1="52" x2="371" y1="426.8438" y2="426.8438"/><text fill="#000000" font-family="sans-serif" font-size="13" font-weight="bold" lengthAdjust="spacing" textLength="9" x="152.5" y="421.7778">8</text><text fill="#000000" font-family="sans-serif" font-size="13" lengthAdjust="spacing" textLength="111" x="165.5" y="421.7778">initialize transfer</text><polygon fill="#181818" points="398,451.9766,388,455.9766,398,459.9766,394,455.9766" style="stroke:#181818;stroke-width:1.0;"/><polygon fill="#181818" points="574,451.9766,584,455.9766,574,459.9766,578,455.9766" style="stroke:#181818;stroke-width:1.0;"/><line style="stroke:#181818;stroke-width:1.0;" x1="392" x2="580" y1="455.9766" y2="455.9766"/><text fill="#000000" font-family="sans-serif" font-size="13" font-weight="bold" lengthAdjust="spacing" textLength="9" x="424.5" y="450.9106">9</text><text fill="#000000" font-family="sans-serif" font-size="13" lengthAdjust="spacing" textLength="111" x="437.5" y="450.9106">initialize transfer</text><polygon fill="#181818" points="63,481.1094,53,485.1094,63,489.1094,59,485.1094" style="stroke:#181818;stroke-width:1.0;"/><line style="stroke:#181818;stroke-width:1.0;stroke-dasharray:2.0,2.0;" x1="57" x2="381" y1="485.1094" y2="485.1094"/><text fill="#000000" font-family="sans-serif" font-size="13" font-weight="bold" lengthAdjust="spacing" textLength="18" x="80.5" y="480.0435">10</text><text fill="#000000" font-family="sans-serif" font-size="13" lengthAdjust="spacing" textLength="251" x="102.5" y="480.0435">transfer completed (transferProcessId)</text><polygon fill="#181818" points="365,510.2422,375,514.2422,365,518.2422,369,514.2422" style="stroke:#181818;stroke-width:1.0;"/><line style="stroke:#181818;stroke-width:1.0;" x1="52" x2="371" y1="514.2422" y2="514.2422"/><text fill="#000000" font-family="sans-serif" font-size="13" font-weight="bold" lengthAdjust="spacing" textLength="18" x="108" y="509.1763">11</text><text fill="#000000" font-family="sans-serif" font-size="13" lengthAdjust="spacing" textLength="191" x="130" y="509.1763">get EDR for transferProcessId</text><polygon fill="#181818" points="398,539.375,388,543.375,398,547.375,394,543.375" style="stroke:#181818;stroke-width:1.0;"/><polygon fill="#181818" points="574,539.375,584,543.375,574,547.375,578,543.375" style="stroke:#181818;stroke-width:1.0;"/><line style="stroke:#181818;stroke-width:1.0;" x1="392" x2="580" y1="543.375" y2="543.375"/><text fill="#000000" font-family="sans-serif" font-size="13" font-weight="bold" lengthAdjust="spacing" textLength="18" x="411" y="538.3091">12</text><text fill="#000000" font-family="sans-serif" font-size="13" lengthAdjust="spacing" textLength="129" x="433" y="538.3091">get EDR for transfer</text><polygon fill="#181818" points="63,568.5078,53,572.5078,63,576.5078,59,572.5078" style="stroke:#181818;stroke-width:1.0;"/><line style="stroke:#181818;stroke-width:1.0;stroke-dasharray:2.0,2.0;" x1="57" x2="381" y1="572.5078" y2="572.5078"/><text fill="#000000" font-family="sans-serif" font-size="13" font-weight="bold" lengthAdjust="spacing" textLength="18" x="154.5" y="567.4419">13</text><text fill="#000000" font-family="sans-serif" font-size="13" lengthAdjust="spacing" textLength="103" x="176.5" y="567.4419">EDR (refreshed)</text><rect fill="#EEEEEE" height="3" style="stroke:#EEEEEE;stroke-width:1.0;" width="925.5" x="0" y="601.0742"/><line style="stroke:#000000;stroke-width:1.0;" x1="0" x2="925.5" y1="601.0742" y2="601.0742"/><line style="stroke:#000000;stroke-width:1.0;" x1="0" x2="925.5" y1="604.0742" y2="604.0742"/><rect fill="#EEEEEE" height="23.1328" style="stroke:#000000;stroke-width:2.0;" width="481" x="222.25" y="590.5078"/><text fill="#000000" font-family="sans-serif" font-size="13" font-weight="bold" lengthAdjust="spacing" textLength="462" x="228.25" y="606.5747">Lookup and Determine ShellDescriptor for Material in Question</text><line style="stroke:#181818;stroke-width:1.0;" x1="52" x2="94" y1="659.9063" y2="659.9063"/><line style="stroke:#181818;stroke-width:1.0;" x1="94" x2="94" y1="659.9063" y2="672.9063"/><line style="stroke:#181818;stroke-width:1.0;" x1="53" x2="94" y1="672.9063" y2="672.9063"/><polygon fill="#181818" points="63,668.9063,53,672.9063,63,676.9063,59,672.9063" style="stroke:#181818;stroke-width:1.0;"/><text fill="#000000" font-family="sans-serif" font-size="13" font-weight="bold" lengthAdjust="spacing" textLength="18" x="59" y="647.2739">14</text><text fill="#000000" font-family="sans-serif" font-size="13" lengthAdjust="spacing" textLength="199" x="81" y="639.7075">prepare material identification</text><text fill="#000000" font-family="sans-serif" font-size="13" lengthAdjust="spacing" textLength="131" x="115" y="654.8403">as specific asset ids</text><line style="stroke:#181818;stroke-width:1.0;" x1="52" x2="94" y1="717.1719" y2="717.1719"/><line style="stroke:#181818;stroke-width:1.0;" x1="94" x2="94" y1="717.1719" y2="730.1719"/><line style="stroke:#181818;stroke-width:1.0;" x1="53" x2="94" y1="730.1719" y2="730.1719"/><polygon fill="#181818" points="63,726.1719,53,730.1719,63,734.1719,59,730.1719" style="stroke:#181818;stroke-width:1.0;"/><text fill="#000000" font-family="sans-serif" font-size="13" font-weight="bold" lengthAdjust="spacing" textLength="18" x="59" y="704.5396">15</text><text fill="#000000" font-family="sans-serif" font-size="13" lengthAdjust="spacing" textLength="183" x="81" y="696.9731">prepare dtr lookup based on</text><text fill="#000000" font-family="sans-serif" font-size="13" lengthAdjust="spacing" textLength="149" x="98" y="712.106">EDR endpoint and auth</text><path d="M9,743.1719 L9,783.1719 L424,783.1719 L424,753.1719 L414,743.1719 L9,743.1719 " fill="#FEFFDD" style="stroke:#181818;stroke-width:0.5;"/><path d="M414,743.1719 L414,753.1719 L424,753.1719 L414,743.1719 " fill="#FEFFDD" style="stroke:#181818;stroke-width:0.5;"/><text fill="#000000" font-family="sans-serif" font-size="13" lengthAdjust="spacing" textLength="238" x="93.25" y="760.2388">Lookup request against DTR via EDC</text><text fill="#000000" font-family="sans-serif" font-size="13" lengthAdjust="spacing" textLength="186" x="93.25" y="775.3716">using EDR for authentication</text><polygon fill="#181818" points="569,831.2695,579,835.2695,569,839.2695,573,835.2695" style="stroke:#181818;stroke-width:1.0;"/><line style="stroke:#181818;stroke-width:1.0;" x1="52" x2="575" y1="835.2695" y2="835.2695"/><text fill="#000000" font-family="sans-serif" font-size="13" font-weight="bold" lengthAdjust="spacing" textLength="18" x="169.5" y="830.2036">16</text><text fill="#000000" font-family="sans-serif" font-size="13" lengthAdjust="spacing" textLength="272" x="191.5" y="830.2036">Lookup Material Twin at partner (via EDC)</text><path d="M596,793.4375 L596,863.4375 L907,863.4375 L907,803.4375 L897,793.4375 L596,793.4375 " fill="#FEFFDD" style="stroke:#181818;stroke-width:0.5;"/><path d="M897,793.4375 L897,803.4375 L907,803.4375 L897,793.4375 " fill="#FEFFDD" style="stroke:#181818;stroke-width:0.5;"/><text fill="#000000" font-family="sans-serif" font-size="13" lengthAdjust="spacing" textLength="290" x="602" y="810.5044">lookup uses base64-encoded parameters for</text><text fill="#000000" font-family="sans-serif" font-size="13" lengthAdjust="spacing" textLength="109" x="602" y="825.6372">- manufacturerId</text><text fill="#000000" font-family="sans-serif" font-size="13" lengthAdjust="spacing" textLength="135" x="602" y="840.77">- manufacturerPartId</text><text fill="#000000" font-family="sans-serif" font-size="13" lengthAdjust="spacing" textLength="202" x="602" y="855.9028">- digitalTwinType = "PartType"</text><polygon fill="#181818" points="771,886.1016,781,890.1016,771,894.1016,775,890.1016" style="stroke:#181818;stroke-width:1.0;"/><line style="stroke:#181818;stroke-width:1.0;" x1="591" x2="777" y1="890.1016" y2="890.1016"/><text fill="#000000" font-family="sans-serif" font-size="13" font-weight="bold" lengthAdjust="spacing" textLength="18" x="631" y="885.0356">17</text><text fill="#000000" font-family="sans-serif" font-size="13" lengthAdjust="spacing" textLength="90" x="653" y="885.0356">proxy request</text><polygon fill="#181818" points="602,915.2344,592,919.2344,602,923.2344,598,919.2344" style="stroke:#181818;stroke-width:1.0;"/><line style="stroke:#181818;stroke-width:1.0;stroke-dasharray:2.0,2.0;" x1="596" x2="787" y1="919.2344" y2="919.2344"/><text fill="#000000" font-family="sans-serif" font-size="13" font-weight="bold" lengthAdjust="spacing" textLength="18" x="636" y="914.1685">18</text><text fill="#000000" font-family="sans-serif" font-size="13" lengthAdjust="spacing" textLength="85" x="658" y="914.1685">lookup result</text><polygon fill="#181818" points="63,944.3672,53,948.3672,63,952.3672,59,948.3672" style="stroke:#181818;stroke-width:1.0;"/><line style="stroke:#181818;stroke-width:1.0;stroke-dasharray:2.0,2.0;" x1="57" x2="585" y1="948.3672" y2="948.3672"/><text fill="#000000" font-family="sans-serif" font-size="13" font-weight="bold" lengthAdjust="spacing" textLength="18" x="265.5" y="943.3013">19</text><text fill="#000000" font-family="sans-serif" font-size="13" lengthAdjust="spacing" textLength="85" x="287.5" y="943.3013">lookup result</text><line style="stroke:#181818;stroke-width:1.0;" x1="52" x2="94" y1="992.6328" y2="992.6328"/><line style="stroke:#181818;stroke-width:1.0;" x1="94" x2="94" y1="992.6328" y2="1005.6328"/><line style="stroke:#181818;stroke-width:1.0;" x1="53" x2="94" y1="1005.6328" y2="1005.6328"/><polygon fill="#181818" points="63,1001.6328,53,1005.6328,63,1009.6328,59,1005.6328" style="stroke:#181818;stroke-width:1.0;"/><text fill="#000000" font-family="sans-serif" font-size="13" font-weight="bold" lengthAdjust="spacing" textLength="18" x="59" y="980.0005">20</text><text fill="#000000" font-family="sans-serif" font-size="13" lengthAdjust="spacing" textLength="98" x="85.5" y="972.4341">base64 encode</text><text fill="#000000" font-family="sans-serif" font-size="13" lengthAdjust="spacing" textLength="107" x="81" y="987.5669">returned shell-id</text><path d="M9,1018.6328 L9,1058.6328 L424,1058.6328 L424,1028.6328 L414,1018.6328 L9,1018.6328 " fill="#FEFFDD" style="stroke:#181818;stroke-width:0.5;"/><path d="M414,1018.6328 L414,1028.6328 L424,1028.6328 L414,1018.6328 " fill="#FEFFDD" style="stroke:#181818;stroke-width:0.5;"/><text fill="#000000" font-family="sans-serif" font-size="13" lengthAdjust="spacing" textLength="301" x="61.75" y="1035.6997">Shell Descriptors request against DTR via EDC</text><text fill="#000000" font-family="sans-serif" font-size="13" lengthAdjust="spacing" textLength="186" x="61.75" y="1050.8325">using EDR for authentication</text><polygon fill="#181818" points="569,1096.1641,579,1100.1641,569,1104.1641,573,1100.1641" style="stroke:#181818;stroke-width:1.0;"/><line style="stroke:#181818;stroke-width:1.0;" x1="52" x2="575" y1="1100.1641" y2="1100.1641"/><text fill="#000000" font-family="sans-serif" font-size="13" font-weight="bold" lengthAdjust="spacing" textLength="18" x="195" y="1087.5317">21</text><text fill="#000000" font-family="sans-serif" font-size="13" lengthAdjust="spacing" textLength="164" x="243.5" y="1079.9653">Query Shell-Descriptor of</text><text fill="#000000" font-family="sans-serif" font-size="13" lengthAdjust="spacing" textLength="221" x="217" y="1095.0981">Material Twin at partner (via EDC)</text><polygon fill="#181818" points="771,1125.2969,781,1129.2969,771,1133.2969,775,1129.2969" style="stroke:#181818;stroke-width:1.0;"/><line style="stroke:#181818;stroke-width:1.0;" x1="591" x2="777" y1="1129.2969" y2="1129.2969"/><text fill="#000000" font-family="sans-serif" font-size="13" font-weight="bold" lengthAdjust="spacing" textLength="18" x="631" y="1124.231">22</text><text fill="#000000" font-family="sans-serif" font-size="13" lengthAdjust="spacing" textLength="90" x="653" y="1124.231">proxy request</text><polygon fill="#181818" points="602,1154.4297,592,1158.4297,602,1162.4297,598,1158.4297" style="stroke:#181818;stroke-width:1.0;"/><line style="stroke:#181818;stroke-width:1.0;stroke-dasharray:2.0,2.0;" x1="596" x2="787" y1="1158.4297" y2="1158.4297"/><text fill="#000000" font-family="sans-serif" font-size="13" font-weight="bold" lengthAdjust="spacing" textLength="18" x="605.5" y="1153.3638">23</text><text fill="#000000" font-family="sans-serif" font-size="13" lengthAdjust="spacing" textLength="146" x="627.5" y="1153.3638">found shellDescriptors</text><polygon fill="#181818" points="63,1183.5625,53,1187.5625,63,1191.5625,59,1187.5625" style="stroke:#181818;stroke-width:1.0;"/><line style="stroke:#181818;stroke-width:1.0;stroke-dasharray:2.0,2.0;" x1="57" x2="585" y1="1187.5625" y2="1187.5625"/><text fill="#000000" font-family="sans-serif" font-size="13" font-weight="bold" lengthAdjust="spacing" textLength="18" x="235" y="1182.4966">24</text><text fill="#000000" font-family="sans-serif" font-size="13" lengthAdjust="spacing" textLength="146" x="257" y="1182.4966">found shellDescriptors</text><polygon fill="#181818" points="365,1212.6953,375,1216.6953,365,1220.6953,369,1216.6953" style="stroke:#181818;stroke-width:1.0;"/><line style="stroke:#181818;stroke-width:1.0;" x1="52" x2="371" y1="1216.6953" y2="1216.6953"/><text fill="#000000" font-family="sans-serif" font-size="13" font-weight="bold" lengthAdjust="spacing" textLength="18" x="75.5" y="1211.6294">25</text><text fill="#000000" font-family="sans-serif" font-size="13" lengthAdjust="spacing" textLength="256" x="97.5" y="1211.6294">terminate transfer by transferProcessId</text><polygon fill="#181818" points="398,1241.8281,388,1245.8281,398,1249.8281,394,1245.8281" style="stroke:#181818;stroke-width:1.0;"/><polygon fill="#181818" points="574,1241.8281,584,1245.8281,574,1249.8281,578,1245.8281" style="stroke:#181818;stroke-width:1.0;"/><line style="stroke:#181818;stroke-width:1.0;" x1="392" x2="580" y1="1245.8281" y2="1245.8281"/><text fill="#000000" font-family="sans-serif" font-size="13" font-weight="bold" lengthAdjust="spacing" textLength="18" x="416" y="1240.7622">26</text><text fill="#000000" font-family="sans-serif" font-size="13" lengthAdjust="spacing" textLength="119" x="438" y="1240.7622">terminate transfer</text><polygon fill="#181818" points="63,1270.9609,53,1274.9609,63,1278.9609,59,1274.9609" style="stroke:#181818;stroke-width:1.0;"/><line style="stroke:#181818;stroke-width:1.0;stroke-dasharray:2.0,2.0;" x1="57" x2="381" y1="1274.9609" y2="1274.9609"/><text fill="#000000" font-family="sans-serif" font-size="13" font-weight="bold" lengthAdjust="spacing" textLength="18" x="142.5" y="1269.895">27</text><text fill="#000000" font-family="sans-serif" font-size="13" lengthAdjust="spacing" textLength="127" x="164.5" y="1269.895">transfer terminated</text><rect fill="#EEEEEE" height="3" style="stroke:#EEEEEE;stroke-width:1.0;" width="925.5" x="0" y="1303.5273"/><line style="stroke:#000000;stroke-width:1.0;" x1="0" x2="925.5" y1="1303.5273" y2="1303.5273"/><line style="stroke:#000000;stroke-width:1.0;" x1="0" x2="925.5" y1="1306.5273" y2="1306.5273"/><rect fill="#EEEEEE" height="23.1328" style="stroke:#000000;stroke-width:2.0;" width="462" x="231.75" y="1292.9609"/><text fill="#000000" font-family="sans-serif" font-size="13" font-weight="bold" lengthAdjust="spacing" textLength="443" x="237.75" y="1309.0278">Determine Submodel Endpoint of Submodel Type of Interest</text><line style="stroke:#181818;stroke-width:1.0;" x1="52" x2="94" y1="1362.3594" y2="1362.3594"/><line style="stroke:#181818;stroke-width:1.0;" x1="94" x2="94" y1="1362.3594" y2="1375.3594"/><line style="stroke:#181818;stroke-width:1.0;" x1="53" x2="94" y1="1375.3594" y2="1375.3594"/><polygon fill="#181818" points="63,1371.3594,53,1375.3594,63,1379.3594,59,1375.3594" style="stroke:#181818;stroke-width:1.0;"/><text fill="#000000" font-family="sans-serif" font-size="13" font-weight="bold" lengthAdjust="spacing" textLength="18" x="59" y="1349.7271">28</text><text fill="#000000" font-family="sans-serif" font-size="13" lengthAdjust="spacing" textLength="215" x="81" y="1342.1606">lookup submodel "DSP" endpoint</text><text fill="#000000" font-family="sans-serif" font-size="13" lengthAdjust="spacing" textLength="169" x="104" y="1357.2935">for semantic id of interest</text><line style="stroke:#181818;stroke-width:1.0;" x1="52" x2="94" y1="1404.4922" y2="1404.4922"/><line style="stroke:#181818;stroke-width:1.0;" x1="94" x2="94" y1="1404.4922" y2="1417.4922"/><line style="stroke:#181818;stroke-width:1.0;" x1="53" x2="94" y1="1417.4922" y2="1417.4922"/><polygon fill="#181818" points="63,1413.4922,53,1417.4922,63,1421.4922,59,1417.4922" style="stroke:#181818;stroke-width:1.0;"/><text fill="#000000" font-family="sans-serif" font-size="13" font-weight="bold" lengthAdjust="spacing" textLength="18" x="59" y="1399.4263">29</text><text fill="#000000" font-family="sans-serif" font-size="13" lengthAdjust="spacing" textLength="163" x="81" y="1399.4263">check if contract is given</text><line style="stroke:#181818;stroke-width:1.0;" x1="52" x2="94" y1="1461.7578" y2="1461.7578"/><line style="stroke:#181818;stroke-width:1.0;" x1="94" x2="94" y1="1461.7578" y2="1474.7578"/><line style="stroke:#181818;stroke-width:1.0;" x1="53" x2="94" y1="1474.7578" y2="1474.7578"/><polygon fill="#181818" points="63,1470.7578,53,1474.7578,63,1478.7578,59,1474.7578" style="stroke:#181818;stroke-width:1.0;"/><text fill="#000000" font-family="sans-serif" font-size="13" font-weight="bold" lengthAdjust="spacing" textLength="18" x="59" y="1449.1255">30</text><text fill="#000000" font-family="sans-serif" font-size="13" lengthAdjust="spacing" textLength="147" x="104.5" y="1441.5591">extract submodel data</text><text fill="#000000" font-family="sans-serif" font-size="13" lengthAdjust="spacing" textLength="194" x="81" y="1456.6919">(edc endpoints, asset id, href)</text><rect fill="#EEEEEE" height="3" style="stroke:#EEEEEE;stroke-width:1.0;" width="925.5" x="0" y="1505.6523"/><line style="stroke:#000000;stroke-width:1.0;" x1="0" x2="925.5" y1="1505.6523" y2="1505.6523"/><line style="stroke:#000000;stroke-width:1.0;" x1="0" x2="925.5" y1="1508.6523" y2="1508.6523"/><rect fill="#EEEEEE" height="27.7891" style="stroke:#000000;stroke-width:2.0;" width="379" x="273.25" y="1492.7578"/><text fill="#000000" font-family="sans-serif" font-size="17" font-weight="bold" lengthAdjust="spacing" textLength="365" x="279.25" y="1512.5376">Query Submodel Data at Provider EDC</text><rect fill="#EEEEEE" height="3" style="stroke:#EEEEEE;stroke-width:1.0;" width="925.5" x="0" y="1551.1133"/><line style="stroke:#000000;stroke-width:1.0;" x1="0" x2="925.5" y1="1551.1133" y2="1551.1133"/><line style="stroke:#000000;stroke-width:1.0;" x1="0" x2="925.5" y1="1554.1133" y2="1554.1133"/><rect fill="#EEEEEE" height="23.1328" style="stroke:#000000;stroke-width:2.0;" width="210" x="357.75" y="1540.5469"/><text fill="#000000" font-family="sans-serif" font-size="13" font-weight="bold" lengthAdjust="spacing" textLength="191" x="363.75" y="1556.6138">Contract Submodel Usage</text><polygon fill="#181818" points="365,1605.9453,375,1609.9453,365,1613.9453,369,1609.9453" style="stroke:#181818;stroke-width:1.0;"/><line style="stroke:#181818;stroke-width:1.0;" x1="52" x2="371" y1="1609.9453" y2="1609.9453"/><text fill="#000000" font-family="sans-serif" font-size="13" font-weight="bold" lengthAdjust="spacing" textLength="18" x="83.5" y="1597.313">31</text><text fill="#000000" font-family="sans-serif" font-size="13" lengthAdjust="spacing" textLength="240" x="105.5" y="1589.7466">search for submodel asset at partner</text><text fill="#000000" font-family="sans-serif" font-size="13" lengthAdjust="spacing" textLength="146" x="152.5" y="1604.8794">(request with asset id)</text><polygon fill="#181818" points="398,1635.0781,388,1639.0781,398,1643.0781,394,1639.0781" style="stroke:#181818;stroke-width:1.0;"/><polygon fill="#181818" points="574,1635.0781,584,1639.0781,574,1643.0781,578,1639.0781" style="stroke:#181818;stroke-width:1.0;"/><line style="stroke:#181818;stroke-width:1.0;" x1="392" x2="580" y1="1639.0781" y2="1639.0781"/><text fill="#000000" font-family="sans-serif" font-size="13" font-weight="bold" lengthAdjust="spacing" textLength="18" x="399" y="1634.0122">32</text><text fill="#000000" font-family="sans-serif" font-size="13" lengthAdjust="spacing" textLength="153" x="421" y="1634.0122">catalog communication</text><polygon fill="#181818" points="63,1664.2109,53,1668.2109,63,1672.2109,59,1668.2109" style="stroke:#181818;stroke-width:1.0;"/><line style="stroke:#181818;stroke-width:1.0;stroke-dasharray:2.0,2.0;" x1="57" x2="381" y1="1668.2109" y2="1668.2109"/><text fill="#000000" font-family="sans-serif" font-size="13" font-weight="bold" lengthAdjust="spacing" textLength="18" x="182" y="1663.145">33</text><text fill="#000000" font-family="sans-serif" font-size="13" lengthAdjust="spacing" textLength="48" x="204" y="1663.145">catalog</text><line style="stroke:#181818;stroke-width:1.0;" x1="52" x2="94" y1="1727.6094" y2="1727.6094"/><line style="stroke:#181818;stroke-width:1.0;" x1="94" x2="94" y1="1727.6094" y2="1740.6094"/><line style="stroke:#181818;stroke-width:1.0;" x1="53" x2="94" y1="1740.6094" y2="1740.6094"/><polygon fill="#181818" points="63,1736.6094,53,1740.6094,63,1744.6094,59,1740.6094" style="stroke:#181818;stroke-width:1.0;"/><text fill="#000000" font-family="sans-serif" font-size="13" font-weight="bold" lengthAdjust="spacing" textLength="18" x="59" y="1707.4106">34</text><text fill="#000000" font-family="sans-serif" font-size="13" lengthAdjust="spacing" textLength="93" x="147.5" y="1692.2778">filter offers by</text><text fill="#000000" font-family="sans-serif" font-size="13" lengthAdjust="spacing" textLength="160" x="114" y="1707.4106">data sovereignty criteria</text><text fill="#000000" font-family="sans-serif" font-size="13" lengthAdjust="spacing" textLength="226" x="81" y="1722.5435">(framework agreement &amp; purpose)</text><polygon fill="#181818" points="365,1765.7422,375,1769.7422,365,1773.7422,369,1769.7422" style="stroke:#181818;stroke-width:1.0;"/><line style="stroke:#181818;stroke-width:1.0;" x1="52" x2="371" y1="1769.7422" y2="1769.7422"/><text fill="#000000" font-family="sans-serif" font-size="13" font-weight="bold" lengthAdjust="spacing" textLength="18" x="82.5" y="1764.6763">35</text><text fill="#000000" font-family="sans-serif" font-size="13" lengthAdjust="spacing" textLength="242" x="104.5" y="1764.6763">negotiate contract for submodel data</text><polygon fill="#181818" points="398,1794.875,388,1798.875,398,1802.875,394,1798.875" style="stroke:#181818;stroke-width:1.0;"/><polygon fill="#181818" points="574,1794.875,584,1798.875,574,1802.875,578,1798.875" style="stroke:#181818;stroke-width:1.0;"/><line style="stroke:#181818;stroke-width:1.0;" x1="392" x2="580" y1="1798.875" y2="1798.875"/><text fill="#000000" font-family="sans-serif" font-size="13" font-weight="bold" lengthAdjust="spacing" textLength="18" x="438.5" y="1793.8091">36</text><text fill="#000000" font-family="sans-serif" font-size="13" lengthAdjust="spacing" textLength="74" x="460.5" y="1793.8091">negotiation</text><polygon fill="#181818" points="63,1824.0078,53,1828.0078,63,1832.0078,59,1828.0078" style="stroke:#181818;stroke-width:1.0;"/><line style="stroke:#181818;stroke-width:1.0;stroke-dasharray:2.0,2.0;" x1="57" x2="381" y1="1828.0078" y2="1828.0078"/><text fill="#000000" font-family="sans-serif" font-size="13" font-weight="bold" lengthAdjust="spacing" textLength="18" x="66.5" y="1822.9419">37</text><text fill="#000000" font-family="sans-serif" font-size="13" lengthAdjust="spacing" textLength="279" x="88.5" y="1822.9419">contract agreement (contractAgreementId)</text><line style="stroke:#181818;stroke-width:1.0;" x1="52" x2="94" y1="1857.1406" y2="1857.1406"/><line style="stroke:#181818;stroke-width:1.0;" x1="94" x2="94" y1="1857.1406" y2="1870.1406"/><line style="stroke:#181818;stroke-width:1.0;" x1="53" x2="94" y1="1870.1406" y2="1870.1406"/><polygon fill="#181818" points="63,1866.1406,53,1870.1406,63,1874.1406,59,1870.1406" style="stroke:#181818;stroke-width:1.0;"/><text fill="#000000" font-family="sans-serif" font-size="13" font-weight="bold" lengthAdjust="spacing" textLength="18" x="59" y="1852.0747">38</text><text fill="#000000" font-family="sans-serif" font-size="13" lengthAdjust="spacing" textLength="235" x="81" y="1852.0747">remember Contract for future usage</text><polygon fill="#181818" points="365,1895.2734,375,1899.2734,365,1903.2734,369,1899.2734" style="stroke:#181818;stroke-width:1.0;"/><line style="stroke:#181818;stroke-width:1.0;" x1="52" x2="371" y1="1899.2734" y2="1899.2734"/><text fill="#000000" font-family="sans-serif" font-size="13" font-weight="bold" lengthAdjust="spacing" textLength="18" x="148" y="1894.2075">39</text><text fill="#000000" font-family="sans-serif" font-size="13" lengthAdjust="spacing" textLength="111" x="170" y="1894.2075">initialize transfer</text><polygon fill="#181818" points="398,1924.4063,388,1928.4063,398,1932.4063,394,1928.4063" style="stroke:#181818;stroke-width:1.0;"/><polygon fill="#181818" points="574,1924.4063,584,1928.4063,574,1932.4063,578,1928.4063" style="stroke:#181818;stroke-width:1.0;"/><line style="stroke:#181818;stroke-width:1.0;" x1="392" x2="580" y1="1928.4063" y2="1928.4063"/><text fill="#000000" font-family="sans-serif" font-size="13" font-weight="bold" lengthAdjust="spacing" textLength="18" x="420" y="1923.3403">40</text><text fill="#000000" font-family="sans-serif" font-size="13" lengthAdjust="spacing" textLength="111" x="442" y="1923.3403">initialize transfer</text><polygon fill="#181818" points="63,1953.5391,53,1957.5391,63,1961.5391,59,1957.5391" style="stroke:#181818;stroke-width:1.0;"/><line style="stroke:#181818;stroke-width:1.0;stroke-dasharray:2.0,2.0;" x1="57" x2="381" y1="1957.5391" y2="1957.5391"/><text fill="#000000" font-family="sans-serif" font-size="13" font-weight="bold" lengthAdjust="spacing" textLength="18" x="80.5" y="1952.4731">41</text><text fill="#000000" font-family="sans-serif" font-size="13" lengthAdjust="spacing" textLength="251" x="102.5" y="1952.4731">transfer completed (transferProcessId)</text><polygon fill="#181818" points="365,1982.6719,375,1986.6719,365,1990.6719,369,1986.6719" style="stroke:#181818;stroke-width:1.0;"/><line style="stroke:#181818;stroke-width:1.0;" x1="52" x2="371" y1="1986.6719" y2="1986.6719"/><text fill="#000000" font-family="sans-serif" font-size="13" font-weight="bold" lengthAdjust="spacing" textLength="18" x="108" y="1981.606">42</text><text fill="#000000" font-family="sans-serif" font-size="13" lengthAdjust="spacing" textLength="191" x="130" y="1981.606">get EDR for transferProcessId</text><polygon fill="#181818" points="398,2011.8047,388,2015.8047,398,2019.8047,394,2015.8047" style="stroke:#181818;stroke-width:1.0;"/><polygon fill="#181818" points="574,2011.8047,584,2015.8047,574,2019.8047,578,2015.8047" style="stroke:#181818;stroke-width:1.0;"/><line style="stroke:#181818;stroke-width:1.0;" x1="392" x2="580" y1="2015.8047" y2="2015.8047"/><text fill="#000000" font-family="sans-serif" font-size="13" font-weight="bold" lengthAdjust="spacing" textLength="18" x="411" y="2010.7388">43</text><text fill="#000000" font-family="sans-serif" font-size="13" lengthAdjust="spacing" textLength="129" x="433" y="2010.7388">get EDR for transfer</text><polygon fill="#181818" points="63,2040.9375,53,2044.9375,63,2048.9375,59,2044.9375" style="stroke:#181818;stroke-width:1.0;"/><line style="stroke:#181818;stroke-width:1.0;stroke-dasharray:2.0,2.0;" x1="57" x2="381" y1="2044.9375" y2="2044.9375"/><text fill="#000000" font-family="sans-serif" font-size="13" font-weight="bold" lengthAdjust="spacing" textLength="18" x="154.5" y="2039.8716">44</text><text fill="#000000" font-family="sans-serif" font-size="13" lengthAdjust="spacing" textLength="103" x="176.5" y="2039.8716">EDR (refreshed)</text><rect fill="#EEEEEE" height="3" style="stroke:#EEEEEE;stroke-width:1.0;" width="925.5" x="0" y="2073.5039"/><line style="stroke:#000000;stroke-width:1.0;" x1="0" x2="925.5" y1="2073.5039" y2="2073.5039"/><line style="stroke:#000000;stroke-width:1.0;" x1="0" x2="925.5" y1="2076.5039" y2="2076.5039"/><rect fill="#EEEEEE" height="23.1328" style="stroke:#000000;stroke-width:2.0;" width="217" x="354.25" y="2062.9375"/><text fill="#000000" font-family="sans-serif" font-size="13" font-weight="bold" lengthAdjust="spacing" textLength="198" x="360.25" y="2079.0044">Request Submodel via EDC</text><path d="M9,2101.0703 L9,2126.0703 L424,2126.0703 L424,2111.0703 L414,2101.0703 L9,2101.0703 " fill="#FEFFDD" style="stroke:#181818;stroke-width:0.5;"/><path d="M414,2101.0703 L414,2111.0703 L424,2111.0703 L414,2101.0703 " fill="#FEFFDD" style="stroke:#181818;stroke-width:0.5;"/><text fill="#000000" font-family="sans-serif" font-size="13" lengthAdjust="spacing" textLength="362" x="31.25" y="2118.1372">request submodel via EDC using EDR for authentication</text><polygon fill="#181818" points="569,2163.4688,579,2167.4688,569,2171.4688,573,2167.4688" style="stroke:#181818;stroke-width:1.0;"/><line style="stroke:#181818;stroke-width:1.0;" x1="52" x2="575" y1="2167.4688" y2="2167.4688"/><text fill="#000000" font-family="sans-serif" font-size="13" font-weight="bold" lengthAdjust="spacing" textLength="18" x="173" y="2154.8364">45</text><text fill="#000000" font-family="sans-serif" font-size="13" lengthAdjust="spacing" textLength="265" x="195" y="2147.27">Query submodel endpoint with href from</text><text fill="#000000" font-family="sans-serif" font-size="13" lengthAdjust="spacing" textLength="193" x="231" y="2162.4028">SubmodelDescriptor.endpoint</text><polygon fill="#181818" points="860.5,2192.6016,870.5,2196.6016,860.5,2200.6016,864.5,2196.6016" style="stroke:#181818;stroke-width:1.0;"/><line style="stroke:#181818;stroke-width:1.0;" x1="591" x2="866.5" y1="2196.6016" y2="2196.6016"/><text fill="#000000" font-family="sans-serif" font-size="13" font-weight="bold" lengthAdjust="spacing" textLength="18" x="675.75" y="2191.5356">46</text><text fill="#000000" font-family="sans-serif" font-size="13" lengthAdjust="spacing" textLength="90" x="697.75" y="2191.5356">proxy request</text><polygon fill="#181818" points="602,2221.7344,592,2225.7344,602,2229.7344,598,2225.7344" style="stroke:#181818;stroke-width:1.0;"/><line style="stroke:#181818;stroke-width:1.0;stroke-dasharray:2.0,2.0;" x1="596" x2="876.5" y1="2225.7344" y2="2225.7344"/><text fill="#000000" font-family="sans-serif" font-size="13" font-weight="bold" lengthAdjust="spacing" textLength="18" x="670.75" y="2220.6685">47</text><text fill="#000000" font-family="sans-serif" font-size="13" lengthAdjust="spacing" textLength="105" x="692.75" y="2220.6685">found submodel</text><polygon fill="#181818" points="63,2250.8672,53,2254.8672,63,2258.8672,59,2254.8672" style="stroke:#181818;stroke-width:1.0;"/><line style="stroke:#181818;stroke-width:1.0;stroke-dasharray:2.0,2.0;" x1="57" x2="585" y1="2254.8672" y2="2254.8672"/><text fill="#000000" font-family="sans-serif" font-size="13" font-weight="bold" lengthAdjust="spacing" textLength="18" x="255.5" y="2249.8013">48</text><text fill="#000000" font-family="sans-serif" font-size="13" lengthAdjust="spacing" textLength="105" x="277.5" y="2249.8013">found submodel</text><polygon fill="#181818" points="365,2280,375,2284,365,2288,369,2284" style="stroke:#181818;stroke-width:1.0;"/><line style="stroke:#181818;stroke-width:1.0;" x1="52" x2="371" y1="2284" y2="2284"/><text fill="#000000" font-family="sans-serif" font-size="13" font-weight="bold" lengthAdjust="spacing" textLength="18" x="75.5" y="2278.9341">49</text><text fill="#000000" font-family="sans-serif" font-size="13" lengthAdjust="spacing" textLength="256" x="97.5" y="2278.9341">terminate transfer by transferProcessId</text><polygon fill="#181818" points="398,2309.1328,388,2313.1328,398,2317.1328,394,2313.1328" style="stroke:#181818;stroke-width:1.0;"/><polygon fill="#181818" points="574,2309.1328,584,2313.1328,574,2317.1328,578,2313.1328" style="stroke:#181818;stroke-width:1.0;"/><line style="stroke:#181818;stroke-width:1.0;" x1="392" x2="580" y1="2313.1328" y2="2313.1328"/><text fill="#000000" font-family="sans-serif" font-size="13" font-weight="bold" lengthAdjust="spacing" textLength="18" x="416" y="2308.0669">50</text><text fill="#000000" font-family="sans-serif" font-size="13" lengthAdjust="spacing" textLength="119" x="438" y="2308.0669">terminate transfer</text><polygon fill="#181818" points="63,2338.2656,53,2342.2656,63,2346.2656,59,2342.2656" style="stroke:#181818;stroke-width:1.0;"/><line style="stroke:#181818;stroke-width:1.0;stroke-dasharray:2.0,2.0;" x1="57" x2="381" y1="2342.2656" y2="2342.2656"/><text fill="#000000" font-family="sans-serif" font-size="13" font-weight="bold" lengthAdjust="spacing" textLength="18" x="142.5" y="2337.1997">51</text><text fill="#000000" font-family="sans-serif" font-size="13" lengthAdjust="spacing" textLength="127" x="164.5" y="2337.1997">transfer terminated</text><!--SRC=[xLVFQ-j64BxhhnXyA3R4FPKUJ5r8dtC8zD4qIM-2nreQoKkaNNLtvSJzwpiZxQxanB8JoYklq9EDD3-_cVbc95gdLLjlqIJsIQf66563nJzRL1b-Hcj5YTULB1Lag1n99Llz0hEDS08-QMNR6iqi8JKdCza8vM3sIskb8irKNJTD9JFXf5Op41P4qtp9IEbO_cRpALNH5ijXdlLog78WVsEdTqRlPVx6QMSalWj66dfmBBTvV2MMEtD2xA7TrZh7AbKtAc-qLAuJjjZBnhZMwpNSveICB0xGnRUN0ZQob4vKyFWi5TnZAQqp1z1531xMQr9b09qHcOFDuptymL3pYu0IB7-EIAp8jJ3P3WfjEcbXBJf2r077hQWmP4VkXSCHUluF_EGjSUmhe8A8IfUGwRfkbQ_F8BmauH1254voV6l_AD91HKOyACxVYW9DgkQ5hAXxO7k0d4oktA71AyXULdiqbjmlaecq5PRQINQR1R0212q3zlwqWwLpoGONeZI8DQK1y_3iEZowpHUNqHWIa4gIrqh-XK1sb2q-KgfJoXEnX_TSrgP2XpdCmpDgkum6yeEHb-ZWPdFVuVt6qljpE6LcAWcMcnii3DeTJaLBW_Ehrazj0uB6S4Efcfe81nvsM5KRj9cHZIDdxF0pgHf2a924trkqNFtNCpQuRmpID27KKQjlPJyZgM8AQ33Z9_q4aeIzO8m81ge-tgsmL1Osn8cYPvOk3T6wNP8eJPbgcebevsf8t2Tjc9mjzwYGolRSmQH339WmyvOHRRR9yOS99pViu2ZUKQ6y_GXPnru3mS3SUrdqOHfPxbpYCsijsYwz7tzOqkOWwioXsoLS7SlH94k2LRK55RGrQAY3ZX_SaPVkOTwJ9tj_99Q0DSpu7V-VZN8OzqNFoVuFPnL8dQkWNmu1iq4hidxuqpNYW4KLiBPjvSPj61K7TqTLdrICSPxkbXuxwB5BbK42HH68bfjwAVCBlT7rFWpDRxzUcz0OqJBh72v7qqRRBLNlw9slNBX2jygZDaBZ8nMyR256Fa6SFI6nP2Hbsdl_W4BV6hou1Q9AFacY8-Rqrmw4OuUh6HzsKqWFRld-uvQQv4_V_3PepZOFTxF8SwdYRhD8Kq_DHip9HgKtEc4nss7s1B8OLhEqKCezgWa5VEd5OWmv7J1qVr3cCH0Qd43ULx2ZTRFe3pdVsK6pE-UeX-FHHltx-d2Bmk-_tc9aVGp3a52KOMYVfTl561VVpcddhpZDHntn_I5L32zOfYMaZmHt01gOZWFuvcF-VzRcQNHFVGTDQnfjyQCNtr51lz6hRx1fI8a_gePEuHoAbbUTFrp_lnV_lNlntizL75U_ZdXWp-tLLLoZzhNcsHrwTdL6K_40xCQTYGWAe-jKXJ27_VDzaBsmF_q7wkJw31-m_lVqylJUnsZ63z-pE_E4udz_L_uD]--></g></svg>
