<?xml version="1.0" encoding="windows-1252" standalone="no"?>
<svg xmlns="http://www.w3.org/2000/svg" contentStyleType="text/css" height="534px" preserveAspectRatio="none"
     style="width:1583px;height:534px;background:#FFFFFF;" version="1.1" viewBox="0 0 1583 534" width="1583px"
     zoomAndPan="magnify"><defs/><g><!--cluster Customer--><g id="cluster_Customer"><path d="M594.5,6 L673.5,6 A3.75,3.75 0 0 1 676,8.5 L683,28.2969 L1161.5,28.2969 A2.5,2.5 0 0 1 1164,30.7969 L1164,312.5 A2.5,2.5 0 0 1 1161.5,315 L594.5,315 A2.5,2.5 0 0 1 592,312.5 L592,8.5 A2.5,2.5 0 0 1 594.5,6 " fill="none" style="stroke:#000000;stroke-width:1.5;"/><line style="stroke:#000000;stroke-width:1.5;" x1="592" x2="683" y1="28.2969" y2="28.2969"/><text fill="#000000" font-family="sans-serif" font-size="14" font-weight="bold" lengthAdjust="spacing" textLength="78" x="596" y="20.9951">Customer</text></g><!--cluster CX--><g id="cluster_CX"><path d="M1190.5,218 L1212.5,218 A3.75,3.75 0 0 1 1215,220.5 L1222,240.2969 L1573.5,240.2969 A2.5,2.5 0 0 1 1576,242.7969 L1576,312.5 A2.5,2.5 0 0 1 1573.5,315 L1190.5,315 A2.5,2.5 0 0 1 1188,312.5 L1188,220.5 A2.5,2.5 0 0 1 1190.5,218 " fill="none" style="stroke:#000000;stroke-width:1.5;"/><line style="stroke:#000000;stroke-width:1.5;" x1="1188" x2="1222" y1="240.2969" y2="240.2969"/><text fill="#000000" font-family="sans-serif" font-size="14" font-weight="bold" lengthAdjust="spacing" textLength="21" x="1192" y="232.9951">CX</text></g><!--cluster Supplier--><g id="cluster_Supplier"><path d="M8.5,218 L75.5,218 A3.75,3.75 0 0 1 78,220.5 L85,240.2969 L565.5,240.2969 A2.5,2.5 0 0 1 568,242.7969 L568,524.5 A2.5,2.5 0 0 1 565.5,527 L8.5,527 A2.5,2.5 0 0 1 6,524.5 L6,220.5 A2.5,2.5 0 0 1 8.5,218 " fill="none" style="stroke:#000000;stroke-width:1.5;"/><line style="stroke:#000000;stroke-width:1.5;" x1="6" x2="85" y1="240.2969" y2="240.2969"/><text fill="#000000" font-family="sans-serif" font-size="14" font-weight="bold" lengthAdjust="spacing" textLength="66" x="10" y="232.9951">Supplier</text></g><!--entity edc_cus--><g id="elem_edc_cus"><rect fill="#F1F1F1" height="46.2969" rx="2.5" ry="2.5" style="stroke:#181818;stroke-width:0.5;" width="263" x="884.5" y="147"/><rect fill="#F1F1F1" height="10" style="stroke:#181818;stroke-width:0.5;" width="15" x="1127.5" y="152"/><rect fill="#F1F1F1" height="2" style="stroke:#181818;stroke-width:0.5;" width="4" x="1125.5" y="154"/><rect fill="#F1F1F1" height="2" style="stroke:#181818;stroke-width:0.5;" width="4" x="1125.5" y="158"/><text fill="#000000" font-family="sans-serif" font-size="14" lengthAdjust="spacing" textLength="223" x="899.5" y="179.9951">Tractus-X Connector Customer</text></g><!--entity postgres_cus--><g id="elem_postgres_cus"><rect fill="#F1F1F1" height="46.2969" rx="2.5" ry="2.5" style="stroke:#181818;stroke-width:0.5;" width="141" x="684.5" y="41"/><rect fill="#F1F1F1" height="10" style="stroke:#181818;stroke-width:0.5;" width="15" x="805.5" y="46"/><rect fill="#F1F1F1" height="2" style="stroke:#181818;stroke-width:0.5;" width="4" x="803.5" y="48"/><rect fill="#F1F1F1" height="2" style="stroke:#181818;stroke-width:0.5;" width="4" x="803.5" y="52"/><text fill="#000000" font-family="sans-serif" font-size="14" lengthAdjust="spacing" textLength="101" x="699.5" y="73.9951">Postgresql DB</text></g><!--entity puris_backend_cus--><g id="elem_puris_backend_cus"><rect fill="#F1F1F1" height="46.2969" rx="2.5" ry="2.5" style="stroke:#181818;stroke-width:0.5;" width="188" x="661" y="147"/><rect fill="#F1F1F1" height="10" style="stroke:#181818;stroke-width:0.5;" width="15" x="829" y="152"/><rect fill="#F1F1F1" height="2" style="stroke:#181818;stroke-width:0.5;" width="4" x="827" y="154"/><rect fill="#F1F1F1" height="2" style="stroke:#181818;stroke-width:0.5;" width="4" x="827" y="158"/><text fill="#000000" font-family="sans-serif" font-size="14" lengthAdjust="spacing" textLength="148" x="676" y="179.9951">PURIS FOSS Backend</text></g><!--entity puris_frontend_cus--><g id="elem_puris_frontend_cus"><rect fill="#F1F1F1" height="46.2969" rx="2.5" ry="2.5" style="stroke:#181818;stroke-width:0.5;" width="192" x="659" y="253"/><rect fill="#F1F1F1" height="10" style="stroke:#181818;stroke-width:0.5;" width="15" x="831" y="258"/><rect fill="#F1F1F1" height="2" style="stroke:#181818;stroke-width:0.5;" width="4" x="829" y="260"/><rect fill="#F1F1F1" height="2" style="stroke:#181818;stroke-width:0.5;" width="4" x="829" y="264"/><text fill="#000000" font-family="sans-serif" font-size="14" lengthAdjust="spacing" textLength="152" x="674" y="285.9951">PURIS FOSS Frontend</text></g><!--entity Interface internal systems\n(Customer)--><g id="elem_Interface internal systems\n(Customer)"><ellipse cx="617" cy="170" fill="#F1F1F1" rx="8" ry="8" style="stroke:#181818;stroke-width:0.5;"/><text fill="#000000" font-family="sans-serif" font-size="14" lengthAdjust="spacing" textLength="189" x="522.5" y="199.9951">Interface internal systems</text><text fill="#000000" font-family="sans-serif" font-size="14" lengthAdjust="spacing" textLength="80" x="522.5" y="216.292">(Customer)</text></g><!--entity keycloak--><g id="elem_keycloak"><rect fill="#F1F1F1" height="46.2969" rx="2.5" ry="2.5" style="stroke:#181818;stroke-width:0.5;" width="105" x="1454.5" y="253"/><rect fill="#F1F1F1" height="10" style="stroke:#181818;stroke-width:0.5;" width="15" x="1539.5" y="258"/><rect fill="#F1F1F1" height="2" style="stroke:#181818;stroke-width:0.5;" width="4" x="1537.5" y="260"/><rect fill="#F1F1F1" height="2" style="stroke:#181818;stroke-width:0.5;" width="4" x="1537.5" y="264"/><text fill="#000000" font-family="sans-serif" font-size="14" lengthAdjust="spacing" textLength="65" x="1469.5" y="285.9951">Keycloak</text></g><!--entity miw--><g id="elem_miw"><rect fill="#F1F1F1" height="46.2969" rx="2.5" ry="2.5" style="stroke:#181818;stroke-width:0.5;" width="215" x="1204.5" y="253"/><rect fill="#F1F1F1" height="10" style="stroke:#181818;stroke-width:0.5;" width="15" x="1399.5" y="258"/><rect fill="#F1F1F1" height="2" style="stroke:#181818;stroke-width:0.5;" width="4" x="1397.5" y="260"/><rect fill="#F1F1F1" height="2" style="stroke:#181818;stroke-width:0.5;" width="4" x="1397.5" y="264"/><text fill="#000000" font-family="sans-serif" font-size="14" lengthAdjust="spacing" textLength="175" x="1219.5" y="285.9951">Managed Identity Wallet</text></g><!--entity edc_sup--><g id="elem_edc_sup"><rect fill="#F1F1F1" height="46.2969" rx="2.5" ry="2.5" style="stroke:#181818;stroke-width:0.5;" width="253" x="298.5" y="359"/><rect fill="#F1F1F1" height="10" style="stroke:#181818;stroke-width:0.5;" width="15" x="531.5" y="364"/><rect fill="#F1F1F1" height="2" style="stroke:#181818;stroke-width:0.5;" width="4" x="529.5" y="366"/><rect fill="#F1F1F1" height="2" style="stroke:#181818;stroke-width:0.5;" width="4" x="529.5" y="370"/><text fill="#000000" font-family="sans-serif" font-size="14" lengthAdjust="spacing" textLength="213" x="313.5" y="391.9951">Tractus-X Connector Supplier</text></g><!--entity postgres_sup--><g id="elem_postgres_sup"><rect fill="#F1F1F1" height="46.2969" rx="2.5" ry="2.5" style="stroke:#181818;stroke-width:0.5;" width="141" x="45.5" y="253"/><rect fill="#F1F1F1" height="10" style="stroke:#181818;stroke-width:0.5;" width="15" x="166.5" y="258"/><rect fill="#F1F1F1" height="2" style="stroke:#181818;stroke-width:0.5;" width="4" x="164.5" y="260"/><rect fill="#F1F1F1" height="2" style="stroke:#181818;stroke-width:0.5;" width="4" x="164.5" y="264"/><text fill="#000000" font-family="sans-serif" font-size="14" lengthAdjust="spacing" textLength="101" x="60.5" y="285.9951">Postgresql DB</text></g><!--entity puris_backend_sup--><g id="elem_puris_backend_sup"><rect fill="#F1F1F1" height="46.2969" rx="2.5" ry="2.5" style="stroke:#181818;stroke-width:0.5;" width="188" x="22" y="359"/><rect fill="#F1F1F1" height="10" style="stroke:#181818;stroke-width:0.5;" width="15" x="190" y="364"/><rect fill="#F1F1F1" height="2" style="stroke:#181818;stroke-width:0.5;" width="4" x="188" y="366"/><rect fill="#F1F1F1" height="2" style="stroke:#181818;stroke-width:0.5;" width="4" x="188" y="370"/><text fill="#000000" font-family="sans-serif" font-size="14" lengthAdjust="spacing" textLength="148" x="37" y="391.9951">PURIS FOSS Backend</text></g><!--entity puris_frontend_sup--><g id="elem_puris_frontend_sup"><rect fill="#F1F1F1" height="46.2969" rx="2.5" ry="2.5" style="stroke:#181818;stroke-width:0.5;" width="192" x="22" y="465"/><rect fill="#F1F1F1" height="10" style="stroke:#181818;stroke-width:0.5;" width="15" x="194" y="470"/><rect fill="#F1F1F1" height="2" style="stroke:#181818;stroke-width:0.5;" width="4" x="192" y="472"/><rect fill="#F1F1F1" height="2" style="stroke:#181818;stroke-width:0.5;" width="4" x="192" y="476"/><text fill="#000000" font-family="sans-serif" font-size="14" lengthAdjust="spacing" textLength="152" x="37" y="497.9951">PURIS FOSS Frontend</text></g><!--entity Interface internal systems\n(Supplier)--><g id="elem_Interface internal systems\n(Supplier)"><ellipse cx="254" cy="382" fill="#F1F1F1" rx="8" ry="8" style="stroke:#181818;stroke-width:0.5;"/><text fill="#000000" font-family="sans-serif" font-size="14" lengthAdjust="spacing" textLength="189" x="159.5" y="411.9951">Interface internal systems</text><text fill="#000000" font-family="sans-serif" font-size="14" lengthAdjust="spacing" textLength="70" x="159.5" y="428.292">(Supplier)</text></g><!--link puris_backend_cus to edc_cus--><g id="link_puris_backend_cus_edc_cus"><path d="M849.052,170 C860.79,170 872.529,170 884.267,170 " fill="none" id="puris_backend_cus-edc_cus" style="stroke:#181818;stroke-width:1.0;"/></g><!--link postgres_cus to puris_backend_cus--><g id="link_postgres_cus_puris_backend_cus"><path d="M755,87.056 C755,104.705 755,129.335 755,146.976 " fill="none" id="postgres_cus-puris_backend_cus" style="stroke:#181818;stroke-width:1.0;"/></g><!--link Interface internal systems\n(Customer) to puris_backend_cus--><g id="link_Interface internal systems\n(Customer)_puris_backend_cus"><path d="M626.164,170 C637.739,170 649.314,170 660.889,170 " fill="none" id="Interface internal systems\n(Customer)-puris_backend_cus" style="stroke:#181818;stroke-width:1.0;"/></g><!--link puris_backend_cus to puris_frontend_cus--><g id="link_puris_backend_cus_puris_frontend_cus"><path d="M755,193.056 C755,210.705 755,235.335 755,252.976 " fill="none" id="puris_backend_cus-puris_frontend_cus" style="stroke:#181818;stroke-width:1.0;"/></g><!--link edc_sup to puris_backend_sup--><g id="link_edc_sup_puris_backend_sup"><path d="M371.666,358.988 C335.927,346.269 287.684,334.278 244.5,341 C221.362,344.602 196.693,351.646 175.219,358.893 " fill="none" id="edc_sup-puris_backend_sup" style="stroke:#181818;stroke-width:1.0;"/></g><!--link postgres_sup to puris_backend_sup--><g id="link_postgres_sup_puris_backend_sup"><path d="M116,299.056 C116,316.705 116,341.335 116,358.976 " fill="none" id="postgres_sup-puris_backend_sup" style="stroke:#181818;stroke-width:1.0;"/></g><!--link puris_backend_sup to Interface internal systems\n(Supplier)--><g id="link_puris_backend_sup_Interface internal systems\n(Supplier)"><path d="M210.066,382 C221.622,382 233.177,382 244.733,382 " fill="none" id="puris_backend_sup-Interface internal systems\n(Supplier)" style="stroke:#181818;stroke-width:1.0;"/></g><!--link puris_backend_sup to puris_frontend_sup--><g id="link_puris_backend_sup_puris_frontend_sup"><path d="M116.424,405.056 C116.764,422.705 117.237,447.3353 117.576,464.9761 " fill="none" id="puris_backend_sup-puris_frontend_sup" style="stroke:#181818;stroke-width:1.0;"/></g><!--link edc_cus to keycloak--><g id="link_edc_cus_keycloak"><path d="M1147.69,173.997 C1251.52,178.053 1386.87,187.589 1437,210 C1458.2,219.475 1477.14,238.027 1489.96,252.893 " fill="none" id="edc_cus-keycloak" style="stroke:#181818;stroke-width:1.0;"/></g><!--link edc_cus to miw--><g id="link_edc_cus_miw"><path d="M1108.65,193.034 C1127.14,198.098 1146.31,203.828 1164,210 C1199.24,222.297 1237.81,239.361 1266.74,252.92 " fill="none" id="edc_cus-miw" style="stroke:#181818;stroke-width:1.0;"/></g><!--link keycloak to edc_sup--><g id="link_keycloak_edc_sup"><path d="M1480.48,299.196 C1468.07,308.274 1452.6,317.842 1437,323 C1276.28,376.138 785.637,382.166 551.678,381.88 " fill="none" id="keycloak-edc_sup" style="stroke:#181818;stroke-width:1.0;"/></g><!--link miw to edc_sup--><g id="link_miw_edc_sup"><path d="M1251.93,299.012 C1225.34,307.883 1193.46,317.339 1164,323 C951.68,363.797 699.769,376.026 551.669,379.613 " fill="none" id="miw-edc_sup" style="stroke:#181818;stroke-width:1.0;"/></g><!--SRC=[ZPBHJiCW58Rl-nGdNBaBNc8pInfZD5RZ4ZKBKhOqfO10OnhZkmiKQcV9vbqvv-ESd_-l8hGbHmPeqnihEwRHLr40l3ngGcrly0usKWX6hTIGa3SW1bXDzxGt0RwNnXurCnyShjUXgs8b89vuUYWhsDvL5QpTHYRg4UjrO_RlOoN3RhKKzXG-n59QlXW1UD869pe0u-n2LBg1-a0eWyP_2SB13CQophoAg_Je5OByzOm0dDNwNHHgSdk7O3JwXWsKIzA69xRnu1ktH3YqXh9cmZPsW6V2ERE1wvhFCEztODKhnPkpyILaYi_qwb9y7lblV4lsN7nnUTIny7OSDjUnZ2yoVsjkrlb8an4hbB-EirgTtV6_yiIKrAmMKaaDNqWckyRi-0C0]--></g></svg>
